<?xml version="1.0" encoding="utf-8"?>
<!-- Generator: Adobe Illustrator 26.4.1, SVG Export Plug-In . SVG Version: 6.00 Build 0)  -->
<svg version="1.1" id="Capa_1" xmlns="http://www.w3.org/2000/svg" xmlns:xlink="http://www.w3.org/1999/xlink" x="0px" y="0px"
	 viewBox="0 0 1005 600" style="enable-background:new 0 0 1005 600;" xml:space="preserve">
<style type="text/css">
	.st0{fill:#F7F7F7;}
	.st1{fill:#D3B700;}
	.st2{fill:#E41313;}
	.st3{fill:#3D616F;}
	.st4{fill:#D07B1B;}
	.st5{fill:#4A4A49;}
	.st6{fill:#242422;}
	.st7{font-family:'Arial-ItalicMT';}
	.st8{font-size:14px;}
	.st9{font-family:'Arial-BoldMT';}
	.st10{enable-background:new    ;}
	.st11{font-family:'ArialMT';}
	.st12{font-size:15px;}
	.st13{font-size:20px;}
</style>
<rect id="backgorund" class="st0" width="1005" height="600"/>
<g id="viz" transform="translate(402.5,300)">
	<path class="st1" d="M64.5-199.3c110.1,0,199.3,89.2,199.3,199.3S174.6,199.3,64.5,199.3S-134.8,110.1-134.8,0
		S-45.5-199.3,64.5-199.3 M64.5-100.7C8.9-100.7-36.2-55.6-36.2,0S8.9,100.7,64.5,100.7c0,0,0,0,0,0c55.6,0,100.7-45.1,100.7-100.7
		S120.2-100.7,64.5-100.7C64.6-100.7,64.5-100.7,64.5-100.7z"/>
	<path class="st2" d="M65.6-300c165.7,0.6,299.5,135.4,299,301c-0.1,23.8-3,47.4-8.7,70.5l-95.7-23.9
		c26.3-108.1-39.9-217-147.9-243.4c-15.3-3.7-30.9-5.6-46.7-5.7V-300z"/>
	<path class="st3" d="M355.4,73.6c-13.6,53.8-41.9,102.8-81.7,141.5l-68.5-70.9c26.5-25.9,45.4-58.5,54.5-94.4L355.4,73.6z"/>
	<path class="st4" d="M272.2,216.5c-82.2,78.9-202.1,104.3-309.3,65.7l33.7-92.7c71.8,25.7,151.9,8.7,207-44L272.2,216.5z"/>
	<path class="st5" d="M-39.1,281.5c-52.1-19.2-97.8-52.4-132.2-96l77.7-60.7c22.9,29.1,53.5,51.2,88.2,64.1L-39.1,281.5z"/>
	<path class="st6" d="M-172.5,183.9C-274.1,53-250.3-135.5-119.4-237C-67-277.6-2.7-299.8,63.5-300v98.6
		C-47.7-200.8-137.4-110.2-136.9,1c0.2,44.2,15,87.1,42.1,122.1L-172.5,183.9z"/>
</g>
<g id="labels" transform="translate(402.5,300)">
	<text transform="matrix(1 -3.222603e-04 3.222603e-04 1 -110.5557 -3.949284e-03)" class="st0 st7 st8">Pasajeros</text>
	<text transform="matrix(0.788 -0.6157 0.6157 0.788 239.6802 -121.7474)" class="st0 st9 st8">El impacto</text>
	<text transform="matrix(0.866 0.5 -0.5 0.866 248.782 102.0084)" class="st10"><tspan x="0" y="0" class="st0 st9 st8">Heridas</tspan><tspan x="0" y="16.8" class="st0 st9 st8">y frio</tspan></text>
	<text transform="matrix(0.2079 0.9781 -0.9781 0.2079 105.6718 206.4604)" class="st0 st9 st8">Alud</text>
	<text transform="matrix(0.5878 -0.809 0.809 0.5878 -76.3371 203.172)" class="st0 st9 st8">Otros</text>
	<text transform="matrix(0.8988 0.4384 -0.4384 0.8988 -201.574 -121.7471)" class="st0 st9 st8">Sobrevientes</text>
</g>
<g id="legend" transform="translate(805,10)">
	<g transform="translate(5,0)">
		<g transform="translate(0,0)">
			<g transform="translate(0,16)">
				<g transform="translate(0, 0)">
					<rect x="-31.1" y="24.9" class="st2" width="15" height="15"/>
				</g>
				<g transform="translate(0, 21)">
					<rect x="-31.1" y="24.9" class="st3" width="15" height="15"/>
				</g>
				<g transform="translate(0, 42)">
					<rect x="-31.1" y="24.9" class="st4" width="15" height="15"/>
				</g>
				<g transform="translate(0, 63)">
					<rect x="-31.1" y="24.9" class="st5" width="15" height="15"/>
					<text transform="matrix(1 0 0 1 -11.0752 37.4194)" class="st11 st12">Otros</text>
				</g>
				<g transform="translate(0, 84)">
					<rect x="-31.1" y="24.9" class="st6" width="15" height="15"/>
					<text transform="matrix(1 0 0 1 -11.0752 37.4194)" class="st11 st12">Sobrevientes</text>
				</g>
				<text transform="matrix(1 0 0 1 -9.4604 78.4194)" class="st11 st12">Alud</text>
				<g transform="translate(0, 21)">
					<text transform="matrix(1 0 0 1 -10.8604 16.4415)" class="st11 st12">El impacto</text>
				</g>
				<g transform="translate(0, 42)">
					<text transform="matrix(1 0 0 1 -9.6753 16.1792)" class="st11 st12">Heridas y frio</text>
				</g>
			</g>
			<text transform="matrix(1 0 0 1 -31.0747 27.7192)" class="st9 st13">Causa de muerte</text>
		</g>
	</g>
</g>
</svg>
