<?xml version="1.0" encoding="utf-8"?>
<!-- Generator: Adobe Illustrator 26.4.1, SVG Export Plug-In . SVG Version: 6.00 Build 0)  -->
<svg version="1.1" xmlns="http://www.w3.org/2000/svg" xmlns:xlink="http://www.w3.org/1999/xlink" x="0px" y="0px"
	 viewBox="0 0 1005 600" style="enable-background:new 0 0 1005 600;" xml:space="preserve">
<style type="text/css">
	.st0{fill:#F7F7F7;}
	.st1{fill:none;stroke:#000000;stroke-width:2;stroke-miterlimit:10;}
	.st2{fill:none;stroke:#E58D51;stroke-width:5;stroke-miterlimit:10;}
	.st3{fill:#D3B700;}
	.st4{font-family:'Helvetica';}
	.st5{font-size:19.9827px;}
	.st6{fill:#F7F7F8;}
	.st7{font-size:61.9743px;}
	.st8{fill:#ABABAC;}
	.st9{fill:#E41313;}
	.st10{font-size:18.2108px;}
	.st11{fill:none;stroke:#4A4A49;stroke-width:2;stroke-miterlimit:10;}
	.st12{fill:none;stroke:#41AB34;stroke-width:2;stroke-miterlimit:10;}
	.st13{font-size:10px;}
	.st14{fill:none;stroke:#4A4A49;stroke-miterlimit:10;}
	.st15{fill:#4A4A49;}
	.st16{font-size:10.5829px;}
	.st17{fill:none;}
	.st18{fill:#FFFFFF;}
	.st19{font-size:11.8873px;}
	.st20{fill:#4A4A49;stroke:#FFFFFF;stroke-miterlimit:10;}
	.st21{opacity:0.36;fill:#B8B8B9;stroke:#FFFFFF;stroke-miterlimit:10;}
	.st22{fill:#515151;stroke:#D3B700;stroke-miterlimit:10;}
	.st23{opacity:0.77;}
	.st24{fill:none;stroke:#000000;stroke-miterlimit:10;stroke-dasharray:12,12;}
	.st25{font-size:12.7563px;}
</style>
<g id="Capa_1">
	<rect class="st0" width="1005" height="600"/>
</g>
<g id="Capa_2">
	<path class="st1" d="M860.2,51c6,35.6,11.9,89.4,6.5,154.2c-7,85-14,169.8-74.1,214.9c-24,18-66.4,22.3-151.1,31
		c-97.2,9.9-157.8,15.4-176.2-15.3c-8.8-14.8-3.5-38.3,7-85.3c7-31.2,15.9-56.4,22.9-74"/>
	<path class="st2" d="M473.5,154.2l-27.2-27.7c0,0-3.6-32.5,0-39.1C450,81,467,64.7,467,64.7l9.2-8.1l2.6-13l6.5-30.9L487-3
		c-12.2,7.7-26.3,12-38.1,20.4c-2.5,1.8-4.9,0.8-6.2-1.2c-5.9,10-7.4,22.7-10.3,33.6c-5,18.7-13.5,36.8-22.1,54.1
		c-9.2,18.4-19.6,36.3-29.6,54.2c-38.1,68-44.7,146.7-49.2,222.9c-2,33.3-5.8,67.1-3.5,100.5c1,15.6,3.7,31.6,10.7,45.7
		c6.8,13.7,17.1,23.4,31,29.6c25.9,11.5,57.1,11.6,79,31.3c2.4,2.2,4.4,4.4,6.1,6.8l0.5-25.9l-15.7-15.3v-38.4L429,497.3L383.2,478
		v-35.8l6.5-19.5h13.1l6.5-21.2h15.7l15.7-9.8c0,0,15.7-21.2,14.4-26c-1.3-4.9,11.8-16.3,11.8-16.3l1.3-50.4c0,0,22.1-1.6,23.5-19.5
		c1.4-17.9,10.6-52.1,10.6-52.1l7.9-52.1v-13L473.5,154.2z"/>
	<path class="st3" d="M455.2,570.7l-16.3-15.3V517l-10.9-18.1l-47.5-19.3v-35.8l6.8-19.5h13.6l6.8-21.2H424l16.3-9.8
		c0,0,16.3-21.2,14.9-26c-1.4-4.9,12.2-16.3,12.2-16.3l1.4-50.4c0,0,22.9-1.6,24.3-19.5S504,229,504,229l8.1-52.1v-13l-38-8.1
		L446,128.2c0,0-3.8-32.5,0-39.1c3.8-6.5,21.4-22.8,21.4-22.8l9.5-8.1l2.7-13l6.8-30.9l3.6-32.4l-444.9-8v637.3h409.3L455.2,570.7z"
		/>
	<g>
		<text transform="matrix(1 0 0 1 108.1692 51.0003)" class="st4 st5">SANTIAGO</text>
	</g>
	<g>
		<text transform="matrix(1 0 0 1 447.3534 201.7146)" class="st4 st5">MONTE SELER</text>
	</g>
	<g>
		<text transform="matrix(1 0 0 1 262.5005 325.8151)" class="st6 st4 st7">CHILE</text>
	</g>
	<text transform="matrix(1 0 0 1 522.917 325.1959)" class="st8 st4 st7">ARGENTINA</text>
	<text transform="matrix(1 0 0 1 818.1266 33.0849)" class="st4 st5">MENDOZA</text>
	<circle class="st9" cx="496.6" cy="271.2" r="24.8"/>
	<g>
		<text transform="matrix(1 0 0 1 766.7748 456.1982)" class="st4 st10">MALARGÜE</text>
	</g>
	<line class="st11" x1="841.4" y1="533.7" x2="870.2" y2="533.7"/>
	<line class="st12" x1="841.4" y1="551.4" x2="870.2" y2="551.4"/>
	<text transform="matrix(1 0 0 1 875.4323 536.7415)" class="st4 st13">RUTA QUE TOMÓ</text>
	<text transform="matrix(1 0 0 1 875.3288 598.0974)" class="st4 st13">LUGAR DE IMPACTO</text>
	<text transform="matrix(1 0 0 1 875.3288 555.2786)" class="st4 st13">RUTA QUE DEBÍA TOMAR</text>
	<text transform="matrix(1 0 0 1 875.3288 576.2112)" class="st4 st13">LUGAR AL QUE CREYÓ  LLEGAR</text>
	<polygon class="st14" points="860.9,577 854.3,574.1 848.2,577.9 848.9,570.8 843.3,566.1 850.4,564.6 853.1,557.9 856.7,564.1 
		863.9,564.6 859.2,570 	"/>
	<text transform="matrix(1 0 0 1 880.6582 192.47)" class="st15 st4 st16">AVIÓN 571</text>
	<circle class="st9" cx="854.3" cy="590" r="8.2"/>
	<line class="st17" x1="1074.6" y1="279" x2="1074.9" y2="278.2"/>
	<line class="st17" x1="1087.7" y1="238.7" x2="1087.7" y2="238.5"/>
	<g>
		<g>
			<polygon class="st18" points="136,540.2 135.9,536.7 148,527.8 			"/>
			<polygon class="st18" points="136,540.2 139.6,540.2 148,527.8 			"/>
		</g>
		<g>
			<polygon class="st18" points="136,540.2 136.2,543.8 124,552.7 			"/>
			<polygon class="st18" points="136,540.2 132.4,540.2 124,552.7 			"/>
		</g>
		<g>
			<polygon class="st18" points="136.5,540.2 132.9,540.4 124,528.2 			"/>
			<polygon class="st18" points="136.5,540.2 136.5,536.7 124,528.2 			"/>
		</g>
		<g>
			<polygon class="st18" points="136.5,540.2 140.1,540.1 149,552.2 			"/>
			<polygon class="st18" points="136.5,540.2 136.5,543.8 149,552.2 			"/>
		</g>
		<g>
			<polygon class="st18" points="136,540.2 131.9,536.2 136,512.4 			"/>
			<polygon class="st18" points="136,540.2 140.2,536.2 136,512.4 			"/>
		</g>
		<g>
			<polygon class="st18" points="136,540.2 140.2,544.2 136,568.1 			"/>
			<polygon class="st18" points="136,540.2 131.9,544.2 136,568.1 			"/>
		</g>
		<g>
			<polygon class="st18" points="136,540.2 132,544.4 108.2,540.2 			"/>
			<polygon class="st18" points="136,540.2 132,536.1 108.2,540.2 			"/>
		</g>
		<g>
			<polygon class="st18" points="136,540.2 140,536.1 163.9,540.2 			"/>
			<polygon class="st18" points="136,540.2 140,544.4 163.9,540.2 			"/>
		</g>
	</g>
	<g>
		<text transform="matrix(1 0 0 1 131.8815 509.9145)" class="st18 st4 st19">N</text>
	</g>
	<path class="st20" d="M869.4,198.7l24.7-2.1c0,0,0.9,1.9-0.2,2.8c-1.1,0.8-15.8,6.3-15.8,6.3l-0.4,3.1l-3.2,0.2l0.1-1.7l-6.6,2.8
		c0,0,0.1,15.5-6.1,15.8c-6.3,0.2-2-17-2-17l-5.7-4.8l0,1.9l-3.7-0.4l0.8-3.2c0,0-12.9-9.2-13.6-10.7c-0.7-1.5,0.1-2.7,0.1-2.7
		l23.7,8.6l2.8-10.7l-5.1-5.9l0.1-3.5l6.6,3.1c0,0,1.2-1.8,2.3-1.4s1.1,2,1.1,2l7-1.2l-0.3,3.7l-6.4,3.5L869.4,198.7z"/>
	<path class="st20" d="M644.9,456.1l5,24.2c0,0-1.8,1.1-2.8,0.1c-1-1-8.2-14.9-8.2-14.9l-3.1,0l-0.6-3.1l1.7-0.1l-3.6-6.2
		c0,0-15.4,2-16.4-4.2c-1-6.2,16.7-4,16.7-4l4-6.2l-1.9,0.2l0-3.7l3.3,0.4c0,0,7.5-13.9,8.9-14.8c1.4-0.9,2.7-0.2,2.7-0.2L645,448
		l11,1.5l5.3-5.8l3.5-0.3l-2.3,7c0,0,1.9,0.9,1.7,2.1c-0.2,1.1-1.8,1.3-1.8,1.3l2,6.8l-3.7,0.2l-4.3-5.9L644.9,456.1z"/>
	<path class="st21" d="M335.6,435.1l5,24.2c0,0-1.8,1.1-2.8,0.1c-1-1-8.2-14.9-8.2-14.9l-3.1,0l-0.6-3.1l1.7-0.1L324,435
		c0,0-15.4,2-16.4-4.2c-1-6.2,16.7-4,16.7-4l4-6.2l-1.9,0.2l0-3.7l3.3,0.4c0,0,7.5-13.9,8.9-14.8c1.4-0.9,2.7-0.2,2.7-0.2l-5.6,24.6
		l11,1.5l5.3-5.8l3.5-0.3l-2.3,7c0,0,1.9,0.9,1.7,2.1c-0.2,1.1-1.8,1.3-1.8,1.3l2,6.8l-3.7,0.2l-4.3-5.9L335.6,435.1z"/>
	<path class="st21" d="M125.2,195.1l-24.8,0.5c0,0-0.8-2,0.4-2.8s16.2-5.3,16.2-5.3l0.6-3.1l3.2,0l-0.2,1.7l6.8-2.4
		c0,0,0.9-15.5,7.2-15.3c6.3,0.2,0.9,17.1,0.9,17.1l5.3,5.1l0.1-1.9l3.6,0.7l-1,3.2c0,0,12.3,10,12.9,11.5c0.6,1.6-0.3,2.7-0.3,2.7
		L133,196.7l-3.5,10.5l4.7,6.2l-0.4,3.4l-6.4-3.6c0,0-1.3,1.7-2.4,1.3c-1.1-0.4-0.9-2-0.9-2l-7,0.7l0.5-3.7l6.6-3.1L125.2,195.1z"/>
	<path class="st20" d="M472.4,350.4l-24.7,1.8c0,0-0.9-2,0.3-2.8c1.1-0.8,15.9-6.1,15.9-6.1l0.5-3.1l3.2-0.2l-0.1,1.7l6.7-2.8
		c0,0,0.1-15.5,6.4-15.7c6.3-0.1,1.7,17.1,1.7,17.1l5.6,4.8l0-1.9l3.7,0.5l-0.8,3.2c0,0,12.8,9.3,13.5,10.8c0.7,1.5-0.2,2.7-0.2,2.7
		l-23.6-8.9l-2.9,10.7l5,6l-0.2,3.5l-6.6-3.2c0,0-1.2,1.7-2.3,1.4c-1.1-0.3-1-2-1-2l-7,1.1l0.3-3.7l6.4-3.4L472.4,350.4z"/>
	<circle class="st20" cx="573" cy="384" r="8"/>
	<circle class="st20" cx="792.6" cy="420.1" r="8"/>
	<circle class="st20" cx="860.2" cy="51" r="8"/>
	<path class="st12" d="M454.7,436.5c0,0-324.2,1.3-330.6-64.7c-6.4-66,12.5-227.5,12.5-227.5l8-76.4"/>
	<polygon class="st18" points="142.9,382.3 128.1,381.3 118.9,392.9 115.2,378.5 101.3,373.4 113.9,365.5 114.5,350.6 125.9,360.1 
		140.2,356.1 134.7,369.9 	"/>
	<circle class="st22" cx="144.5" cy="67.9" r="8"/>
	<g>
		<text transform="matrix(1 0 0 1 101.2925 412.0439)" class="st4 st10">CURICÓ</text>
	</g>
	<g class="st23">
		<line class="st15" x1="866.8" y1="51" x2="1005" y2="51"/>
		<g>
			<line class="st24" x1="866.8" y1="51" x2="1003.8" y2="51"/>
			<g>
				<path d="M997,55.8c-0.1-0.2-0.1-0.5,0.2-0.7l6.5-4.1l-6.5-4.1c-0.2-0.1-0.3-0.5-0.2-0.7s0.5-0.3,0.7-0.2l7.1,4.5
					c0.1,0.1,0.2,0.3,0.2,0.4s-0.1,0.3-0.2,0.4l-7.1,4.5c-0.1,0.1-0.2,0.1-0.3,0.1C997.2,56,997.1,55.9,997,55.8z"/>
			</g>
		</g>
	</g>
	<g class="st23">
		<text transform="matrix(1 0 0 1 872.8848 67.9237)" class="st4 st25">URUGUAY</text>
	</g>
	<g>
		<text transform="matrix(1 0 0 1 588.9702 386.9668)" class="st15 st4 st16">LAS LEÑAS</text>
	</g>
</g>
</svg>
