<?xml version="1.0" encoding="utf-8"?>
<!-- Generator: Adobe Illustrator 26.4.1, SVG Export Plug-In . SVG Version: 6.00 Build 0)  -->
<svg version="1.1" xmlns="http://www.w3.org/2000/svg" xmlns:xlink="http://www.w3.org/1999/xlink" x="0px" y="0px"
	 viewBox="0 0 200 100" style="enable-background:new 0 0 200 100;" xml:space="preserve">
<style type="text/css">
	.st0{fill:#F7F7F7;}
	.st1{fill:#212121;}
	.st2{font-family:'Arial-Black';}
	.st3{font-size:6px;}
	.st4{fill:#D3B700;}
	.st5{fill:#DD8536;}
	.st6{fill:#E41313;}
	.st7{fill:none;stroke:#CE9905;stroke-miterlimit:10;}
	.st8{font-family:'ArialMT';}
	.st9{fill:none;stroke:#000000;stroke-width:0.25;stroke-miterlimit:10;}
	.st10{opacity:0.52;fill:none;stroke:#000000;stroke-width:0.25;stroke-miterlimit:10;}
	.st11{opacity:0.44;fill:none;stroke:#000000;stroke-width:0.25;stroke-miterlimit:10;}
	.st12{fill:none;}
</style>
<g id="Capa_1">
	<rect class="st0" width="200" height="100"/>
	<g>
		<text transform="matrix(1 0 0 1 139.7955 11.8535)" class="st1 st2 st3">45 Pasajeros</text>
	</g>
	<g>
		<path class="st4" d="M70.3,40.5c0,0,11.9,0.6,16.7,7c4.8,6.4,8.5,10.4,8.5,10.4s41.8,8.2,43,17.6c1.2,9.4-43,17-55.7,17
			s-69.6,0-69.6,0V38.5L70.3,40.5z"/>
		<path class="st5" d="M13.2,75.4L127.2,77c0,0,0.3,6,2.1,6.1c1.8,0.1-30.2,9.3-43.2,9.3c-12.9,0-72.8,0-72.8,0S13.2,75.4,13.2,75.4
			z"/>
		<path class="st6" d="M127.6,67c0,0-2.2,1.1-1.7,7.8c0.5,6.7,2.8,8.9,2.8,8.9s10-3,10-8.2C138.7,70.4,127.6,67,127.6,67z"/>
		<polygon class="st1" points="65.4,49.7 65.9,58 78.3,58 75.5,49.7 		"/>
		<polygon class="st1" points="76.3,49.7 79.1,57.7 83.6,57.9 80.1,49.8 		"/>
		<polygon class="st1" points="81,49.7 85,58 95.4,58 88.9,50.1 		"/>
		<path class="st7" d="M45.3,84.7H32.8c-0.6,0-1.1-0.5-1.1-1.1V57.4c0-0.6,0.5-1.1,1.1-1.1h12.4c0.6,0,1.1,0.5,1.1,1.1v26.2
			C46.3,84.2,45.9,84.7,45.3,84.7z"/>
		<polygon class="st4" points="47.1,39.8 48,34.4 49.4,34.4 51.8,34.4 52.4,32.2 35,32.2 35,34.4 43.7,34.4 41.7,39.5 		"/>
		<g>
			<text transform="matrix(1 0 0 1 115.2734 75.5102)" class="st8 st3">571</text>
		</g>
	</g>
	
		<image style="overflow:visible;" width="640" height="640" xlink:href="24A3CA80.jpg"  transform="matrix(1 0 0 1 -1364.2703 217.5995)">
	</image>
</g>
<g id="Capa_2">
	<g>
		<path class="st9" d="M187.1,35.4c0,0-0.5,0.1-0.5,0.8c0,0.6,0.2,0.7,0.5,0.7s0.4-0.2,0.5-0.7S187.4,35.4,187.1,35.4z"/>
		<path class="st9" d="M185.9,38.1c0,0,1.1-0.2,1.9-0.3c0.3,0,0.6-0.1,0.6,0c0.2,0.1,0.7,4,0.7,4l-0.6,1.2l0-2.5l-0.1,1.9l-2.6,0.2
			v-2.4l-0.1,2.5l-0.6-1.4L185.9,38.1z"/>
		<polygon class="st9" points="187.2,41.4 187.7,37.8 186.6,38 		"/>
		<polygon class="st9" points="185.8,42.5 186.2,48.8 186.4,48.8 187.2,42.9 187.8,48.7 188.1,48.6 188.5,42.4 		"/>
		<path class="st9" d="M182.3,36.4c0,0-0.5,0-0.4,0.6c0.1,0.5,0.1,0.7,0.4,0.6c0.3,0,0.5-0.4,0.5-0.7S182.8,36.4,182.3,36.4z"/>
		<path class="st9" d="M180.3,43.1c0,0,0.1-4.8,2-4.7c1.9,0.1,1.7,4.6,1.7,4.6s-0.8-0.4-1.7-0.4c-0.4,0-0.7,0.1-1.1,0.2
			C180.7,42.9,180.3,43.1,180.3,43.1z"/>
		<path class="st9" d="M181.6,47.9l-0.3-5.3c0,0,0.8-0.3,1.4-0.2c0.6,0.1,1.1,0.3,1.1,0.3s-1.3,4.2-1.3,4.6s-0.2,1-0.2,1l-0.5-0.1
			l0.7-5.2L181.6,47.9z"/>
		<path class="st9" d="M177.9,39c0,0-0.5-0.1-1.1-0.1c-0.5,0-0.9,0.5-0.9,0.5l-0.5,3.4c0,0,0.6,0,1.5,0c0.9,0,1.2-0.2,1.2-0.2
			L177.9,39z"/>
		<path class="st9" d="M175.9,47.9c0-0.1-0.1-5.1-0.1-5.1h2l-0.8,5.1l0-4.5L175.9,47.9z"/>
		<path class="st9" d="M176.7,37.1c0,0-0.4,0.3-0.3,0.7c0,0.4,0,0.7,0.3,0.7c0.4,0,0.4-0.4,0.4-0.7
			C177.1,37.4,176.9,37.1,176.7,37.1z"/>
		<path class="st9" d="M177.9,39c0,0,0.5,0.3,0.6,1.3c0.1,1.1-0.3,1.8,0,2.6c0.3,0.7,0.4,1,0.4,1l-1-0.1v-1.1"/>
		<path class="st9" d="M175.9,39.4c0,0-0.5,0.5-0.6,1c-0.1,0.5-0.6,3.2-0.6,3.2h0.8l0.1-0.8l-0.2,0L175.9,39.4z"/>
		<polyline class="st9" points="171.4,46.2 171.5,47.3 171.7,46.2 171.4,46.2 		"/>
		<polyline class="st9" points="172.3,46.2 172.4,47.3 172.6,46.2 172.3,46.2 		"/>
		<polyline class="st10" points="171.5,75.6 171.6,76.7 171.8,75.6 171.5,75.6 		"/>
		<polyline class="st10" points="172.4,75.6 172.5,76.7 172.7,75.6 172.4,75.6 		"/>
		<path class="st9" d="M167.2,34.9c0,0-0.5,0.1-0.5,0.8s0.2,0.7,0.5,0.7s0.4-0.2,0.5-0.7S167.5,35,167.2,34.9z"/>
		<path class="st9" d="M166,37.6c0,0,1.1-0.2,1.9-0.3c0.3,0,0.6-0.1,0.6,0c0.2,0.1,0.7,4,0.7,4l-0.6,1.2l0-2.5l-0.1,1.9L166,42v-2.4
			l-0.1,2.5l-0.6-1.4L166,37.6z"/>
		<polygon class="st9" points="167.4,41 167.8,37.3 166.8,37.6 		"/>
		<polygon class="st9" points="166,42 166.3,48.3 166.5,48.3 167.4,42.5 167.9,48.2 168.3,48.1 168.6,41.9 		"/>
		<path class="st9" d="M162.4,35.9c0,0-0.5,0-0.4,0.6c0.1,0.5,0.1,0.7,0.4,0.6c0.3,0,0.5-0.4,0.5-0.7S163,36,162.4,35.9z"/>
		<path class="st9" d="M160.5,42.6c0,0,0.1-4.8,2-4.7c1.9,0.1,1.7,4.6,1.7,4.6s-0.8-0.4-1.7-0.4c-0.4,0-0.7,0.1-1.1,0.2
			C160.8,42.4,160.5,42.6,160.5,42.6z"/>
		<path class="st9" d="M161.7,47.5l-0.3-5.3c0,0,0.8-0.3,1.4-0.2c0.6,0.1,1.1,0.3,1.1,0.3s-1.3,4.2-1.3,4.6s-0.2,1-0.2,1l-0.5-0.1
			l0.7-5.2L161.7,47.5z"/>
		<path class="st10" d="M158,38.5c0,0-0.5-0.1-1.1-0.1c-0.5,0-0.9,0.5-0.9,0.5l-0.5,3.4c0,0,0.6,0,1.5,0c0.9,0,1.2-0.2,1.2-0.2
			L158,38.5z"/>
		<path class="st10" d="M156,47.5c0-0.1-0.1-5.1-0.1-5.1h2l-0.8,5.1l0-4.5L156,47.5z"/>
		<path class="st10" d="M156.9,36.6c0,0-0.4,0.3-0.3,0.7c0,0.4,0,0.7,0.3,0.7c0.4,0,0.4-0.4,0.4-0.7
			C157.2,36.9,157.1,36.6,156.9,36.6z"/>
		<path class="st10" d="M158,38.5c0,0,0.5,0.3,0.6,1.3c0.1,1.1-0.3,1.8,0,2.6s0.4,1,0.4,1l-1-0.1v-1.1"/>
		<path class="st10" d="M156,38.9c0,0-0.5,0.5-0.6,1c-0.1,0.5-0.6,3.2-0.6,3.2h0.8l0.1-0.8l-0.2,0L156,38.9z"/>
		<polyline class="st10" points="151.6,45.7 151.7,46.8 151.9,45.7 151.6,45.7 		"/>
		<polyline class="st10" points="152.4,45.7 152.6,46.8 152.8,45.7 152.4,45.7 		"/>
		<path class="st10" d="M187.1,49.6c0,0-0.5,0.1-0.5,0.8s0.2,0.7,0.5,0.7s0.4-0.2,0.5-0.7S187.4,49.6,187.1,49.6z"/>
		<path class="st10" d="M185.9,52.3c0,0,1.1-0.2,1.9-0.3c0.3,0,0.6-0.1,0.6,0c0.2,0.1,0.7,4,0.7,4l-0.6,1.2l0-2.5l-0.1,1.9l-2.6,0.2
			v-2.4l-0.1,2.5l-0.6-1.4L185.9,52.3z"/>
		<polygon class="st10" points="187.2,55.6 187.7,52 186.6,52.2 		"/>
		<polygon class="st10" points="185.8,56.7 186.2,62.9 186.4,62.9 187.2,57.1 187.8,62.8 188.1,62.8 188.5,56.5 		"/>
		<path class="st10" d="M182.3,50.6c0,0-0.5,0-0.4,0.6c0.1,0.5,0.1,0.7,0.4,0.6c0.3,0,0.5-0.4,0.5-0.7
			C182.7,50.7,182.8,50.6,182.3,50.6z"/>
		<path class="st10" d="M180.3,57.2c0,0,0.1-4.8,2-4.7c1.9,0.1,1.7,4.6,1.7,4.6s-0.8-0.4-1.7-0.4c-0.4,0-0.7,0.1-1.1,0.2
			C180.7,57,180.3,57.2,180.3,57.2z"/>
		<path class="st10" d="M181.6,62.1l-0.3-5.3c0,0,0.8-0.3,1.4-0.2c0.6,0.1,1.1,0.3,1.1,0.3s-1.3,4.2-1.3,4.6s-0.2,1-0.2,1l-0.5-0.1
			l0.7-5.2L181.6,62.1z"/>
		<path class="st10" d="M177.9,53.2c0,0-0.5-0.1-1.1-0.1c-0.5,0-0.9,0.5-0.9,0.5l-0.5,3.4c0,0,0.6,0,1.5,0c0.9,0,1.2-0.2,1.2-0.2
			L177.9,53.2z"/>
		<path class="st10" d="M175.9,62.1c0-0.1-0.1-5.1-0.1-5.1h2l-0.8,5.1l0-4.5L175.9,62.1z"/>
		<path class="st10" d="M176.7,51.2c0,0-0.4,0.3-0.3,0.7c0,0.4,0,0.7,0.3,0.7c0.4,0,0.4-0.4,0.4-0.7
			C177.1,51.6,176.9,51.2,176.7,51.2z"/>
		<path class="st10" d="M177.9,53.2c0,0,0.5,0.3,0.6,1.3c0.1,1.1-0.3,1.8,0,2.6c0.3,0.7,0.4,1,0.4,1l-1-0.1v-1.1"/>
		<path class="st10" d="M175.9,53.6c0,0-0.5,0.5-0.6,1c-0.1,0.5-0.6,3.2-0.6,3.2h0.8l0.1-0.8l-0.2,0L175.9,53.6z"/>
		<polyline class="st10" points="171.4,60.3 171.5,61.5 171.7,60.3 171.4,60.3 		"/>
		<polyline class="st10" points="172.3,60.3 172.4,61.5 172.6,60.3 172.3,60.3 		"/>
		<path class="st10" d="M167.2,49.1c0,0-0.5,0.1-0.5,0.8s0.2,0.7,0.5,0.7s0.4-0.2,0.5-0.7S167.5,49.2,167.2,49.1z"/>
		<path class="st10" d="M166,51.8c0,0,1.1-0.2,1.9-0.3c0.3,0,0.6-0.1,0.6,0c0.2,0.1,0.7,4,0.7,4l-0.6,1.2l0-2.5l-0.1,1.9l-2.6,0.2
			v-2.4l-0.1,2.5l-0.6-1.4L166,51.8z"/>
		<polygon class="st10" points="167.4,55.1 167.8,51.5 166.8,51.7 		"/>
		<polygon class="st10" points="166,56.2 166.3,62.5 166.5,62.5 167.4,56.6 167.9,62.4 168.3,62.3 168.6,56.1 		"/>
		<path class="st10" d="M162.4,50.1c0,0-0.5,0-0.4,0.6c0.1,0.5,0.1,0.7,0.4,0.6c0.3,0,0.5-0.4,0.5-0.7S163,50.1,162.4,50.1z"/>
		<path class="st10" d="M160.5,56.8c0,0,0.1-4.8,2-4.7c1.9,0.1,1.7,4.6,1.7,4.6s-0.8-0.4-1.7-0.4c-0.4,0-0.7,0.1-1.1,0.2
			C160.8,56.6,160.5,56.8,160.5,56.8z"/>
		<path class="st10" d="M161.7,61.7l-0.3-5.3c0,0,0.8-0.3,1.4-0.2c0.6,0.1,1.1,0.3,1.1,0.3s-1.3,4.2-1.3,4.6s-0.2,1-0.2,1l-0.5-0.1
			l0.7-5.2L161.7,61.7z"/>
		<path class="st10" d="M158,52.7c0,0-0.5-0.1-1.1-0.1c-0.5,0-0.9,0.5-0.9,0.5l-0.5,3.4c0,0,0.6,0,1.5,0c0.9,0,1.2-0.2,1.2-0.2
			L158,52.7z"/>
		<path class="st10" d="M156,61.6c0-0.1-0.1-5.1-0.1-5.1h2l-0.8,5.1l0-4.5L156,61.6z"/>
		<path class="st10" d="M156.9,50.8c0,0-0.4,0.3-0.3,0.7c0,0.4,0,0.7,0.3,0.7c0.4,0,0.4-0.4,0.4-0.7S157.1,50.8,156.9,50.8z"/>
		<path class="st10" d="M158,52.7c0,0,0.5,0.3,0.6,1.3c0.1,1.1-0.3,1.8,0,2.6s0.4,1,0.4,1l-1-0.1v-1.1"/>
		<path class="st10" d="M156,53.1c0,0-0.5,0.5-0.6,1c-0.1,0.5-0.6,3.2-0.6,3.2h0.8l0.1-0.8l-0.2,0L156,53.1z"/>
		<polyline class="st10" points="151.6,59.9 151.7,61 151.9,59.9 151.6,59.9 		"/>
		<polyline class="st10" points="152.4,59.9 152.6,61 152.8,59.9 152.4,59.9 		"/>
		<polyline class="st10" points="151.7,75 151.8,76.1 152,75 151.7,75 		"/>
		<polyline class="st10" points="152.6,75 152.7,76.1 152.9,75 152.6,75 		"/>
		<path class="st10" d="M146.9,34.5c0,0-0.5,0.1-0.5,0.8s0.2,0.7,0.5,0.7s0.4-0.2,0.5-0.7S147.1,34.5,146.9,34.5z"/>
		<path class="st10" d="M145.7,37.2c0,0,1.1-0.2,1.9-0.3c0.3,0,0.6-0.1,0.6,0c0.2,0.1,0.7,4,0.7,4l-0.6,1.2l0-2.5l-0.1,1.9l-2.6,0.2
			v-2.4l-0.1,2.5l-0.6-1.4L145.7,37.2z"/>
		<polygon class="st10" points="147,40.5 147.4,36.9 146.4,37.1 		"/>
		<polygon class="st10" points="145.6,41.6 146,47.8 146.2,47.8 147,42 147.5,47.7 147.9,47.7 148.2,41.4 		"/>
		<path class="st10" d="M142,35.5c0,0-0.5,0-0.4,0.6c0.1,0.5,0.1,0.7,0.4,0.6c0.3,0,0.5-0.4,0.5-0.7C142.5,35.6,142.6,35.5,142,35.5
			z"/>
		<path class="st10" d="M140.1,42.1c0,0,0.1-4.8,2-4.7c1.9,0.1,1.7,4.6,1.7,4.6s-0.8-0.4-1.7-0.4c-0.4,0-0.7,0.1-1.1,0.2
			C140.5,41.9,140.1,42.1,140.1,42.1z"/>
		<path class="st10" d="M141.3,47l-0.3-5.3c0,0,0.8-0.3,1.4-0.2c0.6,0.1,1.1,0.3,1.1,0.3s-1.3,4.2-1.3,4.6s-0.2,1-0.2,1l-0.5-0.1
			l0.7-5.2L141.3,47z"/>
		<path class="st10" d="M187,64.8c0,0-0.5,0.1-0.5,0.8c0,0.6,0.2,0.7,0.5,0.7c0.3,0,0.4-0.2,0.5-0.7C187.5,65.2,187.3,64.8,187,64.8
			z"/>
		<path class="st10" d="M185.8,67.5c0,0,1.1-0.2,1.9-0.3c0.3,0,0.6-0.1,0.6,0c0.2,0.1,0.7,4,0.7,4l-0.6,1.2l0-2.5l-0.1,1.9l-2.6,0.2
			v-2.4l-0.1,2.5l-0.6-1.4L185.8,67.5z"/>
		<polygon class="st10" points="187.1,70.8 187.6,67.2 186.5,67.4 		"/>
		<polygon class="st10" points="185.7,71.9 186.1,78.2 186.3,78.2 187.1,72.3 187.7,78.1 188,78 188.4,71.8 		"/>
		<path class="st10" d="M182.2,65.8c0,0-0.5,0-0.4,0.6c0.1,0.5,0.1,0.7,0.4,0.6c0.3,0,0.5-0.4,0.5-0.7
			C182.6,66,182.7,65.8,182.2,65.8z"/>
		<path class="st10" d="M180.2,72.5c0,0,0.1-4.8,2-4.7c1.9,0.1,1.7,4.6,1.7,4.6s-0.8-0.4-1.7-0.4c-0.4,0-0.7,0.1-1.1,0.2
			C180.6,72.3,180.2,72.5,180.2,72.5z"/>
		<path class="st10" d="M181.5,77.3l-0.3-5.3c0,0,0.8-0.3,1.4-0.2c0.6,0.1,1.1,0.3,1.1,0.3s-1.3,4.2-1.3,4.6s-0.2,1-0.2,1l-0.5-0.1
			l0.7-5.2L181.5,77.3z"/>
		<path class="st10" d="M177.8,68.4c0,0-0.5-0.1-1.1-0.1s-0.9,0.5-0.9,0.5l-0.5,3.4c0,0,0.6,0,1.5,0S178,72,178,72L177.8,68.4z"/>
		<path class="st10" d="M175.8,77.3c0-0.1-0.1-5.1-0.1-5.1h2l-0.8,5.1l0-4.5L175.8,77.3z"/>
		<path class="st10" d="M176.6,66.5c0,0-0.4,0.3-0.3,0.7c0,0.4,0,0.7,0.3,0.7s0.4-0.4,0.4-0.7C177,66.8,176.9,66.5,176.6,66.5z"/>
		<path class="st10" d="M177.8,68.4c0,0,0.5,0.3,0.6,1.3c0.1,1.1-0.3,1.8,0,2.6c0.3,0.7,0.4,1,0.4,1l-1-0.1v-1.1"/>
		<path class="st10" d="M175.8,68.8c0,0-0.5,0.5-0.6,1c-0.1,0.5-0.6,3.2-0.6,3.2h0.8l0.1-0.8l-0.2,0L175.8,68.8z"/>
		<path class="st10" d="M167.1,64.3c0,0-0.5,0.1-0.5,0.8c0,0.6,0.2,0.7,0.5,0.7s0.4-0.2,0.5-0.7S167.4,64.4,167.1,64.3z"/>
		<path class="st10" d="M166,67c0,0,1.1-0.2,1.9-0.3c0.3,0,0.6-0.1,0.6,0c0.2,0.1,0.7,4,0.7,4l-0.6,1.2l0-2.5l-0.1,1.9l-2.6,0.2V69
			l-0.1,2.5l-0.6-1.4L166,67z"/>
		<polygon class="st10" points="167.3,70.4 167.7,66.7 166.7,67 		"/>
		<polygon class="st10" points="165.9,71.4 166.2,77.7 166.4,77.7 167.3,71.9 167.8,77.6 168.2,77.6 168.5,71.3 		"/>
		<path class="st10" d="M167.1,79.1c0,0-0.5,0.1-0.5,0.8c0,0.6,0.2,0.7,0.5,0.7s0.4-0.2,0.5-0.7S167.4,79.1,167.1,79.1z"/>
		<path class="st10" d="M165.9,81.8c0,0,1.1-0.2,1.9-0.3c0.3,0,0.6-0.1,0.6,0c0.2,0.1,0.7,4,0.7,4l-0.6,1.2l0-2.5l-0.1,1.9l-2.6,0.2
			v-2.4l-0.1,2.5l-0.6-1.4L165.9,81.8z"/>
		<polygon class="st10" points="167.2,85.1 167.7,81.5 166.6,81.7 		"/>
		<polygon class="st10" points="165.8,86.2 166.2,92.4 166.4,92.4 167.2,86.6 167.8,92.4 168.1,92.3 168.5,86 		"/>
		<path class="st10" d="M162.3,65.3c0,0-0.5,0-0.4,0.6c0.1,0.5,0.1,0.7,0.4,0.6c0.3,0,0.5-0.4,0.5-0.7S162.9,65.4,162.3,65.3z"/>
		<path class="st10" d="M160.4,72c0,0,0.1-4.8,2-4.7c1.9,0.1,1.7,4.6,1.7,4.6s-0.8-0.4-1.7-0.4c-0.4,0-0.7,0.1-1.1,0.2
			C160.8,71.8,160.4,72,160.4,72z"/>
		<path class="st10" d="M161.6,76.9l-0.3-5.3c0,0,0.8-0.3,1.4-0.2c0.6,0.1,1.1,0.3,1.1,0.3s-1.3,4.2-1.3,4.6s-0.2,1-0.2,1l-0.5-0.1
			l0.7-5.2L161.6,76.9z"/>
		<path class="st10" d="M157.9,67.9c0,0-0.5-0.1-1.1-0.1c-0.5,0-0.9,0.5-0.9,0.5l-0.5,3.4c0,0,0.6,0,1.5,0c0.9,0,1.2-0.2,1.2-0.2
			L157.9,67.9z"/>
		<path class="st10" d="M155.9,76.9c0-0.1-0.1-5.1-0.1-5.1h2l-0.8,5.1l0-4.5L155.9,76.9z"/>
		<path class="st10" d="M156.8,66c0,0-0.4,0.3-0.3,0.7s0,0.7,0.3,0.7c0.4,0,0.4-0.4,0.4-0.7S157,66,156.8,66z"/>
		<path class="st10" d="M157.9,67.9c0,0,0.5,0.3,0.6,1.3c0.1,1.1-0.3,1.8,0,2.6c0.3,0.7,0.4,1,0.4,1l-1-0.1v-1.1"/>
		<path class="st10" d="M155.9,68.3c0,0-0.5,0.5-0.6,1c-0.1,0.5-0.6,3.2-0.6,3.2h0.8l0.1-0.8l-0.2,0L155.9,68.3z"/>
		<path class="st10" d="M146.8,63.9c0,0-0.5,0.1-0.5,0.8c0,0.6,0.2,0.7,0.5,0.7c0.3,0,0.4-0.2,0.5-0.7
			C147.3,64.3,147.1,63.9,146.8,63.9z"/>
		<path class="st10" d="M145.6,66.6c0,0,1.1-0.2,1.9-0.3c0.3,0,0.6-0.1,0.6,0c0.2,0.1,0.7,4,0.7,4l-0.6,1.2l0-2.5l-0.1,1.9l-2.6,0.2
			v-2.4l-0.1,2.5l-0.6-1.4L145.6,66.6z"/>
		<polygon class="st10" points="146.9,69.9 147.3,66.3 146.3,66.5 		"/>
		<polygon class="st10" points="145.5,71 145.9,77.2 146.1,77.2 146.9,71.4 147.4,77.1 147.8,77.1 148.1,70.8 		"/>
		<path class="st10" d="M141.9,64.9c0,0-0.5,0-0.4,0.6c0.1,0.5,0.1,0.7,0.4,0.6c0.3,0,0.5-0.4,0.5-0.7S142.5,64.9,141.9,64.9z"/>
		<path class="st10" d="M140,71.5c0,0,0.1-4.8,2-4.7c1.9,0.1,1.7,4.6,1.7,4.6s-0.8-0.4-1.7-0.4c-0.4,0-0.7,0.1-1.1,0.2
			C140.4,71.3,140,71.5,140,71.5z"/>
		<path class="st10" d="M141.2,76.4l-0.3-5.3c0,0,0.8-0.3,1.4-0.2c0.6,0.1,1.1,0.3,1.1,0.3s-1.3,4.2-1.3,4.6s-0.2,1-0.2,1l-0.5-0.1
			l0.7-5.2L141.2,76.4z"/>
		<path class="st10" d="M147.6,52.7c0,0-0.5-0.1-1.1-0.1c-0.5,0-0.9,0.5-0.9,0.5l-0.5,3.4c0,0,0.6,0,1.5,0c0.9,0,1.2-0.2,1.2-0.2
			L147.6,52.7z"/>
		<path class="st10" d="M145.6,61.6c0-0.1-0.1-5.1-0.1-5.1h2l-0.8,5.1l0-4.5L145.6,61.6z"/>
		<path class="st10" d="M146.4,50.7c0,0-0.4,0.3-0.3,0.7c0,0.4,0,0.7,0.3,0.7c0.4,0,0.4-0.4,0.4-0.7
			C146.8,51.1,146.6,50.7,146.4,50.7z"/>
		<path class="st10" d="M147.6,52.7c0,0,0.5,0.3,0.6,1.3c0.1,1.1-0.3,1.8,0,2.6c0.3,0.7,0.4,1,0.4,1l-1-0.1v-1.1"/>
		<path class="st10" d="M145.6,53.1c0,0-0.5,0.5-0.6,1c-0.1,0.5-0.6,3.2-0.6,3.2h0.8l0.1-0.8l-0.2,0L145.6,53.1z"/>
		<polyline class="st11" points="141.1,59.9 141.2,61 141.4,59.9 141.1,59.9 		"/>
		<polyline class="st10" points="142,59.9 142.1,61 142.3,59.9 142,59.9 		"/>
		<path class="st9" d="M187.5,20.2c0,0-0.5,0.1-0.5,0.8c0,0.6,0.2,0.7,0.5,0.7c0.3,0,0.4-0.2,0.5-0.7
			C188,20.6,187.8,20.2,187.5,20.2z"/>
		<path class="st9" d="M186.3,22.9c0,0,1.1-0.2,1.9-0.3c0.3,0,0.6-0.1,0.6,0c0.2,0.1,0.7,4,0.7,4l-0.6,1.2l0-2.5l-0.1,1.9l-2.6,0.2
			v-2.4l-0.1,2.5l-0.6-1.4L186.3,22.9z"/>
		<polygon class="st9" points="187.7,26.2 188.1,22.6 187.1,22.8 		"/>
		<polygon class="st9" points="186.3,27.3 186.6,33.5 186.8,33.5 187.7,27.7 188.2,33.4 188.6,33.4 188.9,27.1 		"/>
		<path class="st9" d="M182.7,21.2c0,0-0.5,0-0.4,0.6c0.1,0.5,0.1,0.7,0.4,0.6c0.3,0,0.5-0.4,0.5-0.7S183.3,21.2,182.7,21.2z"/>
		<path class="st9" d="M180.8,27.8c0,0,0.1-4.8,2-4.7c1.9,0.1,1.7,4.6,1.7,4.6s-0.8-0.4-1.7-0.4c-0.4,0-0.7,0.1-1.1,0.2
			C181.2,27.6,180.8,27.8,180.8,27.8z"/>
		<path class="st9" d="M182,32.7l-0.3-5.3c0,0,0.8-0.3,1.4-0.2c0.6,0.1,1.1,0.3,1.1,0.3s-1.3,4.2-1.3,4.6c0,0.4-0.2,1-0.2,1
			l-0.5-0.1l0.7-5.2L182,32.7z"/>
		<path class="st9" d="M178.3,23.8c0,0-0.5-0.1-1.1-0.1s-0.9,0.5-0.9,0.5l-0.5,3.4c0,0,0.6,0,1.5,0c0.9,0,1.2-0.2,1.2-0.2
			L178.3,23.8z"/>
		<path class="st9" d="M176.3,32.7c0-0.1-0.1-5.1-0.1-5.1h2l-0.8,5.1l0-4.5L176.3,32.7z"/>
		<path class="st9" d="M177.2,21.8c0,0-0.4,0.3-0.3,0.7s0,0.7,0.3,0.7s0.4-0.4,0.4-0.7S177.4,21.8,177.2,21.8z"/>
		<path class="st9" d="M178.3,23.8c0,0,0.5,0.3,0.6,1.3c0.1,1.1-0.3,1.8,0,2.6c0.3,0.7,0.4,1,0.4,1l-1-0.1v-1.1"/>
		<path class="st9" d="M176.3,24.2c0,0-0.5,0.5-0.6,1c-0.1,0.5-0.6,3.2-0.6,3.2h0.8l0.1-0.8l-0.2,0L176.3,24.2z"/>
		<polyline class="st9" points="171.9,30.9 172,32.1 172.2,30.9 171.9,30.9 		"/>
		<polyline class="st9" points="172.7,30.9 172.9,32.1 173.1,30.9 172.7,30.9 		"/>
		<path class="st10" d="M186.6,79.7c0,0-0.5,0.1-0.5,0.8c0,0.6,0.2,0.7,0.5,0.7c0.3,0,0.4-0.2,0.5-0.7
			C187.1,80.1,186.8,79.8,186.6,79.7z"/>
		<path class="st10" d="M185.4,82.5c0,0,1.1-0.2,1.9-0.3c0.3,0,0.6-0.1,0.6,0c0.2,0.1,0.7,4,0.7,4l-0.6,1.2l0-2.5l-0.1,1.9l-2.6,0.2
			v-2.4l-0.1,2.5l-0.6-1.4L185.4,82.5z"/>
		<polygon class="st10" points="186.7,85.8 187.1,82.2 186.1,82.4 		"/>
		<polygon class="st10" points="185.3,86.9 185.7,93.1 185.8,93.1 186.7,87.3 187.2,93 187.6,93 187.9,86.7 		"/>
		<path class="st10" d="M181.7,80.7c0,0-0.5,0-0.4,0.6c0.1,0.5,0.1,0.7,0.4,0.6c0.3,0,0.5-0.4,0.5-0.7S182.3,80.8,181.7,80.7z"/>
		<path class="st10" d="M179.8,87.4c0,0,0.1-4.8,2-4.7c1.9,0.1,1.7,4.6,1.7,4.6s-0.8-0.4-1.7-0.4c-0.4,0-0.7,0.1-1.1,0.2
			C180.2,87.2,179.8,87.4,179.8,87.4z"/>
		<path class="st10" d="M181,92.3l-0.3-5.3c0,0,0.8-0.3,1.4-0.2c0.6,0.1,1.1,0.3,1.1,0.3s-1.3,4.2-1.3,4.6s-0.2,1-0.2,1l-0.5-0.1
			l0.7-5.2L181,92.3z"/>
		<path class="st10" d="M177.4,83.4c0,0-0.5-0.1-1.1-0.1c-0.5,0-0.9,0.5-0.9,0.5l-0.5,3.4c0,0,0.6,0,1.5,0c0.9,0,1.2-0.2,1.2-0.2
			L177.4,83.4z"/>
		<path class="st10" d="M175.4,92.3c0-0.1-0.1-5.1-0.1-5.1h2l-0.8,5.1l0-4.5L175.4,92.3z"/>
		<path class="st10" d="M176.2,81.4c0,0-0.4,0.3-0.3,0.7c0,0.4,0,0.7,0.3,0.7c0.4,0,0.4-0.4,0.4-0.7S176.4,81.4,176.2,81.4z"/>
		<path class="st10" d="M177.4,83.4c0,0,0.5,0.3,0.6,1.3c0.1,1.1-0.3,1.8,0,2.6c0.3,0.7,0.4,1,0.4,1l-1-0.1V87"/>
		<path class="st10" d="M175.4,83.7c0,0-0.5,0.5-0.6,1s-0.6,3.2-0.6,3.2h0.8l0.1-0.8l-0.2,0L175.4,83.7z"/>
		<polyline class="st10" points="170.9,90.5 171,91.6 171.2,90.5 170.9,90.5 		"/>
		<polyline class="st10" points="171.8,90.5 171.9,91.6 172.1,90.5 171.8,90.5 		"/>
		<path class="st9" d="M167.7,19.7c0,0-0.5,0.1-0.5,0.8c0,0.6,0.2,0.7,0.5,0.7s0.4-0.2,0.5-0.7S167.9,19.7,167.7,19.7z"/>
		<path class="st9" d="M166.5,22.4c0,0,1.1-0.2,1.9-0.3c0.3,0,0.6-0.1,0.6,0c0.2,0.1,0.7,4,0.7,4l-0.6,1.2l0-2.5l-0.1,1.9l-2.6,0.2
			v-2.4l-0.1,2.5l-0.6-1.4L166.5,22.4z"/>
		<polygon class="st9" points="167.8,25.7 168.2,22.1 167.2,22.3 		"/>
		<polygon class="st9" points="166.4,26.8 166.8,33.1 166.9,33.1 167.8,27.2 168.3,33 168.7,32.9 169,26.7 		"/>
		<path class="st9" d="M162.8,20.7c0,0-0.5,0-0.4,0.6c0.1,0.5,0.1,0.7,0.4,0.6c0.3,0,0.5-0.4,0.5-0.7S163.4,20.7,162.8,20.7z"/>
		<path class="st9" d="M160.9,27.4c0,0,0.1-4.8,2-4.7c1.9,0.1,1.7,4.6,1.7,4.6s-0.8-0.4-1.7-0.4c-0.4,0-0.7,0.1-1.1,0.2
			C161.3,27.2,160.9,27.4,160.9,27.4z"/>
		<path class="st9" d="M162.1,32.3l-0.3-5.3c0,0,0.8-0.3,1.4-0.2c0.6,0.1,1.1,0.3,1.1,0.3s-1.3,4.2-1.3,4.6c0,0.4-0.2,1-0.2,1
			l-0.5-0.1l0.7-5.2L162.1,32.3z"/>
		<path class="st9" d="M158.5,23.3c0,0-0.5-0.1-1.1-0.1c-0.5,0-0.9,0.5-0.9,0.5l-0.5,3.4c0,0,0.6,0,1.5,0c0.9,0,1.2-0.2,1.2-0.2
			L158.5,23.3z"/>
		<path class="st9" d="M156.5,32.2c0-0.1-0.1-5.1-0.1-5.1h2l-0.8,5.1l0-4.5L156.5,32.2z"/>
		<path class="st9" d="M157.3,21.4c0,0-0.4,0.3-0.3,0.7s0,0.7,0.3,0.7s0.4-0.4,0.4-0.7S157.5,21.4,157.3,21.4z"/>
		<path class="st9" d="M158.5,23.3c0,0,0.5,0.3,0.6,1.3c0.1,1.1-0.3,1.8,0,2.6c0.3,0.7,0.4,1,0.4,1l-1-0.1V27"/>
		<path class="st9" d="M156.5,23.7c0,0-0.5,0.5-0.6,1c-0.1,0.5-0.6,3.2-0.6,3.2h0.8l0.1-0.8l-0.2,0L156.5,23.7z"/>
		<polyline class="st9" points="152,30.5 152.1,31.6 152.3,30.5 152,30.5 		"/>
		<polyline class="st9" points="152.9,30.5 153,31.6 153.2,30.5 152.9,30.5 		"/>
		<path class="st9" d="M148,23.3c0,0-0.5-0.1-1.1-0.1c-0.5,0-0.9,0.5-0.9,0.5l-0.5,3.4c0,0,0.6,0,1.5,0s1.2-0.2,1.2-0.2L148,23.3z"
			/>
		<path class="st9" d="M146,32.2c0-0.1-0.1-5.1-0.1-5.1h2l-0.8,5.1l0-4.5L146,32.2z"/>
		<path class="st9" d="M146.9,21.3c0,0-0.4,0.3-0.3,0.7c0,0.4,0,0.7,0.3,0.7s0.4-0.4,0.4-0.7C147.2,21.7,147.1,21.3,146.9,21.3z"/>
		<path class="st9" d="M148,23.3c0,0,0.5,0.3,0.6,1.3c0.1,1.1-0.3,1.8,0,2.6c0.3,0.7,0.4,1,0.4,1l-1-0.1V27"/>
		<path class="st9" d="M146,23.7c0,0-0.5,0.5-0.6,1c-0.1,0.5-0.6,3.2-0.6,3.2h0.8l0.1-0.8l-0.2,0L146,23.7z"/>
		<polyline class="st9" points="141.6,30.5 141.7,31.6 141.9,30.5 141.6,30.5 		"/>
		<polyline class="st9" points="142.4,30.5 142.6,31.6 142.8,30.5 142.4,30.5 		"/>
		<line class="st9" x1="176.8" y1="38.9" x2="176.7" y2="43"/>
		<path class="st9" d="M171.1,39.5c0,0,1.1-0.4,1.5-0.1c0.3,0.2,1.3,6.8,1.3,6.8h-3.3L171.1,39.5z"/>
		<path class="st9" d="M172,37.6c0,0-0.5,0.4-0.4,0.7s0.2,0.6,0.4,0.5s0.3-0.2,0.3-0.6S172.3,37.5,172,37.6z"/>
		<line class="st10" x1="156.9" y1="38.4" x2="156.9" y2="42.5"/>
		<path class="st10" d="M151.2,39c0,0,1.1-0.4,1.5-0.1c0.3,0.2,1.3,6.8,1.3,6.8h-3.3L151.2,39z"/>
		<path class="st10" d="M152.1,37.1c0,0-0.5,0.4-0.4,0.7c0,0.3,0.2,0.6,0.4,0.5s0.3-0.2,0.3-0.6S152.4,37.1,152.1,37.1z"/>
		<line class="st10" x1="176.7" y1="68.3" x2="176.6" y2="72.4"/>
		<path class="st10" d="M171,68.9c0,0,1.1-0.4,1.5-0.1c0.3,0.2,1.3,6.8,1.3,6.8h-3.3L171,68.9z"/>
		<path class="st10" d="M171.9,67c0,0-0.5,0.4-0.4,0.7c0,0.3,0.2,0.6,0.4,0.5s0.3-0.2,0.3-0.6C172.2,67.2,172.2,66.9,171.9,67z"/>
		<line class="st10" x1="156.8" y1="67.8" x2="156.8" y2="71.9"/>
		<path class="st10" d="M151.1,68.4c0,0,1.1-0.4,1.5-0.1c0.3,0.2,1.3,6.8,1.3,6.8h-3.3L151.1,68.4z"/>
		<path class="st10" d="M152,66.5c0,0-0.5,0.4-0.4,0.7c0,0.3,0.2,0.6,0.4,0.5c0.2,0,0.3-0.2,0.3-0.6C152.3,66.7,152.3,66.5,152,66.5
			z"/>
		<line class="st10" x1="176.8" y1="53.1" x2="176.7" y2="57.2"/>
		<path class="st10" d="M171.1,53.7c0,0,1.1-0.4,1.5-0.1c0.3,0.2,1.3,6.8,1.3,6.8h-3.3L171.1,53.7z"/>
		<path class="st10" d="M172,51.7c0,0-0.5,0.4-0.4,0.7s0.2,0.6,0.4,0.5c0.2,0,0.3-0.2,0.3-0.6S172.3,51.7,172,51.7z"/>
		<line class="st10" x1="156.9" y1="52.6" x2="156.9" y2="56.7"/>
		<path class="st10" d="M151.2,53.2c0,0,1.1-0.4,1.5-0.1c0.3,0.2,1.3,6.8,1.3,6.8h-3.3L151.2,53.2z"/>
		<path class="st10" d="M152.1,51.3c0,0-0.5,0.4-0.4,0.7c0,0.3,0.2,0.6,0.4,0.5s0.3-0.2,0.3-0.6C152.4,51.5,152.4,51.2,152.1,51.3z"
			/>
		<line class="st10" x1="146.5" y1="52.6" x2="146.4" y2="56.7"/>
		<path class="st10" d="M140.8,53.2c0,0,1.1-0.4,1.5-0.1c0.3,0.2,1.3,6.8,1.3,6.8h-3.3L140.8,53.2z"/>
		<path class="st10" d="M141.7,51.3c0,0-0.5,0.4-0.4,0.7s0.2,0.6,0.4,0.5s0.3-0.2,0.3-0.6S142,51.2,141.7,51.3z"/>
		<line class="st9" x1="177.2" y1="23.7" x2="177.2" y2="27.8"/>
		<path class="st9" d="M171.5,24.3c0,0,1.1-0.4,1.5-0.1c0.3,0.2,1.3,6.8,1.3,6.8H171L171.5,24.3z"/>
		<path class="st9" d="M172.4,22.3c0,0-0.5,0.4-0.4,0.7c0,0.3,0.2,0.6,0.4,0.5s0.3-0.2,0.3-0.6S172.7,22.3,172.4,22.3z"/>
		<line class="st10" x1="176.3" y1="83.3" x2="176.2" y2="87.3"/>
		<path class="st10" d="M170.6,83.9c0,0,1.1-0.4,1.5-0.1s1.3,6.8,1.3,6.8H170L170.6,83.9z"/>
		<path class="st10" d="M171.5,81.9c0,0-0.5,0.4-0.4,0.7c0,0.3,0.2,0.6,0.4,0.5c0.2,0,0.3-0.2,0.3-0.6
			C171.8,82.1,171.8,81.9,171.5,81.9z"/>
		<line class="st9" x1="157.4" y1="23.2" x2="157.3" y2="27.3"/>
		<path class="st9" d="M151.7,23.8c0,0,1.1-0.4,1.5-0.1c0.3,0.2,1.3,6.8,1.3,6.8h-3.3L151.7,23.8z"/>
		<path class="st9" d="M152.6,21.9c0,0-0.5,0.4-0.4,0.7c0,0.3,0.2,0.6,0.4,0.5s0.3-0.2,0.3-0.6S152.9,21.8,152.6,21.9z"/>
		<line class="st9" x1="146.9" y1="23.2" x2="146.9" y2="27.3"/>
		<path class="st9" d="M141.2,23.8c0,0,1.1-0.4,1.5-0.1c0.3,0.2,1.3,6.8,1.3,6.8h-3.3L141.2,23.8z"/>
		<path class="st9" d="M142.1,21.9c0,0-0.5,0.4-0.4,0.7c0,0.3,0.2,0.6,0.4,0.5c0.2,0,0.3-0.2,0.3-0.6
			C142.4,22.1,142.4,21.8,142.1,21.9z"/>
	</g>
	<g>
		<rect x="13.2" y="6.7" class="st12" width="122" height="13.1"/>
		<text transform="matrix(1 0 0 1 13.234 11.8918)"><tspan x="0" y="0" class="st1 st2 st3">Accidente del avión 571 </tspan><tspan x="0" y="7.2" class="st1 st2 st3">de la Fuerza Aérea Uruguaya</tspan></text>
	</g>
</g>
</svg>
