<?xml version="1.0" encoding="utf-8"?>
<!-- Generator: Adobe Illustrator 26.4.1, SVG Export Plug-In . SVG Version: 6.00 Build 0)  -->
<svg version="1.1" xmlns="http://www.w3.org/2000/svg" xmlns:xlink="http://www.w3.org/1999/xlink" x="0px" y="0px"
	 viewBox="0 0 200 100" style="enable-background:new 0 0 200 100;" xml:space="preserve">
<style type="text/css">
	.st0{fill:#F7F7F7;}
	.st1{fill:#212121;}
	.st2{font-family:'Arial-Black';}
	.st3{font-size:6px;}
	.st4{fill:none;stroke:#5C5C5B;stroke-width:0.5;stroke-miterlimit:10;}
	.st5{fill:#807F7F;stroke:#5C5C5B;stroke-miterlimit:10;}
	.st6{fill:#383838;}
	.st7{fill:none;stroke:#5C5C5B;stroke-miterlimit:10;}
	.st8{font-family:'HelveticaLTStd-Bold';}
	.st9{fill:none;stroke:#000000;stroke-width:0.25;stroke-miterlimit:10;}
	.st10{opacity:0.52;fill:none;stroke:#000000;stroke-width:0.25;stroke-miterlimit:10;}
	.st11{opacity:0.44;fill:none;stroke:#000000;stroke-width:0.25;stroke-miterlimit:10;}
	.st12{fill:none;}
	.st13{fill:#020202;}
	.st14{fill:#BDBCBC;}
	.st15{fill:#D3B700;}
	.st16{fill:#E41313;}
</style>
<g id="Capa_1">
	<rect class="st0" width="200" height="100"/>
	<text transform="matrix(1 0 0 1 138.7955 11.8535)" class="st1 st2 st3">45 Pasajeros</text>
	<g>
		<path class="st4" d="M67.3,43.5c0,0,11.9,0.6,16.7,7c4.8,6.4,8.5,10.4,8.5,10.4s41.8,8.2,43,17.6c1.2,9.4-43,17-55.7,17
			s-69.6,0-69.6,0V41.5L67.3,43.5z"/>
		<path class="st5" d="M10.2,78.3l113.9,1.6c0,0,0.3,6,2.1,6.1c1.8,0.1-30.2,9.3-43.2,9.3c-12.9,0-72.8,0-72.8,0
			S10.2,78.3,10.2,78.3z"/>
		<path class="st6" d="M124.6,70c0,0-2.2,1.1-1.7,7.8c0.5,6.7,2.8,8.9,2.8,8.9s10-3,10-8.2C135.7,73.3,124.6,70,124.6,70z"/>
		<polygon class="st1" points="62.4,52.6 62.9,60.9 75.3,60.9 72.5,52.6 		"/>
		<polygon class="st1" points="73.3,52.6 76.1,60.7 80.6,60.8 77.1,52.7 		"/>
		<polygon class="st1" points="78,52.6 82,60.9 92.4,60.9 85.9,53.1 		"/>
		<path class="st7" d="M42.3,87.6H29.8c-0.6,0-1.1-0.5-1.1-1.1V60.4c0-0.6,0.5-1.1,1.1-1.1h12.4c0.6,0,1.1,0.5,1.1,1.1v26.2
			C43.3,87.1,42.9,87.6,42.3,87.6z"/>
		<polygon class="st4" points="44.1,42.7 45,37.3 46.4,37.3 48.8,37.3 49.4,35.1 32,35.1 32,37.3 40.7,37.3 38.7,42.5 		"/>
		<g>
			<text transform="matrix(1 0 0 1 97.4649 78.0682)" class="st8 st3">FAU 571</text>
		</g>
	</g>
	
		<image style="overflow:visible;" width="640" height="640" xlink:href="24A3CA83.jpg"  transform="matrix(1 0 0 1 -1364.2703 217.5995)">
	</image>
</g>
<g id="Capa_2">
	<g>
		<path class="st9" d="M280.7-72.5c0,0-0.5,0.1-0.5,0.8c0,0.6,0.2,0.7,0.5,0.7c0.3,0,0.4-0.2,0.5-0.7S281-72.5,280.7-72.5z"/>
		<path class="st9" d="M279.5-69.8c0,0,1.1-0.2,1.9-0.3c0.3,0,0.6-0.1,0.6,0c0.2,0.1,0.7,4,0.7,4l-0.6,1.2l0-2.5l-0.1,1.9l-2.6,0.2
			v-2.4l-0.1,2.5l-0.6-1.4L279.5-69.8z"/>
		<polygon class="st9" points="280.8,-66.5 281.3,-70.1 280.2,-69.9 		"/>
		<polygon class="st9" points="279.4,-65.4 279.8,-59.2 280,-59.2 280.8,-65 281.4,-59.3 281.7,-59.3 282.1,-65.6 		"/>
		<path class="st9" d="M275.9-71.5c0,0-0.5,0-0.4,0.6c0.1,0.5,0.1,0.7,0.4,0.6c0.3,0,0.5-0.4,0.5-0.7S276.4-71.5,275.9-71.5z"/>
		<path class="st9" d="M273.9-64.9c0,0,0.1-4.8,2-4.7s1.7,4.6,1.7,4.6s-0.8-0.4-1.7-0.4c-0.4,0-0.7,0.1-1.1,0.2
			C274.3-65.1,273.9-64.9,273.9-64.9z"/>
		<path class="st9" d="M275.2-60l-0.3-5.3c0,0,0.8-0.3,1.4-0.2c0.6,0.1,1.1,0.3,1.1,0.3s-1.3,4.2-1.3,4.6s-0.2,1-0.2,1l-0.5-0.1
			l0.7-5.2L275.2-60z"/>
		<path class="st9" d="M271.5-68.9c0,0-0.5-0.1-1.1-0.1c-0.5,0-0.9,0.5-0.9,0.5l-0.5,3.4c0,0,0.6,0,1.5,0s1.2-0.2,1.2-0.2
			L271.5-68.9z"/>
		<path class="st9" d="M269.5-60c0-0.1-0.1-5.1-0.1-5.1h2l-0.8,5.1l0-4.5L269.5-60z"/>
		<path class="st9" d="M270.3-70.9c0,0-0.4,0.3-0.3,0.7c0,0.4,0,0.7,0.3,0.7c0.4,0,0.4-0.4,0.4-0.7
			C270.7-70.5,270.6-70.9,270.3-70.9z"/>
		<path class="st9" d="M271.5-68.9c0,0,0.5,0.3,0.6,1.3c0.1,1.1-0.3,1.8,0,2.6c0.3,0.7,0.4,1,0.4,1l-1-0.1v-1.1"/>
		<path class="st9" d="M269.5-68.5c0,0-0.5,0.5-0.6,1c-0.1,0.5-0.6,3.2-0.6,3.2h0.8l0.1-0.8l-0.2,0L269.5-68.5z"/>
		<polyline class="st9" points="265,-61.7 265.1,-60.6 265.3,-61.7 265,-61.7 		"/>
		<polyline class="st9" points="265.9,-61.7 266,-60.6 266.2,-61.7 265.9,-61.7 		"/>
		<polyline class="st10" points="265.1,-32.3 265.2,-31.2 265.4,-32.3 265.1,-32.3 		"/>
		<polyline class="st10" points="266,-32.3 266.1,-31.2 266.3,-32.3 266,-32.3 		"/>
		<path class="st9" d="M260.8-73c0,0-0.5,0.1-0.5,0.8c0,0.6,0.2,0.7,0.5,0.7c0.3,0,0.4-0.2,0.5-0.7S261.1-72.9,260.8-73z"/>
		<path class="st9" d="M259.6-70.3c0,0,1.1-0.2,1.9-0.3c0.3,0,0.6-0.1,0.6,0c0.2,0.1,0.7,4,0.7,4l-0.6,1.2l0-2.5l-0.1,1.9l-2.6,0.2
			v-2.4l-0.1,2.5l-0.6-1.4L259.6-70.3z"/>
		<polygon class="st9" points="261,-67 261.4,-70.6 260.4,-70.4 		"/>
		<polygon class="st9" points="259.6,-65.9 259.9,-59.6 260.1,-59.6 261,-65.5 261.5,-59.7 261.9,-59.8 262.2,-66 		"/>
		<path class="st9" d="M256-72c0,0-0.5,0-0.4,0.6c0.1,0.5,0.1,0.7,0.4,0.6s0.5-0.4,0.5-0.7C256.5-71.8,256.6-71.9,256-72z"/>
		<path class="st9" d="M254.1-65.3c0,0,0.1-4.8,2-4.7c1.9,0.1,1.7,4.6,1.7,4.6s-0.8-0.4-1.7-0.4c-0.4,0-0.7,0.1-1.1,0.2
			C254.5-65.5,254.1-65.3,254.1-65.3z"/>
		<path class="st9" d="M255.3-60.4l-0.3-5.3c0,0,0.8-0.3,1.4-0.2c0.6,0.1,1.1,0.3,1.1,0.3s-1.3,4.2-1.3,4.6s-0.2,1-0.2,1l-0.5-0.1
			l0.7-5.2L255.3-60.4z"/>
		<path class="st10" d="M251.6-69.4c0,0-0.5-0.1-1.1-0.1c-0.5,0-0.9,0.5-0.9,0.5l-0.5,3.4c0,0,0.6,0,1.5,0s1.2-0.2,1.2-0.2
			L251.6-69.4z"/>
		<path class="st10" d="M249.6-60.5c0-0.1-0.1-5.1-0.1-5.1h2l-0.8,5.1l0-4.5L249.6-60.5z"/>
		<path class="st10" d="M250.5-71.3c0,0-0.4,0.3-0.3,0.7c0,0.4,0,0.7,0.3,0.7s0.4-0.4,0.4-0.7C250.8-71,250.7-71.3,250.5-71.3z"/>
		<path class="st10" d="M251.6-69.4c0,0,0.5,0.3,0.6,1.3c0.1,1.1-0.3,1.8,0,2.6c0.3,0.7,0.4,1,0.4,1l-1-0.1v-1.1"/>
		<path class="st10" d="M249.6-69c0,0-0.5,0.5-0.6,1c-0.1,0.5-0.6,3.2-0.6,3.2h0.8l0.1-0.8l-0.2,0L249.6-69z"/>
		<polyline class="st10" points="245.2,-62.2 245.3,-61.1 245.5,-62.2 245.2,-62.2 		"/>
		<polyline class="st10" points="246,-62.2 246.2,-61.1 246.4,-62.2 246,-62.2 		"/>
		<path class="st10" d="M280.7-58.3c0,0-0.5,0.1-0.5,0.8s0.2,0.7,0.5,0.7c0.3,0,0.4-0.2,0.5-0.7S281-58.3,280.7-58.3z"/>
		<path class="st10" d="M279.5-55.6c0,0,1.1-0.2,1.9-0.3c0.3,0,0.6-0.1,0.6,0c0.2,0.1,0.7,4,0.7,4l-0.6,1.2l0-2.5l-0.1,1.9l-2.6,0.2
			v-2.4l-0.1,2.5l-0.6-1.4L279.5-55.6z"/>
		<polygon class="st10" points="280.8,-52.3 281.3,-55.9 280.2,-55.7 		"/>
		<polygon class="st10" points="279.4,-51.2 279.8,-45 280,-45 280.8,-50.8 281.4,-45.1 281.7,-45.1 282.1,-51.4 		"/>
		<path class="st10" d="M275.9-57.3c0,0-0.5,0-0.4,0.6c0.1,0.5,0.1,0.7,0.4,0.6c0.3,0,0.5-0.4,0.5-0.7S276.4-57.3,275.9-57.3z"/>
		<path class="st10" d="M273.9-50.7c0,0,0.1-4.8,2-4.7c1.9,0.1,1.7,4.6,1.7,4.6s-0.8-0.4-1.7-0.4c-0.4,0-0.7,0.1-1.1,0.2
			C274.3-50.9,273.9-50.7,273.9-50.7z"/>
		<path class="st10" d="M275.2-45.8l-0.3-5.3c0,0,0.8-0.3,1.4-0.2c0.6,0.1,1.1,0.3,1.1,0.3s-1.3,4.2-1.3,4.6s-0.2,1-0.2,1l-0.5-0.1
			l0.7-5.2L275.2-45.8z"/>
		<path class="st10" d="M271.5-54.7c0,0-0.5-0.1-1.1-0.1c-0.5,0-0.9,0.5-0.9,0.5l-0.5,3.4c0,0,0.6,0,1.5,0c0.9,0,1.2-0.2,1.2-0.2
			L271.5-54.7z"/>
		<path class="st10" d="M269.5-45.8c0-0.1-0.1-5.1-0.1-5.1h2l-0.8,5.1l0-4.5L269.5-45.8z"/>
		<path class="st10" d="M270.3-56.7c0,0-0.4,0.3-0.3,0.7c0,0.4,0,0.7,0.3,0.7c0.4,0,0.4-0.4,0.4-0.7
			C270.7-56.3,270.6-56.7,270.3-56.7z"/>
		<path class="st10" d="M271.5-54.7c0,0,0.5,0.3,0.6,1.3c0.1,1.1-0.3,1.8,0,2.6s0.4,1,0.4,1l-1-0.1v-1.1"/>
		<path class="st10" d="M269.5-54.4c0,0-0.5,0.5-0.6,1c-0.1,0.5-0.6,3.2-0.6,3.2h0.8l0.1-0.8l-0.2,0L269.5-54.4z"/>
		<polyline class="st10" points="265,-47.6 265.1,-46.4 265.3,-47.6 265,-47.6 		"/>
		<polyline class="st10" points="265.9,-47.6 266,-46.4 266.2,-47.6 265.9,-47.6 		"/>
		<path class="st10" d="M260.8-58.8c0,0-0.5,0.1-0.5,0.8s0.2,0.7,0.5,0.7c0.3,0,0.4-0.2,0.5-0.7S261.1-58.8,260.8-58.8z"/>
		<path class="st10" d="M259.6-56.1c0,0,1.1-0.2,1.9-0.3c0.3,0,0.6-0.1,0.6,0c0.2,0.1,0.7,4,0.7,4l-0.6,1.2l0-2.5l-0.1,1.9l-2.6,0.2
			v-2.4l-0.1,2.5l-0.6-1.4L259.6-56.1z"/>
		<polygon class="st10" points="261,-52.8 261.4,-56.4 260.4,-56.2 		"/>
		<polygon class="st10" points="259.6,-51.7 259.9,-45.5 260.1,-45.5 261,-51.3 261.5,-45.5 261.9,-45.6 262.2,-51.9 		"/>
		<path class="st10" d="M256-57.8c0,0-0.5,0-0.4,0.6c0.1,0.5,0.1,0.7,0.4,0.6c0.3,0,0.5-0.4,0.5-0.7S256.6-57.8,256-57.8z"/>
		<path class="st10" d="M254.1-51.2c0,0,0.1-4.8,2-4.7c1.9,0.1,1.7,4.6,1.7,4.6s-0.8-0.4-1.7-0.4c-0.4,0-0.7,0.1-1.1,0.2
			C254.5-51.4,254.1-51.2,254.1-51.2z"/>
		<path class="st10" d="M255.3-46.3l-0.3-5.3c0,0,0.8-0.3,1.4-0.2c0.6,0.1,1.1,0.3,1.1,0.3s-1.3,4.2-1.3,4.6c0,0.4-0.2,1-0.2,1
			l-0.5-0.1l0.7-5.2L255.3-46.3z"/>
		<path class="st10" d="M251.6-55.2c0,0-0.5-0.1-1.1-0.1c-0.5,0-0.9,0.5-0.9,0.5l-0.5,3.4c0,0,0.6,0,1.5,0c0.9,0,1.2-0.2,1.2-0.2
			L251.6-55.2z"/>
		<path class="st10" d="M249.6-46.3c0-0.1-0.1-5.1-0.1-5.1h2l-0.8,5.1l0-4.5L249.6-46.3z"/>
		<path class="st10" d="M250.5-57.2c0,0-0.4,0.3-0.3,0.7c0,0.4,0,0.7,0.3,0.7s0.4-0.4,0.4-0.7C250.8-56.8,250.7-57.2,250.5-57.2z"/>
		<path class="st10" d="M251.6-55.2c0,0,0.5,0.3,0.6,1.3c0.1,1.1-0.3,1.8,0,2.6c0.3,0.7,0.4,1,0.4,1l-1-0.1v-1.1"/>
		<path class="st10" d="M249.6-54.8c0,0-0.5,0.5-0.6,1s-0.6,3.2-0.6,3.2h0.8l0.1-0.8l-0.2,0L249.6-54.8z"/>
		<polyline class="st10" points="245.2,-48 245.3,-46.9 245.5,-48 245.2,-48 		"/>
		<polyline class="st10" points="246,-48 246.2,-46.9 246.4,-48 246,-48 		"/>
		<polyline class="st10" points="245.3,-32.9 245.4,-31.8 245.6,-32.9 245.3,-32.9 		"/>
		<polyline class="st10" points="246.2,-32.9 246.3,-31.8 246.5,-32.9 246.2,-32.9 		"/>
		<path class="st10" d="M240.5-73.4c0,0-0.5,0.1-0.5,0.8c0,0.6,0.2,0.7,0.5,0.7s0.4-0.2,0.5-0.7C241-73.1,240.7-73.4,240.5-73.4z"/>
		<path class="st10" d="M239.3-70.7c0,0,1.1-0.2,1.9-0.3c0.3,0,0.6-0.1,0.6,0c0.2,0.1,0.7,4,0.7,4l-0.6,1.2l0-2.5l-0.1,1.9l-2.6,0.2
			v-2.4l-0.1,2.5l-0.6-1.4L239.3-70.7z"/>
		<polygon class="st10" points="240.6,-67.4 241,-71 240,-70.8 		"/>
		<polygon class="st10" points="239.2,-66.3 239.6,-60.1 239.8,-60.1 240.6,-65.9 241.1,-60.2 241.5,-60.2 241.8,-66.5 		"/>
		<path class="st10" d="M235.6-72.5c0,0-0.5,0-0.4,0.6c0.1,0.5,0.1,0.7,0.4,0.6c0.3,0,0.5-0.4,0.5-0.7S236.2-72.4,235.6-72.5z"/>
		<path class="st10" d="M233.7-65.8c0,0,0.1-4.8,2-4.7c1.9,0.1,1.7,4.6,1.7,4.6s-0.8-0.4-1.7-0.4c-0.4,0-0.7,0.1-1.1,0.2
			C234.1-66,233.7-65.8,233.7-65.8z"/>
		<path class="st10" d="M234.9-60.9l-0.3-5.3c0,0,0.8-0.3,1.4-0.2c0.6,0.1,1.1,0.3,1.1,0.3s-1.3,4.2-1.3,4.6s-0.2,1-0.2,1l-0.5-0.1
			l0.7-5.2L234.9-60.9z"/>
		<path class="st10" d="M280.6-43.1c0,0-0.5,0.1-0.5,0.8s0.2,0.7,0.5,0.7c0.3,0,0.4-0.2,0.5-0.7S280.9-43.1,280.6-43.1z"/>
		<path class="st10" d="M279.4-40.4c0,0,1.1-0.2,1.9-0.3c0.3,0,0.6-0.1,0.6,0c0.2,0.1,0.7,4,0.7,4l-0.6,1.2l0-2.5l-0.1,1.9l-2.6,0.2
			v-2.4l-0.1,2.5l-0.6-1.4L279.4-40.4z"/>
		<polygon class="st10" points="280.7,-37.1 281.2,-40.7 280.1,-40.5 		"/>
		<polygon class="st10" points="279.3,-36 279.7,-29.8 279.9,-29.8 280.7,-35.6 281.3,-29.9 281.6,-29.9 282,-36.2 		"/>
		<path class="st10" d="M275.8-42.1c0,0-0.5,0-0.4,0.6c0.1,0.5,0.1,0.7,0.4,0.6c0.3,0,0.5-0.4,0.5-0.7S276.3-42.1,275.8-42.1z"/>
		<path class="st10" d="M273.8-35.5c0,0,0.1-4.8,2-4.7c1.9,0.1,1.7,4.6,1.7,4.6s-0.8-0.4-1.7-0.4c-0.4,0-0.7,0.1-1.1,0.2
			C274.2-35.7,273.8-35.5,273.8-35.5z"/>
		<path class="st10" d="M275.1-30.6l-0.3-5.3c0,0,0.8-0.3,1.4-0.2c0.6,0.1,1.1,0.3,1.1,0.3s-1.3,4.2-1.3,4.6s-0.2,1-0.2,1l-0.5-0.1
			l0.7-5.2L275.1-30.6z"/>
		<path class="st10" d="M271.4-39.5c0,0-0.5-0.1-1.1-0.1c-0.5,0-0.9,0.5-0.9,0.5l-0.5,3.4c0,0,0.6,0,1.5,0c0.9,0,1.2-0.2,1.2-0.2
			L271.4-39.5z"/>
		<path class="st10" d="M269.4-30.6c0-0.1-0.1-5.1-0.1-5.1h2l-0.8,5.1l0-4.5L269.4-30.6z"/>
		<path class="st10" d="M270.2-41.5c0,0-0.4,0.3-0.3,0.7c0,0.4,0,0.7,0.3,0.7s0.4-0.4,0.4-0.7S270.5-41.5,270.2-41.5z"/>
		<path class="st10" d="M271.4-39.5c0,0,0.5,0.3,0.6,1.3c0.1,1.1-0.3,1.8,0,2.6s0.4,1,0.4,1l-1-0.1v-1.1"/>
		<path class="st10" d="M269.4-39.1c0,0-0.5,0.5-0.6,1c-0.1,0.5-0.6,3.2-0.6,3.2h0.8l0.1-0.8l-0.2,0L269.4-39.1z"/>
		<path class="st10" d="M260.7-43.6c0,0-0.5,0.1-0.5,0.8s0.2,0.7,0.5,0.7c0.3,0,0.4-0.2,0.5-0.7S261-43.5,260.7-43.6z"/>
		<path class="st10" d="M259.6-40.9c0,0,1.1-0.2,1.9-0.3c0.3,0,0.6-0.1,0.6,0c0.2,0.1,0.7,4,0.7,4l-0.6,1.2l0-2.5l-0.1,1.9l-2.6,0.2
			v-2.4l-0.1,2.5l-0.6-1.4L259.6-40.9z"/>
		<polygon class="st10" points="260.9,-37.6 261.3,-41.2 260.3,-40.9 		"/>
		<polygon class="st10" points="259.5,-36.5 259.8,-30.2 260,-30.2 260.9,-36.1 261.4,-30.3 261.8,-30.4 262.1,-36.6 		"/>
		<path class="st10" d="M260.7-28.8c0,0-0.5,0.1-0.5,0.8s0.2,0.7,0.5,0.7c0.3,0,0.4-0.2,0.5-0.7C261.2-28.4,261-28.8,260.7-28.8z"/>
		<path class="st10" d="M259.5-26.1c0,0,1.1-0.2,1.9-0.3c0.3,0,0.6-0.1,0.6,0c0.2,0.1,0.7,4,0.7,4l-0.6,1.2l0-2.5l-0.1,1.9l-2.6,0.2
			v-2.4l-0.1,2.5l-0.6-1.4L259.5-26.1z"/>
		<polygon class="st10" points="260.8,-22.8 261.3,-26.4 260.2,-26.2 		"/>
		<polygon class="st10" points="259.4,-21.7 259.8,-15.5 260,-15.5 260.8,-21.3 261.4,-15.6 261.7,-15.6 262.1,-21.9 		"/>
		<path class="st10" d="M255.9-42.6c0,0-0.5,0-0.4,0.6c0.1,0.5,0.1,0.7,0.4,0.6s0.5-0.4,0.5-0.7C256.4-42.4,256.5-42.5,255.9-42.6z"
			/>
		<path class="st10" d="M254-35.9c0,0,0.1-4.8,2-4.7c1.9,0.1,1.7,4.6,1.7,4.6s-0.8-0.4-1.7-0.4c-0.4,0-0.7,0.1-1.1,0.2
			C254.4-36.1,254-35.9,254-35.9z"/>
		<path class="st10" d="M255.2-31l-0.3-5.3c0,0,0.8-0.3,1.4-0.2c0.6,0.1,1.1,0.3,1.1,0.3s-1.3,4.2-1.3,4.6s-0.2,1-0.2,1l-0.5-0.1
			l0.7-5.2L255.2-31z"/>
		<path class="st10" d="M251.5-40c0,0-0.5-0.1-1.1-0.1s-0.9,0.5-0.9,0.5l-0.5,3.4c0,0,0.6,0,1.5,0c0.9,0,1.2-0.2,1.2-0.2L251.5-40z"
			/>
		<path class="st10" d="M249.5-31.1c0-0.1-0.1-5.1-0.1-5.1h2l-0.8,5.1l0-4.5L249.5-31.1z"/>
		<path class="st10" d="M250.4-41.9c0,0-0.4,0.3-0.3,0.7c0,0.4,0,0.7,0.3,0.7c0.4,0,0.4-0.4,0.4-0.7
			C250.7-41.6,250.6-41.9,250.4-41.9z"/>
		<path class="st10" d="M251.5-40c0,0,0.5,0.3,0.6,1.3c0.1,1.1-0.3,1.8,0,2.6c0.3,0.7,0.4,1,0.4,1l-1-0.1v-1.1"/>
		<path class="st10" d="M249.5-39.6c0,0-0.5,0.5-0.6,1c-0.1,0.5-0.6,3.2-0.6,3.2h0.8l0.1-0.8l-0.2,0L249.5-39.6z"/>
		<path class="st10" d="M240.4-44c0,0-0.5,0.1-0.5,0.8s0.2,0.7,0.5,0.7c0.3,0,0.4-0.2,0.5-0.7C240.9-43.7,240.7-44,240.4-44z"/>
		<path class="st10" d="M239.2-41.3c0,0,1.1-0.2,1.9-0.3c0.3,0,0.6-0.1,0.6,0c0.2,0.1,0.7,4,0.7,4l-0.6,1.2l0-2.5l-0.1,1.9l-2.6,0.2
			v-2.4l-0.1,2.5l-0.6-1.4L239.2-41.3z"/>
		<polygon class="st10" points="240.5,-38 240.9,-41.6 239.9,-41.4 		"/>
		<polygon class="st10" points="239.1,-36.9 239.5,-30.7 239.7,-30.7 240.5,-36.5 241,-30.8 241.4,-30.8 241.7,-37.1 		"/>
		<path class="st10" d="M235.5-43.1c0,0-0.5,0-0.4,0.6c0.1,0.5,0.1,0.7,0.4,0.6c0.3,0,0.5-0.4,0.5-0.7S236.1-43,235.5-43.1z"/>
		<path class="st10" d="M233.6-36.4c0,0,0.1-4.8,2-4.7c1.9,0.1,1.7,4.6,1.7,4.6s-0.8-0.4-1.7-0.4c-0.4,0-0.7,0.1-1.1,0.2
			C234-36.6,233.6-36.4,233.6-36.4z"/>
		<path class="st10" d="M234.8-31.5l-0.3-5.3c0,0,0.8-0.3,1.4-0.2c0.6,0.1,1.1,0.3,1.1,0.3s-1.3,4.2-1.3,4.6c0,0.4-0.2,1-0.2,1
			l-0.5-0.1l0.7-5.2L234.8-31.5z"/>
		<path class="st10" d="M241.2-55.2c0,0-0.5-0.1-1.1-0.1s-0.9,0.5-0.9,0.5l-0.5,3.4c0,0,0.6,0,1.5,0c0.9,0,1.2-0.2,1.2-0.2
			L241.2-55.2z"/>
		<path class="st10" d="M239.2-46.3c0-0.1-0.1-5.1-0.1-5.1h2l-0.8,5.1l0-4.5L239.2-46.3z"/>
		<path class="st10" d="M240-57.2c0,0-0.4,0.3-0.3,0.7c0,0.4,0,0.7,0.3,0.7c0.4,0,0.4-0.4,0.4-0.7C240.4-56.8,240.2-57.2,240-57.2z"
			/>
		<path class="st10" d="M241.2-55.2c0,0,0.5,0.3,0.6,1.3c0.1,1.1-0.3,1.8,0,2.6c0.3,0.7,0.4,1,0.4,1l-1-0.1v-1.1"/>
		<path class="st10" d="M239.2-54.8c0,0-0.5,0.5-0.6,1c-0.1,0.5-0.6,3.2-0.6,3.2h0.8l0.1-0.8l-0.2,0L239.2-54.8z"/>
		<polyline class="st11" points="234.7,-48.1 234.8,-46.9 235,-48.1 234.7,-48.1 		"/>
		<polyline class="st10" points="235.6,-48.1 235.7,-46.9 235.9,-48.1 235.6,-48.1 		"/>
		<path class="st9" d="M281.1-87.7c0,0-0.5,0.1-0.5,0.8c0,0.6,0.2,0.7,0.5,0.7c0.3,0,0.4-0.2,0.5-0.7S281.4-87.7,281.1-87.7z"/>
		<path class="st9" d="M280-85c0,0,1.1-0.2,1.9-0.3c0.3,0,0.6-0.1,0.6,0c0.2,0.1,0.7,4,0.7,4l-0.6,1.2l0-2.5l-0.1,1.9l-2.6,0.2V-83
			l-0.1,2.5l-0.6-1.4L280-85z"/>
		<polygon class="st9" points="281.3,-81.7 281.7,-85.3 280.7,-85.1 		"/>
		<polygon class="st9" points="279.9,-80.6 280.2,-74.4 280.4,-74.4 281.3,-80.2 281.8,-74.5 282.2,-74.5 282.5,-80.8 		"/>
		<path class="st9" d="M276.3-86.7c0,0-0.5,0-0.4,0.6c0.1,0.5,0.1,0.7,0.4,0.6s0.5-0.4,0.5-0.7S276.9-86.7,276.3-86.7z"/>
		<path class="st9" d="M274.4-80.1c0,0,0.1-4.8,2-4.7s1.7,4.6,1.7,4.6s-0.8-0.4-1.7-0.4c-0.4,0-0.7,0.1-1.1,0.2
			C274.8-80.3,274.4-80.1,274.4-80.1z"/>
		<path class="st9" d="M275.6-75.2l-0.3-5.3c0,0,0.8-0.3,1.4-0.2c0.6,0.1,1.1,0.3,1.1,0.3s-1.3,4.2-1.3,4.6s-0.2,1-0.2,1l-0.5-0.1
			l0.7-5.2L275.6-75.2z"/>
		<path class="st9" d="M271.9-84.1c0,0-0.5-0.1-1.1-0.1c-0.5,0-0.9,0.5-0.9,0.5l-0.5,3.4c0,0,0.6,0,1.5,0c0.9,0,1.2-0.2,1.2-0.2
			L271.9-84.1z"/>
		<path class="st9" d="M269.9-75.2c0-0.1-0.1-5.1-0.1-5.1h2l-0.8,5.1l0-4.5L269.9-75.2z"/>
		<path class="st9" d="M270.8-86.1c0,0-0.4,0.3-0.3,0.7s0,0.7,0.3,0.7c0.4,0,0.4-0.4,0.4-0.7S271-86.1,270.8-86.1z"/>
		<path class="st9" d="M271.9-84.1c0,0,0.5,0.3,0.6,1.3c0.1,1.1-0.3,1.8,0,2.6c0.3,0.7,0.4,1,0.4,1l-1-0.1v-1.1"/>
		<path class="st9" d="M269.9-83.8c0,0-0.5,0.5-0.6,1s-0.6,3.2-0.6,3.2h0.8l0.1-0.8l-0.2,0L269.9-83.8z"/>
		<polyline class="st9" points="265.5,-77 265.6,-75.8 265.8,-77 265.5,-77 		"/>
		<polyline class="st9" points="266.3,-77 266.5,-75.8 266.7,-77 266.3,-77 		"/>
		<path class="st10" d="M280.2-28.2c0,0-0.5,0.1-0.5,0.8c0,0.6,0.2,0.7,0.5,0.7c0.3,0,0.4-0.2,0.5-0.7
			C280.7-27.8,280.4-28.1,280.2-28.2z"/>
		<path class="st10" d="M279-25.5c0,0,1.1-0.2,1.9-0.3c0.3,0,0.6-0.1,0.6,0c0.2,0.1,0.7,4,0.7,4l-0.6,1.2l0-2.5l-0.1,1.9l-2.6,0.2
			v-2.4l-0.1,2.5l-0.6-1.4L279-25.5z"/>
		<polygon class="st10" points="280.3,-22.1 280.7,-25.7 279.7,-25.5 		"/>
		<polygon class="st10" points="278.9,-21 279.3,-14.8 279.4,-14.8 280.3,-20.6 280.8,-14.9 281.2,-14.9 281.5,-21.2 		"/>
		<path class="st10" d="M275.3-27.2c0,0-0.5,0-0.4,0.6c0.1,0.5,0.1,0.7,0.4,0.6c0.3,0,0.5-0.4,0.5-0.7
			C275.8-27,275.9-27.1,275.3-27.2z"/>
		<path class="st10" d="M273.4-20.5c0,0,0.1-4.8,2-4.7s1.7,4.6,1.7,4.6s-0.8-0.4-1.7-0.4c-0.4,0-0.7,0.1-1.1,0.2
			C273.8-20.7,273.4-20.5,273.4-20.5z"/>
		<path class="st10" d="M274.6-15.6l-0.3-5.3c0,0,0.8-0.3,1.4-0.2c0.6,0.1,1.1,0.3,1.1,0.3s-1.3,4.2-1.3,4.6s-0.2,1-0.2,1l-0.5-0.1
			l0.7-5.2L274.6-15.6z"/>
		<path class="st10" d="M271-24.6c0,0-0.5-0.1-1.1-0.1c-0.5,0-0.9,0.5-0.9,0.5l-0.5,3.4c0,0,0.6,0,1.5,0c0.9,0,1.2-0.2,1.2-0.2
			L271-24.6z"/>
		<path class="st10" d="M269-15.6c0-0.1-0.1-5.1-0.1-5.1h2l-0.8,5.1l0-4.5L269-15.6z"/>
		<path class="st10" d="M269.8-26.5c0,0-0.4,0.3-0.3,0.7s0,0.7,0.3,0.7s0.4-0.4,0.4-0.7S270-26.5,269.8-26.5z"/>
		<path class="st10" d="M271-24.6c0,0,0.5,0.3,0.6,1.3c0.1,1.1-0.3,1.8,0,2.6c0.3,0.7,0.4,1,0.4,1l-1-0.1v-1.1"/>
		<path class="st10" d="M269-24.2c0,0-0.5,0.5-0.6,1c-0.1,0.5-0.6,3.2-0.6,3.2h0.8l0.1-0.8l-0.2,0L269-24.2z"/>
		<polyline class="st10" points="264.5,-17.4 264.6,-16.3 264.8,-17.4 264.5,-17.4 		"/>
		<polyline class="st10" points="265.4,-17.4 265.5,-16.3 265.7,-17.4 265.4,-17.4 		"/>
		<path class="st9" d="M261.3-88.2c0,0-0.5,0.1-0.5,0.8c0,0.6,0.2,0.7,0.5,0.7c0.3,0,0.4-0.2,0.5-0.7S261.5-88.2,261.3-88.2z"/>
		<path class="st9" d="M260.1-85.5c0,0,1.1-0.2,1.9-0.3c0.3,0,0.6-0.1,0.6,0c0.2,0.1,0.7,4,0.7,4l-0.6,1.2l0-2.5l-0.1,1.9l-2.6,0.2
			v-2.4l-0.1,2.5l-0.6-1.4L260.1-85.5z"/>
		<polygon class="st9" points="261.4,-82.2 261.8,-85.8 260.8,-85.6 		"/>
		<polygon class="st9" points="260,-81.1 260.4,-74.9 260.6,-74.9 261.4,-80.7 261.9,-74.9 262.3,-75 262.6,-81.3 		"/>
		<path class="st9" d="M256.4-87.2c0,0-0.5,0-0.4,0.6c0.1,0.5,0.1,0.7,0.4,0.6c0.3,0,0.5-0.4,0.5-0.7S257-87.2,256.4-87.2z"/>
		<path class="st9" d="M254.5-80.6c0,0,0.1-4.8,2-4.7s1.7,4.6,1.7,4.6s-0.8-0.4-1.7-0.4c-0.4,0-0.7,0.1-1.1,0.2
			C254.9-80.8,254.5-80.6,254.5-80.6z"/>
		<path class="st9" d="M255.7-75.7l-0.3-5.3c0,0,0.8-0.3,1.4-0.2c0.6,0.1,1.1,0.3,1.1,0.3s-1.3,4.2-1.3,4.6s-0.2,1-0.2,1l-0.5-0.1
			l0.7-5.2L255.7-75.7z"/>
		<path class="st9" d="M252.1-84.6c0,0-0.5-0.1-1.1-0.1s-0.9,0.5-0.9,0.5l-0.5,3.4c0,0,0.6,0,1.5,0s1.2-0.2,1.2-0.2L252.1-84.6z"/>
		<path class="st9" d="M250.1-75.7c0-0.1-0.1-5.1-0.1-5.1h2l-0.8,5.1l0-4.5L250.1-75.7z"/>
		<path class="st9" d="M250.9-86.6c0,0-0.4,0.3-0.3,0.7c0,0.4,0,0.7,0.3,0.7s0.4-0.4,0.4-0.7S251.1-86.6,250.9-86.6z"/>
		<path class="st9" d="M252.1-84.6c0,0,0.5,0.3,0.6,1.3c0.1,1.1-0.3,1.8,0,2.6c0.3,0.7,0.4,1,0.4,1l-1-0.1v-1.1"/>
		<path class="st9" d="M250.1-84.2c0,0-0.5,0.5-0.6,1c-0.1,0.5-0.6,3.2-0.6,3.2h0.8l0.1-0.8l-0.2,0L250.1-84.2z"/>
		<polyline class="st9" points="245.6,-77.4 245.7,-76.3 245.9,-77.4 245.6,-77.4 		"/>
		<polyline class="st9" points="246.5,-77.4 246.6,-76.3 246.8,-77.4 246.5,-77.4 		"/>
		<path class="st9" d="M241.6-84.6c0,0-0.5-0.1-1.1-0.1c-0.5,0-0.9,0.5-0.9,0.5l-0.5,3.4c0,0,0.6,0,1.5,0s1.2-0.2,1.2-0.2
			L241.6-84.6z"/>
		<path class="st9" d="M239.6-75.7c0-0.1-0.1-5.1-0.1-5.1h2l-0.8,5.1l0-4.5L239.6-75.7z"/>
		<path class="st9" d="M240.5-86.6c0,0-0.4,0.3-0.3,0.7c0,0.4,0,0.7,0.3,0.7s0.4-0.4,0.4-0.7C240.8-86.2,240.7-86.6,240.5-86.6z"/>
		<path class="st9" d="M241.6-84.6c0,0,0.5,0.3,0.6,1.3c0.1,1.1-0.3,1.8,0,2.6c0.3,0.7,0.4,1,0.4,1l-1-0.1v-1.1"/>
		<path class="st9" d="M239.6-84.2c0,0-0.5,0.5-0.6,1c-0.1,0.5-0.6,3.2-0.6,3.2h0.8l0.1-0.8l-0.2,0L239.6-84.2z"/>
		<polyline class="st9" points="235.2,-77.5 235.3,-76.3 235.5,-77.5 235.2,-77.5 		"/>
		<polyline class="st9" points="236,-77.5 236.2,-76.3 236.4,-77.5 236,-77.5 		"/>
		<line class="st9" x1="270.4" y1="-69" x2="270.3" y2="-64.9"/>
		<path class="st9" d="M264.7-68.4c0,0,1.1-0.4,1.5-0.1s1.3,6.8,1.3,6.8h-3.3L264.7-68.4z"/>
		<path class="st9" d="M265.6-70.3c0,0-0.5,0.4-0.4,0.7s0.2,0.6,0.4,0.5c0.2,0,0.3-0.2,0.3-0.6C265.9-70.1,265.9-70.4,265.6-70.3z"
			/>
		<line class="st10" x1="250.5" y1="-69.5" x2="250.5" y2="-65.4"/>
		<path class="st10" d="M244.8-68.9c0,0,1.1-0.4,1.5-0.1c0.3,0.2,1.3,6.8,1.3,6.8h-3.3L244.8-68.9z"/>
		<path class="st10" d="M245.7-70.8c0,0-0.5,0.4-0.4,0.7s0.2,0.6,0.4,0.5s0.3-0.2,0.3-0.6C246-70.6,246-70.8,245.7-70.8z"/>
		<line class="st10" x1="270.3" y1="-39.6" x2="270.2" y2="-35.5"/>
		<path class="st10" d="M264.6-39c0,0,1.1-0.4,1.5-0.1s1.3,6.8,1.3,6.8H264L264.6-39z"/>
		<path class="st10" d="M265.5-40.9c0,0-0.5,0.4-0.4,0.7c0,0.3,0.2,0.6,0.4,0.5s0.3-0.2,0.3-0.6S265.8-41,265.5-40.9z"/>
		<line class="st10" x1="250.5" y1="-40.1" x2="250.4" y2="-36"/>
		<path class="st10" d="M244.7-39.5c0,0,1.1-0.4,1.5-0.1c0.3,0.2,1.3,6.8,1.3,6.8h-3.3L244.7-39.5z"/>
		<path class="st10" d="M245.6-41.4c0,0-0.5,0.4-0.4,0.7s0.2,0.6,0.4,0.5c0.2,0,0.3-0.2,0.3-0.6S245.9-41.4,245.6-41.4z"/>
		<line class="st10" x1="270.4" y1="-54.8" x2="270.3" y2="-50.8"/>
		<path class="st10" d="M264.7-54.2c0,0,1.1-0.4,1.5-0.1c0.3,0.2,1.3,6.8,1.3,6.8h-3.3L264.7-54.2z"/>
		<path class="st10" d="M265.6-56.2c0,0-0.5,0.4-0.4,0.7c0,0.3,0.2,0.6,0.4,0.5s0.3-0.2,0.3-0.6S265.9-56.2,265.6-56.2z"/>
		<line class="st10" x1="250.5" y1="-55.3" x2="250.5" y2="-51.2"/>
		<path class="st10" d="M244.8-54.7c0,0,1.1-0.4,1.5-0.1c0.3,0.2,1.3,6.8,1.3,6.8h-3.3L244.8-54.7z"/>
		<path class="st10" d="M245.7-56.6c0,0-0.5,0.4-0.4,0.7s0.2,0.6,0.4,0.5s0.3-0.2,0.3-0.6S246-56.7,245.7-56.6z"/>
		<line class="st10" x1="240.1" y1="-55.3" x2="240" y2="-51.2"/>
		<path class="st10" d="M234.4-54.7c0,0,1.1-0.4,1.5-0.1c0.3,0.2,1.3,6.8,1.3,6.8h-3.3L234.4-54.7z"/>
		<path class="st10" d="M235.3-56.7c0,0-0.5,0.4-0.4,0.7c0,0.3,0.2,0.6,0.4,0.5c0.2,0,0.3-0.2,0.3-0.6S235.6-56.7,235.3-56.7z"/>
		<line class="st9" x1="270.8" y1="-84.2" x2="270.8" y2="-80.2"/>
		<path class="st9" d="M265.1-83.6c0,0,1.1-0.4,1.5-0.1c0.3,0.2,1.3,6.8,1.3,6.8h-3.3L265.1-83.6z"/>
		<path class="st9" d="M266-85.6c0,0-0.5,0.4-0.4,0.7c0,0.3,0.2,0.6,0.4,0.5c0.2,0,0.3-0.2,0.3-0.6C266.3-85.3,266.3-85.6,266-85.6z
			"/>
		<line class="st10" x1="269.9" y1="-24.6" x2="269.8" y2="-20.6"/>
		<path class="st10" d="M264.2-24c0,0,1.1-0.4,1.5-0.1s1.3,6.8,1.3,6.8h-3.3L264.2-24z"/>
		<path class="st10" d="M265.1-26c0,0-0.5,0.4-0.4,0.7c0,0.3,0.2,0.6,0.4,0.5s0.3-0.2,0.3-0.6S265.4-26,265.1-26z"/>
		<line class="st9" x1="251" y1="-84.7" x2="250.9" y2="-80.6"/>
		<path class="st9" d="M245.3-84.1c0,0,1.1-0.4,1.5-0.1c0.3,0.2,1.3,6.8,1.3,6.8h-3.3L245.3-84.1z"/>
		<path class="st9" d="M246.2-86c0,0-0.5,0.4-0.4,0.7s0.2,0.6,0.4,0.5c0.2,0,0.3-0.2,0.3-0.6C246.5-85.8,246.5-86.1,246.2-86z"/>
		<line class="st9" x1="240.5" y1="-84.7" x2="240.5" y2="-80.6"/>
		<path class="st9" d="M234.8-84.1c0,0,1.1-0.4,1.5-0.1c0.3,0.2,1.3,6.8,1.3,6.8h-3.3L234.8-84.1z"/>
		<path class="st9" d="M235.7-86.1c0,0-0.5,0.4-0.4,0.7c0,0.3,0.2,0.6,0.4,0.5c0.2,0,0.3-0.2,0.3-0.6C236-85.8,236-86.1,235.7-86.1z
			"/>
	</g>
	<rect x="9.9" y="6.7" class="st12" width="122" height="13.1"/>
	<text transform="matrix(1 0 0 1 9.8819 11.8918)"><tspan x="0" y="0" class="st1 st2 st3">Accidente del FAIRCHILD (FAU 571)</tspan><tspan x="0" y="7.2" class="st1 st2 st3">de la Fuerza Aérea Uruguaya</tspan></text>
	<g>
		<g>
			<path class="st13" d="M158.1,21.7c-0.1,0.1-0.1,0.2-0.3,0.2c-0.2,0-0.4-0.1-0.4-0.3c0-0.1,0-0.2,0-0.3c0-0.6,0-1.2,0-1.8
				c0-0.1,0-0.2-0.1-0.3c-0.1,0.1-0.1,0.2-0.1,0.3c0,2,0,3.9,0,5.9c0,0.1,0,0.2,0,0.3c0,0.3-0.3,0.5-0.6,0.4c-0.1,0-0.2-0.1-0.3-0.3
				c0-0.1,0-0.2,0-0.3c0-1.1,0-2.2,0-3.3c0,0,0-0.1,0-0.1c0,0,0-0.1-0.1-0.1c0,0-0.1,0-0.1,0c-0.1,0.1-0.1,0.2-0.1,0.3
				c0,1.1,0,2.1,0,3.2c0,0.1,0,0.2,0,0.3c0,0.3-0.2,0.4-0.5,0.4c-0.2,0-0.4-0.2-0.4-0.4c0-0.1,0-0.2,0-0.3c0-2,0-4,0-5.9
				c0-0.1,0-0.2-0.1-0.3c-0.1,0.1-0.1,0.2-0.1,0.3c0,0.7,0,1.3,0,2c0,0.3-0.2,0.5-0.5,0.4c-0.1,0-0.2-0.1-0.2-0.3c0-0.1,0-0.1,0-0.2
				c0-0.9,0-1.9,0-2.8c0-0.1,0-0.2,0-0.2c0-0.4,0.3-0.6,0.7-0.7c0.5,0,0.9,0,1.4,0c0.3,0,0.6,0,0.9,0c0.5,0,0.8,0.1,0.9,0.6
				c0,0,0,0,0,0.1c-0.1,0,0,0.1,0,0.1c0,0.8,0,1.7,0,2.5c0,0.1,0,0.1,0,0.1c0,0.1,0,0.2,0,0.4c0,0,0,0,0,0.1
				C158.1,21.7,158.1,21.7,158.1,21.7z"/>
			<path class="st13" d="M149,15.9c0,0.1,0.1,0,0.1,0.1c0.3,0.1,0.5,0.5,0.5,0.8c-0.1,0.4-0.3,0.6-0.7,0.6c-0.4,0-0.7-0.2-0.7-0.6
				c-0.1-0.3,0.1-0.7,0.4-0.8c0,0,0.1,0,0.1-0.1C148.8,15.9,148.9,15.9,149,15.9z"/>
			<path class="st13" d="M141.8,15.9c0.1,0.1,0.2,0,0.2,0.1c0.3,0.1,0.5,0.5,0.4,0.8c-0.1,0.4-0.4,0.6-0.7,0.6
				c-0.3,0-0.6-0.2-0.7-0.6c-0.1-0.3,0.1-0.7,0.4-0.8c0.1,0,0.1,0,0.2-0.1C141.6,15.9,141.7,15.9,141.8,15.9z"/>
			<path class="st13" d="M156.3,15.9c0.1,0,0.2,0,0.2,0.1c0.3,0.1,0.5,0.5,0.4,0.9c-0.1,0.3-0.4,0.5-0.7,0.5c-0.4,0-0.6-0.3-0.7-0.6
				c-0.1-0.3,0.1-0.7,0.4-0.8c0.1,0,0.1,0,0.2-0.1C156.1,15.9,156.2,15.9,156.3,15.9z"/>
			<path class="st13" d="M158.1,21.2c-0.1,0,0-0.1,0-0.1c0-0.8,0-1.7,0-2.5c0-0.1,0-0.1,0-0.1C158.1,19.3,158.1,20.3,158.1,21.2z"/>
			<path class="st13" d="M158.1,21.6C158.1,21.6,158.1,21.6,158.1,21.6C158.1,21.6,158.1,21.6,158.1,21.6z"/>
			<path class="st13" d="M140.6,19.2c-0.1,0.1-0.1,0.2-0.1,0.3c0,0.7,0,1.4,0,2c0,0.3-0.2,0.5-0.5,0.4c-0.2-0.1-0.2-0.2-0.2-0.4
				c0-1,0-2.1,0-3.1c0-0.5,0.3-0.7,0.7-0.8c0.8,0,1.6,0,2.5,0c0.4,0,0.7,0.3,0.7,0.7c0,1,0,2.1,0,3.1c0,0.4-0.2,0.5-0.5,0.4
				c-0.2,0-0.3-0.2-0.3-0.4c0-0.4,0-0.9,0-1.3c0-0.3,0-0.5,0-0.8c0-0.1,0-0.2-0.1-0.3c-0.1,0.1-0.1,0.2-0.1,0.3c0,2,0,4,0,5.9
				c0,0.1,0,0.2,0,0.3c-0.1,0.3-0.3,0.5-0.6,0.4c-0.2,0-0.3-0.2-0.3-0.4c0-0.2,0-0.5,0-0.7c0-0.9,0-1.9,0-2.8c0,0,0-0.1,0-0.1
				c0,0,0-0.1,0-0.1c-0.1,0-0.1,0-0.1,0.1c0,0.1,0,0.2,0,0.2c0,1,0,2,0,3.1c0,0.1,0,0.3,0,0.4c0,0.2-0.2,0.4-0.4,0.4
				c-0.2,0-0.4-0.1-0.4-0.4c0-0.1,0-0.2,0-0.3c0-2,0-4,0-5.9C140.7,19.4,140.7,19.3,140.6,19.2z"/>
			<path class="st13" d="M147.7,19.2c-0.1,0.1-0.1,0.2-0.1,0.3c0,0.6,0,1.2,0,1.8c0,0.1,0,0.2,0,0.2c0,0.3-0.1,0.5-0.4,0.5
				c-0.2,0-0.4-0.2-0.4-0.5c0-1,0-1.9,0-2.9c0-0.6,0.2-0.8,0.8-0.9c0.8,0,1.6,0,2.4,0c0.4,0,0.7,0.3,0.7,0.7c0,1,0,2.1,0,3.1
				c0,0.4-0.2,0.5-0.5,0.4c-0.2,0-0.2-0.2-0.2-0.3c0-0.1,0-0.2,0-0.2c0-0.6,0-1.2,0-1.9c0-0.1,0-0.2-0.1-0.3
				c-0.1,0.1-0.1,0.2-0.1,0.3c0,2,0,3.9,0,5.9c0,0.1,0,0.2,0,0.3c-0.1,0.3-0.3,0.5-0.6,0.4c-0.2,0-0.3-0.2-0.3-0.4
				c0-0.3,0-0.5,0-0.8c0-0.9,0-1.8,0-2.7c0-0.1,0-0.2-0.1-0.2c-0.1,0-0.1,0.1-0.1,0.2c0,0.1,0,0.1,0,0.2c0,1,0,2,0,3.1
				c0,0.1,0,0.3,0,0.4c0,0.2-0.2,0.4-0.4,0.4c-0.2,0-0.4-0.1-0.4-0.4c0-0.1,0-0.2,0-0.4c0-2,0-3.9,0-5.9
				C147.8,19.4,147.8,19.3,147.7,19.2z"/>
			<path class="st13" d="M151.3,27.1c-0.1,0.1-0.1,0.2-0.1,0.3c0,0.7,0,1.3,0,2c0,0.2-0.1,0.4-0.3,0.4c-0.3,0.1-0.5-0.1-0.5-0.4
				c0-0.3,0-0.6,0-0.9c0-0.7,0-1.3,0-2c0-0.1,0-0.2,0-0.3c0.1-0.4,0.3-0.6,0.7-0.6c0.8,0,1.6,0,2.5,0c0.4,0,0.7,0.3,0.7,0.7
				c0,1,0,2.1,0,3.1c0,0.2,0,0.3-0.2,0.4c-0.2,0.1-0.5,0-0.5-0.3c0-0.1,0-0.2,0-0.3c0-0.6,0-1.2,0-1.8c0-0.1,0-0.2-0.1-0.3
				c-0.1,0.1-0.1,0.2-0.1,0.3c0,2,0,3.9,0,5.9c0,0.1,0,0.2,0,0.3c-0.1,0.3-0.2,0.4-0.5,0.4c-0.3,0-0.4-0.2-0.4-0.5
				c0-1.2,0-2.3,0-3.5c0-0.1,0.1-0.2-0.1-0.2c-0.1,0-0.1,0.1-0.1,0.2c0,0.1,0,0.1,0,0.2c0,1,0,2.1,0,3.1c0,0.1,0,0.3,0,0.4
				c0,0.2-0.2,0.4-0.4,0.4c-0.2,0-0.4-0.1-0.4-0.3c0-0.1,0-0.2,0-0.4c0-2,0-4,0-5.9C151.4,27.3,151.4,27.2,151.3,27.1z"/>
			<path class="st13" d="M146.4,27.1c-0.1,0.1-0.1,0.2-0.1,0.3c0,2,0,3.9,0,5.9c0,0.1,0,0.2,0,0.3c-0.1,0.3-0.2,0.4-0.5,0.4
				c-0.3,0-0.4-0.2-0.4-0.5c0-1.2,0-2.3,0-3.5c0-0.1,0-0.2-0.1-0.2c-0.1,0-0.1,0.1-0.1,0.2c0,0.1,0,0.1,0,0.2c0,1,0,2.1,0,3.1
				c0,0.1,0,0.2,0,0.4c0,0.2-0.2,0.4-0.4,0.4c-0.2,0-0.4-0.1-0.4-0.4c0-0.1,0-0.2,0-0.3c0-2,0-4,0-5.9c0-0.1,0-0.2-0.1-0.3
				c-0.1,0.1-0.1,0.2-0.1,0.3c0,0.7,0,1.3,0,2c0,0.3-0.1,0.4-0.3,0.4c-0.2,0-0.4-0.1-0.4-0.4c0-0.8,0-1.7,0-2.5c0-0.2,0-0.5,0-0.7
				c0.1-0.4,0.3-0.6,0.7-0.6c0.8,0,1.7,0,2.5,0c0.4,0,0.7,0.3,0.7,0.6c0,1.1,0,2.1,0,3.2c0,0.3-0.1,0.4-0.4,0.4
				c-0.2,0-0.3-0.1-0.3-0.4c0-0.3,0-0.6,0-0.9c0-0.4,0-0.8,0-1.2C146.5,27.3,146.5,27.2,146.4,27.1z"/>
			<path class="st13" d="M145.3,23.8c0.4,0,0.7,0.3,0.7,0.7c0,0.4-0.3,0.7-0.7,0.7c-0.4,0-0.7-0.3-0.7-0.7
				C144.6,24.2,144.9,23.8,145.3,23.8z"/>
			<path class="st13" d="M151.7,24.6c0-0.4,0.3-0.7,0.7-0.7c0.4,0,0.7,0.3,0.7,0.7c0,0.4-0.3,0.7-0.7,0.7
				C152,25.3,151.7,25,151.7,24.6z"/>
		</g>
		<g>
			<path class="st13" d="M180.3,22c-0.1,0.1-0.1,0.2-0.3,0.2c-0.2,0-0.4-0.1-0.4-0.3c0-0.1,0-0.2,0-0.3c0-0.6,0-1.2,0-1.8
				c0-0.1,0-0.2-0.1-0.3c-0.1,0.1-0.1,0.2-0.1,0.3c0,2,0,3.9,0,5.9c0,0.1,0,0.2,0,0.3c0,0.3-0.3,0.5-0.6,0.4c-0.1,0-0.2-0.1-0.3-0.3
				c0-0.1,0-0.2,0-0.3c0-1.1,0-2.2,0-3.3c0,0,0-0.1,0-0.1c0,0,0-0.1-0.1-0.1c0,0-0.1,0-0.1,0c-0.1,0.1-0.1,0.2-0.1,0.3
				c0,1.1,0,2.1,0,3.2c0,0.1,0,0.2,0,0.3c0,0.3-0.2,0.4-0.5,0.4c-0.2,0-0.4-0.2-0.4-0.4c0-0.1,0-0.2,0-0.3c0-2,0-4,0-5.9
				c0-0.1,0-0.2-0.1-0.3c-0.1,0.1-0.1,0.2-0.1,0.3c0,0.7,0,1.3,0,2c0,0.3-0.2,0.5-0.5,0.4c-0.1,0-0.2-0.1-0.2-0.3c0-0.1,0-0.1,0-0.2
				c0-0.9,0-1.9,0-2.8c0-0.1,0-0.2,0-0.2c0-0.4,0.3-0.6,0.7-0.7c0.5,0,0.9,0,1.4,0c0.3,0,0.6,0,0.9,0c0.5,0,0.8,0.1,0.9,0.6
				c0,0,0,0,0,0.1c-0.1,0,0,0.1,0,0.1c0,0.8,0,1.7,0,2.5c0,0.1,0,0.1,0,0.1c0,0.1,0,0.2,0,0.4c0,0,0,0,0,0.1
				C180.3,22,180.3,22,180.3,22z"/>
			<path class="st13" d="M171.2,16.2c0,0.1,0.1,0,0.1,0.1c0.3,0.1,0.5,0.5,0.5,0.8c-0.1,0.4-0.3,0.6-0.7,0.6c-0.4,0-0.7-0.2-0.7-0.6
				c-0.1-0.3,0.1-0.7,0.4-0.8c0,0,0.1,0,0.1-0.1C171,16.2,171.1,16.2,171.2,16.2z"/>
			<path class="st13" d="M164,16.2c0.1,0.1,0.2,0,0.2,0.1c0.3,0.1,0.5,0.5,0.4,0.8c-0.1,0.4-0.4,0.6-0.7,0.6c-0.3,0-0.6-0.2-0.7-0.6
				c-0.1-0.3,0.1-0.7,0.4-0.8c0.1,0,0.1,0,0.2-0.1C163.8,16.2,163.9,16.2,164,16.2z"/>
			<path class="st13" d="M178.4,16.2c0.1,0,0.2,0,0.2,0.1c0.3,0.1,0.5,0.5,0.4,0.9c-0.1,0.3-0.4,0.5-0.7,0.5c-0.4,0-0.6-0.3-0.7-0.6
				c-0.1-0.3,0.1-0.7,0.4-0.8c0.1,0,0.1,0,0.2-0.1C178.3,16.2,178.4,16.2,178.4,16.2z"/>
			<path class="st13" d="M180.3,21.5c-0.1,0,0-0.1,0-0.1c0-0.8,0-1.7,0-2.5c0-0.1,0-0.1,0-0.1C180.3,19.6,180.3,20.6,180.3,21.5z"/>
			<path class="st13" d="M180.3,21.9C180.3,21.9,180.3,21.9,180.3,21.9C180.3,21.9,180.3,21.9,180.3,21.9z"/>
			<path class="st13" d="M162.8,19.5c-0.1,0.1-0.1,0.2-0.1,0.3c0,0.7,0,1.4,0,2c0,0.3-0.2,0.5-0.5,0.4c-0.2-0.1-0.2-0.2-0.2-0.4
				c0-1,0-2.1,0-3.1c0-0.5,0.3-0.7,0.7-0.8c0.8,0,1.6,0,2.5,0c0.4,0,0.7,0.3,0.7,0.7c0,1,0,2.1,0,3.1c0,0.4-0.2,0.5-0.5,0.4
				c-0.2,0-0.3-0.2-0.3-0.4c0-0.4,0-0.9,0-1.3c0-0.3,0-0.5,0-0.8c0-0.1,0-0.2-0.1-0.3c-0.1,0.1-0.1,0.2-0.1,0.3c0,2,0,4,0,5.9
				c0,0.1,0,0.2,0,0.3c-0.1,0.3-0.3,0.5-0.6,0.4c-0.2,0-0.3-0.2-0.3-0.4c0-0.2,0-0.5,0-0.7c0-0.9,0-1.9,0-2.8c0,0,0-0.1,0-0.1
				c0,0,0-0.1,0-0.1c-0.1,0-0.1,0-0.1,0.1c0,0.1,0,0.2,0,0.2c0,1,0,2,0,3.1c0,0.1,0,0.3,0,0.4c0,0.2-0.2,0.4-0.4,0.4
				c-0.2,0-0.4-0.1-0.4-0.4c0-0.1,0-0.2,0-0.3c0-2,0-4,0-5.9C162.9,19.7,162.9,19.6,162.8,19.5z"/>
			<path class="st13" d="M169.9,19.6c-0.1,0.1-0.1,0.2-0.1,0.3c0,0.6,0,1.2,0,1.8c0,0.1,0,0.2,0,0.2c0,0.3-0.1,0.5-0.4,0.5
				c-0.2,0-0.4-0.2-0.4-0.5c0-1,0-1.9,0-2.9c0-0.6,0.2-0.8,0.8-0.9c0.8,0,1.6,0,2.4,0c0.4,0,0.7,0.3,0.7,0.7c0,1,0,2.1,0,3.1
				c0,0.4-0.2,0.5-0.5,0.4c-0.2,0-0.2-0.2-0.2-0.3c0-0.1,0-0.2,0-0.2c0-0.6,0-1.2,0-1.9c0-0.1,0-0.2-0.1-0.3
				c-0.1,0.1-0.1,0.2-0.1,0.3c0,2,0,3.9,0,5.9c0,0.1,0,0.2,0,0.3c-0.1,0.3-0.3,0.5-0.6,0.4c-0.2,0-0.3-0.2-0.3-0.4
				c0-0.3,0-0.5,0-0.8c0-0.9,0-1.8,0-2.7c0-0.1,0-0.2-0.1-0.2c-0.1,0-0.1,0.1-0.1,0.2c0,0.1,0,0.1,0,0.2c0,1,0,2,0,3.1
				c0,0.1,0,0.3,0,0.4c0,0.2-0.2,0.4-0.4,0.4c-0.2,0-0.4-0.1-0.4-0.4c0-0.1,0-0.2,0-0.4c0-2,0-3.9,0-5.9
				C170,19.7,170,19.6,169.9,19.6z"/>
			<path class="st13" d="M173.5,27.4c-0.1,0.1-0.1,0.2-0.1,0.3c0,0.7,0,1.3,0,2c0,0.2-0.1,0.4-0.3,0.4c-0.3,0.1-0.5-0.1-0.5-0.4
				c0-0.3,0-0.6,0-0.9c0-0.7,0-1.3,0-2c0-0.1,0-0.2,0-0.3c0.1-0.4,0.3-0.6,0.7-0.6c0.8,0,1.6,0,2.5,0c0.4,0,0.7,0.3,0.7,0.7
				c0,1,0,2.1,0,3.1c0,0.2,0,0.3-0.2,0.4c-0.2,0.1-0.5,0-0.5-0.3c0-0.1,0-0.2,0-0.3c0-0.6,0-1.2,0-1.8c0-0.1,0-0.2-0.1-0.3
				c-0.1,0.1-0.1,0.2-0.1,0.3c0,2,0,3.9,0,5.9c0,0.1,0,0.2,0,0.3c-0.1,0.3-0.2,0.4-0.5,0.4c-0.3,0-0.4-0.2-0.4-0.5
				c0-1.2,0-2.3,0-3.5c0-0.1,0.1-0.2-0.1-0.2c-0.1,0-0.1,0.1-0.1,0.2c0,0.1,0,0.1,0,0.2c0,1,0,2.1,0,3.1c0,0.1,0,0.3,0,0.4
				c0,0.2-0.2,0.4-0.4,0.4c-0.2,0-0.4-0.1-0.4-0.3c0-0.1,0-0.2,0-0.4c0-2,0-4,0-5.9C173.6,27.6,173.6,27.5,173.5,27.4z"/>
			<path class="st13" d="M168.6,27.4c-0.1,0.1-0.1,0.2-0.1,0.3c0,2,0,3.9,0,5.9c0,0.1,0,0.2,0,0.3c-0.1,0.3-0.2,0.4-0.5,0.4
				c-0.3,0-0.4-0.2-0.4-0.5c0-1.2,0-2.3,0-3.5c0-0.1,0-0.2-0.1-0.2c-0.1,0-0.1,0.1-0.1,0.2c0,0.1,0,0.1,0,0.2c0,1,0,2.1,0,3.1
				c0,0.1,0,0.2,0,0.4c0,0.2-0.2,0.4-0.4,0.4c-0.2,0-0.4-0.1-0.4-0.4c0-0.1,0-0.2,0-0.3c0-2,0-4,0-5.9c0-0.1,0-0.2-0.1-0.3
				c-0.1,0.1-0.1,0.2-0.1,0.3c0,0.7,0,1.3,0,2c0,0.3-0.1,0.4-0.3,0.4c-0.2,0-0.4-0.1-0.4-0.4c0-0.8,0-1.7,0-2.5c0-0.2,0-0.5,0-0.7
				c0.1-0.4,0.3-0.6,0.7-0.6c0.8,0,1.7,0,2.5,0c0.4,0,0.7,0.3,0.7,0.6c0,1.1,0,2.1,0,3.2c0,0.3-0.1,0.4-0.4,0.4
				c-0.2,0-0.3-0.1-0.3-0.4c0-0.3,0-0.6,0-0.9c0-0.4,0-0.8,0-1.2C168.7,27.6,168.7,27.5,168.6,27.4z"/>
			<path class="st13" d="M167.5,24.2c0.4,0,0.7,0.3,0.7,0.7c0,0.4-0.3,0.7-0.7,0.7c-0.4,0-0.7-0.3-0.7-0.7
				C166.7,24.5,167.1,24.2,167.5,24.2z"/>
			<path class="st13" d="M173.9,24.9c0-0.4,0.3-0.7,0.7-0.7c0.4,0,0.7,0.3,0.7,0.7c0,0.4-0.3,0.7-0.7,0.7
				C174.2,25.6,173.9,25.3,173.9,24.9z"/>
		</g>
	</g>
	<path class="st13" d="M101.7-21.2c-0.1,0.1-0.1,0.2-0.3,0.2c-0.2,0-0.4-0.1-0.4-0.3c0-0.1,0-0.2,0-0.3c0-0.6,0-1.2,0-1.8
		c0-0.1,0-0.2-0.1-0.3c-0.1,0.1-0.1,0.2-0.1,0.3c0,2,0,3.9,0,5.9c0,0.1,0,0.2,0,0.3c0,0.3-0.3,0.5-0.6,0.4c-0.1,0-0.2-0.1-0.3-0.3
		c0-0.1,0-0.2,0-0.3c0-1.1,0-2.2,0-3.3c0,0,0-0.1,0-0.1c0,0,0-0.1-0.1-0.1c0,0-0.1,0-0.1,0c-0.1,0.1-0.1,0.2-0.1,0.3
		c0,1.1,0,2.1,0,3.2c0,0.1,0,0.2,0,0.3c0,0.3-0.2,0.4-0.5,0.4c-0.2,0-0.4-0.2-0.4-0.4c0-0.1,0-0.2,0-0.3c0-2,0-4,0-5.9
		c0-0.1,0-0.2-0.1-0.3c-0.1,0.1-0.1,0.2-0.1,0.3c0,0.7,0,1.3,0,2c0,0.3-0.2,0.5-0.5,0.4c-0.1,0-0.2-0.1-0.2-0.3c0-0.1,0-0.1,0-0.2
		c0-0.9,0-1.9,0-2.8c0-0.1,0-0.2,0-0.2c0-0.4,0.3-0.6,0.7-0.7c0.5,0,0.9,0,1.4,0c0.3,0,0.6,0,0.9,0c0.5,0,0.8,0.1,0.9,0.6
		c0,0,0,0,0,0.1c-0.1,0,0,0.1,0,0.1c0,0.8,0,1.7,0,2.5c0,0.1,0,0.1,0,0.1c0,0.1,0,0.2,0,0.4c0,0,0,0,0,0.1
		C101.7-21.3,101.7-21.2,101.7-21.2z"/>
	<path class="st13" d="M92.6-27c0,0.1,0.1,0,0.1,0.1c0.3,0.1,0.5,0.5,0.5,0.8c-0.1,0.4-0.3,0.6-0.7,0.6c-0.4,0-0.7-0.2-0.7-0.6
		c-0.1-0.3,0.1-0.7,0.4-0.8c0,0,0.1,0,0.1-0.1C92.4-27,92.5-27,92.6-27z"/>
	<path class="st13" d="M85.4-27c0.1,0.1,0.2,0,0.2,0.1c0.3,0.1,0.5,0.5,0.4,0.8c-0.1,0.4-0.4,0.6-0.7,0.6c-0.3,0-0.6-0.2-0.7-0.6
		c-0.1-0.3,0.1-0.7,0.4-0.8c0.1,0,0.1,0,0.2-0.1C85.3-27,85.4-27,85.4-27z"/>
	<path class="st13" d="M99.9-27c0.1,0,0.2,0,0.2,0.1c0.3,0.1,0.5,0.5,0.4,0.9c-0.1,0.3-0.4,0.5-0.7,0.5c-0.4,0-0.6-0.3-0.7-0.6
		c-0.1-0.3,0.1-0.7,0.4-0.8c0.1,0,0.1,0,0.2-0.1C99.7-27,99.8-27,99.9-27z"/>
	<path class="st14" d="M101.7-21.7c-0.1,0,0-0.1,0-0.1c0-0.8,0-1.7,0-2.5c0-0.1,0-0.1,0-0.1C101.7-23.6,101.7-22.7,101.7-21.7z"/>
	<path class="st14" d="M101.7-21.3C101.7-21.3,101.7-21.3,101.7-21.3C101.7-21.3,101.7-21.3,101.7-21.3z"/>
	<path class="st13" d="M84.2-23.7c-0.1,0.1-0.1,0.2-0.1,0.3c0,0.7,0,1.4,0,2c0,0.3-0.2,0.5-0.5,0.4c-0.2-0.1-0.2-0.2-0.2-0.4
		c0-1,0-2.1,0-3.1c0-0.5,0.3-0.7,0.7-0.8c0.8,0,1.6,0,2.5,0c0.4,0,0.7,0.3,0.7,0.7c0,1,0,2.1,0,3.1c0,0.4-0.2,0.5-0.5,0.4
		c-0.2,0-0.3-0.2-0.3-0.4c0-0.4,0-0.9,0-1.3c0-0.3,0-0.5,0-0.8c0-0.1,0-0.2-0.1-0.3c-0.1,0.1-0.1,0.2-0.1,0.3c0,2,0,4,0,5.9
		c0,0.1,0,0.2,0,0.3c-0.1,0.3-0.3,0.5-0.6,0.4c-0.2,0-0.3-0.2-0.3-0.4c0-0.2,0-0.5,0-0.7c0-0.9,0-1.9,0-2.8c0,0,0-0.1,0-0.1
		c0,0,0-0.1,0-0.1c-0.1,0-0.1,0-0.1,0.1c0,0.1,0,0.2,0,0.2c0,1,0,2,0,3.1c0,0.1,0,0.3,0,0.4c0,0.2-0.2,0.4-0.4,0.4
		c-0.2,0-0.4-0.1-0.4-0.4c0-0.1,0-0.2,0-0.3c0-2,0-4,0-5.9C84.3-23.5,84.3-23.6,84.2-23.7z"/>
	<path class="st13" d="M91.4-23.7c-0.1,0.1-0.1,0.2-0.1,0.3c0,0.6,0,1.2,0,1.8c0,0.1,0,0.2,0,0.2c0,0.3-0.1,0.5-0.4,0.5
		c-0.2,0-0.4-0.2-0.4-0.5c0-1,0-1.9,0-2.9c0-0.6,0.2-0.8,0.8-0.9c0.8,0,1.6,0,2.4,0c0.4,0,0.7,0.3,0.7,0.7c0,1,0,2.1,0,3.1
		c0,0.4-0.2,0.5-0.5,0.4c-0.2,0-0.2-0.2-0.2-0.3c0-0.1,0-0.2,0-0.2c0-0.6,0-1.2,0-1.9c0-0.1,0-0.2-0.1-0.3c-0.1,0.1-0.1,0.2-0.1,0.3
		c0,2,0,3.9,0,5.9c0,0.1,0,0.2,0,0.3c-0.1,0.3-0.3,0.5-0.6,0.4c-0.2,0-0.3-0.2-0.3-0.4c0-0.3,0-0.5,0-0.8c0-0.9,0-1.8,0-2.7
		c0-0.1,0-0.2-0.1-0.2c-0.1,0-0.1,0.1-0.1,0.2c0,0.1,0,0.1,0,0.2c0,1,0,2,0,3.1c0,0.1,0,0.3,0,0.4c0,0.2-0.2,0.4-0.4,0.4
		c-0.2,0-0.4-0.1-0.4-0.4c0-0.1,0-0.2,0-0.4c0-2,0-3.9,0-5.9C91.5-23.5,91.4-23.6,91.4-23.7z"/>
	<path class="st13" d="M94.9-15.8c-0.1,0.1-0.1,0.2-0.1,0.3c0,0.7,0,1.3,0,2c0,0.2-0.1,0.4-0.3,0.4c-0.3,0.1-0.5-0.1-0.5-0.4
		c0-0.3,0-0.6,0-0.9c0-0.7,0-1.3,0-2c0-0.1,0-0.2,0-0.3c0.1-0.4,0.3-0.6,0.7-0.6c0.8,0,1.6,0,2.5,0c0.4,0,0.7,0.3,0.7,0.7
		c0,1,0,2.1,0,3.1c0,0.2,0,0.3-0.2,0.4c-0.2,0.1-0.5,0-0.5-0.3c0-0.1,0-0.2,0-0.3c0-0.6,0-1.2,0-1.8c0-0.1,0-0.2-0.1-0.3
		c-0.1,0.1-0.1,0.2-0.1,0.3c0,2,0,3.9,0,5.9c0,0.1,0,0.2,0,0.3C97-9,96.8-8.9,96.6-8.9c-0.3,0-0.4-0.2-0.4-0.5c0-1.2,0-2.3,0-3.5
		c0-0.1,0.1-0.2-0.1-0.2C96-13,96-12.9,96-12.8c0,0.1,0,0.1,0,0.2c0,1,0,2.1,0,3.1c0,0.1,0,0.3,0,0.4c0,0.2-0.2,0.4-0.4,0.4
		c-0.2,0-0.4-0.1-0.4-0.3c0-0.1,0-0.2,0-0.4c0-2,0-4,0-5.9C95.1-15.6,95-15.7,94.9-15.8z"/>
	<path class="st13" d="M90-15.8c-0.1,0.1-0.1,0.2-0.1,0.3c0,2,0,3.9,0,5.9c0,0.1,0,0.2,0,0.3c-0.1,0.3-0.2,0.4-0.5,0.4
		c-0.3,0-0.4-0.2-0.4-0.5c0-1.2,0-2.3,0-3.5c0-0.1,0-0.2-0.1-0.2c-0.1,0-0.1,0.1-0.1,0.2c0,0.1,0,0.1,0,0.2c0,1,0,2.1,0,3.1
		c0,0.1,0,0.2,0,0.4c0,0.2-0.2,0.4-0.4,0.4c-0.2,0-0.4-0.1-0.4-0.4c0-0.1,0-0.2,0-0.3c0-2,0-4,0-5.9c0-0.1,0-0.2-0.1-0.3
		c-0.1,0.1-0.1,0.2-0.1,0.3c0,0.7,0,1.3,0,2c0,0.3-0.1,0.4-0.3,0.4c-0.2,0-0.4-0.1-0.4-0.4c0-0.8,0-1.7,0-2.5c0-0.2,0-0.5,0-0.7
		c0.1-0.4,0.3-0.6,0.7-0.6c0.8,0,1.7,0,2.5,0c0.4,0,0.7,0.3,0.7,0.6c0,1.1,0,2.1,0,3.2c0,0.3-0.1,0.4-0.4,0.4
		c-0.2,0-0.3-0.1-0.3-0.4c0-0.3,0-0.6,0-0.9c0-0.4,0-0.8,0-1.2C90.1-15.6,90.1-15.7,90-15.8z"/>
	<path class="st13" d="M88.9-19.1c0.4,0,0.7,0.3,0.7,0.7c0,0.4-0.3,0.7-0.7,0.7c-0.4,0-0.7-0.3-0.7-0.7
		C88.2-18.7,88.5-19.1,88.9-19.1z"/>
	<path class="st13" d="M95.3-18.3c0-0.4,0.3-0.7,0.7-0.7c0.4,0,0.7,0.3,0.7,0.7c0,0.4-0.3,0.7-0.7,0.7
		C95.7-17.6,95.3-17.9,95.3-18.3z"/>
	<path class="st13" d="M114.8-26.7c0,0.1,0.1,0,0.1,0.1c0.3,0.1,0.5,0.5,0.5,0.8c-0.1,0.4-0.3,0.6-0.7,0.6c-0.4,0-0.7-0.2-0.7-0.6
		c-0.1-0.3,0.1-0.7,0.4-0.8c0,0,0.1,0,0.1-0.1C114.6-26.7,114.7-26.7,114.8-26.7z"/>
	<path class="st13" d="M107.6-26.7c0.1,0.1,0.2,0,0.2,0.1c0.3,0.1,0.5,0.5,0.4,0.8c-0.1,0.4-0.4,0.6-0.7,0.6c-0.3,0-0.6-0.2-0.7-0.6
		c-0.1-0.3,0.1-0.7,0.4-0.8c0.1,0,0.1,0,0.2-0.1C107.5-26.7,107.5-26.7,107.6-26.7z"/>
	<path class="st14" d="M179.3,42.2c-0.1,0,0-0.1,0-0.1c0-0.8,0-1.7,0-2.5c0-0.1,0-0.1,0-0.1C179.3,40.4,179.3,41.3,179.3,42.2z"/>
	<path class="st14" d="M179.3,42.6C179.3,42.6,179.3,42.6,179.3,42.6C179.3,42.6,179.3,42.6,179.3,42.6z"/>
	<path class="st13" d="M106.4-23.4c-0.1,0.1-0.1,0.2-0.1,0.3c0,0.7,0,1.4,0,2c0,0.3-0.2,0.5-0.5,0.4c-0.2-0.1-0.2-0.2-0.2-0.4
		c0-1,0-2.1,0-3.1c0-0.5,0.3-0.7,0.7-0.8c0.8,0,1.6,0,2.5,0c0.4,0,0.7,0.3,0.7,0.7c0,1,0,2.1,0,3.1c0,0.4-0.2,0.5-0.5,0.4
		c-0.2,0-0.3-0.2-0.3-0.4c0-0.4,0-0.9,0-1.3c0-0.3,0-0.5,0-0.8c0-0.1,0-0.2-0.1-0.3c-0.1,0.1-0.1,0.2-0.1,0.3c0,2,0,4,0,5.9
		c0,0.1,0,0.2,0,0.3c-0.1,0.3-0.3,0.5-0.6,0.4c-0.2,0-0.3-0.2-0.3-0.4c0-0.2,0-0.5,0-0.7c0-0.9,0-1.9,0-2.8c0,0,0-0.1,0-0.1
		c0,0,0-0.1,0-0.1c-0.1,0-0.1,0-0.1,0.1c0,0.1,0,0.2,0,0.2c0,1,0,2,0,3.1c0,0.1,0,0.3,0,0.4c0,0.2-0.2,0.4-0.4,0.4
		c-0.2,0-0.4-0.1-0.4-0.4c0-0.1,0-0.2,0-0.3c0-2,0-4,0-5.9C106.5-23.2,106.5-23.3,106.4-23.4z"/>
	<path class="st13" d="M113.5-23.4c-0.1,0.1-0.1,0.2-0.1,0.3c0,0.6,0,1.2,0,1.8c0,0.1,0,0.2,0,0.2c0,0.3-0.1,0.5-0.4,0.5
		c-0.2,0-0.4-0.2-0.4-0.5c0-1,0-1.9,0-2.9c0-0.6,0.2-0.8,0.8-0.9c0.8,0,1.6,0,2.4,0c0.4,0,0.7,0.3,0.7,0.7c0,1,0,2.1,0,3.1
		c0,0.4-0.2,0.5-0.5,0.4c-0.2,0-0.2-0.2-0.2-0.3c0-0.1,0-0.2,0-0.2c0-0.6,0-1.2,0-1.9c0-0.1,0-0.2-0.1-0.3c-0.1,0.1-0.1,0.2-0.1,0.3
		c0,2,0,3.9,0,5.9c0,0.1,0,0.2,0,0.3c-0.1,0.3-0.3,0.5-0.6,0.4c-0.2,0-0.3-0.2-0.3-0.4c0-0.3,0-0.5,0-0.8c0-0.9,0-1.8,0-2.7
		c0-0.1,0-0.2-0.1-0.2c-0.1,0-0.1,0.1-0.1,0.2c0,0.1,0,0.1,0,0.2c0,1,0,2,0,3.1c0,0.1,0,0.3,0,0.4c0,0.2-0.2,0.4-0.4,0.4
		c-0.2,0-0.4-0.1-0.4-0.4c0-0.1,0-0.2,0-0.4c0-2,0-3.9,0-5.9C113.7-23.2,113.6-23.3,113.5-23.4z"/>
	<path class="st13" d="M161.2,28c-0.1,0.1-0.1,0.2-0.1,0.3c0,2,0,3.9,0,5.9c0,0.1,0,0.2,0,0.3c-0.1,0.3-0.2,0.4-0.5,0.4
		c-0.3,0-0.4-0.2-0.4-0.5c0-1.2,0-2.3,0-3.5c0-0.1,0-0.2-0.1-0.2c-0.1,0-0.1,0.1-0.1,0.2c0,0.1,0,0.1,0,0.2c0,1,0,2.1,0,3.1
		c0,0.1,0,0.2,0,0.4c0,0.2-0.2,0.4-0.4,0.4c-0.2,0-0.4-0.1-0.4-0.4c0-0.1,0-0.2,0-0.3c0-2,0-4,0-5.9c0-0.1,0-0.2-0.1-0.3
		c-0.1,0.1-0.1,0.2-0.1,0.3c0,0.7,0,1.3,0,2c0,0.3-0.1,0.4-0.3,0.4c-0.2,0-0.4-0.1-0.4-0.4c0-0.8,0-1.7,0-2.5c0-0.2,0-0.5,0-0.7
		c0.1-0.4,0.3-0.6,0.7-0.6c0.8,0,1.7,0,2.5,0c0.4,0,0.7,0.3,0.7,0.6c0,1.1,0,2.1,0,3.2c0,0.3-0.1,0.4-0.4,0.4
		c-0.2,0-0.3-0.1-0.3-0.4c0-0.3,0-0.6,0-0.9c0-0.4,0-0.8,0-1.2C161.3,28.2,161.3,28.1,161.2,28z"/>
	<path class="st13" d="M160.1,24.7c0.4,0,0.7,0.3,0.7,0.7c0,0.4-0.3,0.7-0.7,0.7c-0.4,0-0.7-0.3-0.7-0.7
		C159.3,25.1,159.6,24.7,160.1,24.7z"/>
	<g>
		<g>
			<path class="st13" d="M157.9,42.2c-0.1,0.1-0.1,0.2-0.3,0.2c-0.2,0-0.4-0.1-0.4-0.3c0-0.1,0-0.2,0-0.3c0-0.6,0-1.2,0-1.8
				c0-0.1,0-0.2-0.1-0.3c-0.1,0.1-0.1,0.2-0.1,0.3c0,2,0,3.9,0,5.9c0,0.1,0,0.2,0,0.3c0,0.3-0.3,0.5-0.6,0.4c-0.1,0-0.2-0.1-0.3-0.3
				c0-0.1,0-0.2,0-0.3c0-1.1,0-2.2,0-3.3c0,0,0-0.1,0-0.1c0,0,0-0.1-0.1-0.1c0,0-0.1,0-0.1,0c-0.1,0.1-0.1,0.2-0.1,0.3
				c0,1.1,0,2.1,0,3.2c0,0.1,0,0.2,0,0.3c0,0.3-0.2,0.4-0.5,0.4c-0.2,0-0.4-0.2-0.4-0.4c0-0.1,0-0.2,0-0.3c0-2,0-4,0-5.9
				c0-0.1,0-0.2-0.1-0.3c-0.1,0.1-0.1,0.2-0.1,0.3c0,0.7,0,1.3,0,2c0,0.3-0.2,0.5-0.5,0.4c-0.1,0-0.2-0.1-0.2-0.3c0-0.1,0-0.1,0-0.2
				c0-0.9,0-1.9,0-2.8c0-0.1,0-0.2,0-0.2c0-0.4,0.3-0.6,0.7-0.7c0.5,0,0.9,0,1.4,0c0.3,0,0.6,0,0.9,0c0.5,0,0.8,0.1,0.9,0.6
				c0,0,0,0,0,0.1c-0.1,0,0,0.1,0,0.1c0,0.8,0,1.7,0,2.5c0,0.1,0,0.1,0,0.1c0,0.1,0,0.2,0,0.4c0,0,0,0,0,0.1
				C157.9,42.2,157.9,42.2,157.9,42.2z"/>
			<path class="st13" d="M148.7,36.4c0,0.1,0.1,0,0.1,0.1c0.3,0.1,0.5,0.5,0.5,0.8c-0.1,0.4-0.3,0.6-0.7,0.6c-0.4,0-0.7-0.2-0.7-0.6
				c-0.1-0.3,0.1-0.7,0.4-0.8c0,0,0.1,0,0.1-0.1C148.6,36.4,148.7,36.4,148.7,36.4z"/>
			<path class="st13" d="M141.6,36.4c0.1,0.1,0.2,0,0.2,0.1c0.3,0.1,0.5,0.5,0.4,0.8c-0.1,0.4-0.4,0.6-0.7,0.6
				c-0.3,0-0.6-0.2-0.7-0.6c-0.1-0.3,0.1-0.7,0.4-0.8c0.1,0,0.1,0,0.2-0.1C141.4,36.4,141.5,36.4,141.6,36.4z"/>
			<path class="st13" d="M156,36.4c0.1,0,0.2,0,0.2,0.1c0.3,0.1,0.5,0.5,0.4,0.9c-0.1,0.3-0.4,0.5-0.7,0.5c-0.4,0-0.6-0.3-0.7-0.6
				c-0.1-0.3,0.1-0.7,0.4-0.8c0.1,0,0.1,0,0.2-0.1C155.9,36.4,156,36.4,156,36.4z"/>
			<path class="st13" d="M157.9,41.7c-0.1,0,0-0.1,0-0.1c0-0.8,0-1.7,0-2.5c0-0.1,0-0.1,0-0.1C157.9,39.8,157.9,40.8,157.9,41.7z"/>
			<path class="st13" d="M157.9,42.1C157.9,42.1,157.9,42.1,157.9,42.1C157.9,42.1,157.9,42.1,157.9,42.1z"/>
			<path class="st13" d="M140.4,39.7c-0.1,0.1-0.1,0.2-0.1,0.3c0,0.7,0,1.4,0,2c0,0.3-0.2,0.5-0.5,0.4c-0.2-0.1-0.2-0.2-0.2-0.4
				c0-1,0-2.1,0-3.1c0-0.5,0.3-0.7,0.7-0.8c0.8,0,1.6,0,2.5,0c0.4,0,0.7,0.3,0.7,0.7c0,1,0,2.1,0,3.1c0,0.4-0.2,0.5-0.5,0.4
				c-0.2,0-0.3-0.2-0.3-0.4c0-0.4,0-0.9,0-1.3c0-0.3,0-0.5,0-0.8c0-0.1,0-0.2-0.1-0.3c-0.1,0.1-0.1,0.2-0.1,0.3c0,2,0,4,0,5.9
				c0,0.1,0,0.2,0,0.3c-0.1,0.3-0.3,0.5-0.6,0.4c-0.2,0-0.3-0.2-0.3-0.4c0-0.2,0-0.5,0-0.7c0-0.9,0-1.9,0-2.8c0,0,0-0.1,0-0.1
				c0,0,0-0.1,0-0.1c-0.1,0-0.1,0-0.1,0.1c0,0.1,0,0.2,0,0.2c0,1,0,2,0,3.1c0,0.1,0,0.3,0,0.4c0,0.2-0.2,0.4-0.4,0.4
				c-0.2,0-0.4-0.1-0.4-0.4c0-0.1,0-0.2,0-0.3c0-2,0-4,0-5.9C140.5,39.9,140.4,39.8,140.4,39.7z"/>
			<path class="st13" d="M147.5,39.8c-0.1,0.1-0.1,0.2-0.1,0.3c0,0.6,0,1.2,0,1.8c0,0.1,0,0.2,0,0.2c0,0.3-0.1,0.5-0.4,0.5
				c-0.2,0-0.4-0.2-0.4-0.5c0-1,0-1.9,0-2.9c0-0.6,0.2-0.8,0.8-0.9c0.8,0,1.6,0,2.4,0c0.4,0,0.7,0.3,0.7,0.7c0,1,0,2.1,0,3.1
				c0,0.4-0.2,0.5-0.5,0.4c-0.2,0-0.2-0.2-0.2-0.3c0-0.1,0-0.2,0-0.2c0-0.6,0-1.2,0-1.9c0-0.1,0-0.2-0.1-0.3
				c-0.1,0.1-0.1,0.2-0.1,0.3c0,2,0,3.9,0,5.9c0,0.1,0,0.2,0,0.3c-0.1,0.3-0.3,0.5-0.6,0.4c-0.2,0-0.3-0.2-0.3-0.4
				c0-0.3,0-0.5,0-0.8c0-0.9,0-1.8,0-2.7c0-0.1,0-0.2-0.1-0.2c-0.1,0-0.1,0.1-0.1,0.2c0,0.1,0,0.1,0,0.2c0,1,0,2,0,3.1
				c0,0.1,0,0.3,0,0.4c0,0.2-0.2,0.4-0.4,0.4c-0.2,0-0.4-0.1-0.4-0.4c0-0.1,0-0.2,0-0.4c0-2,0-3.9,0-5.9
				C147.6,39.9,147.6,39.8,147.5,39.8z"/>
			<path class="st13" d="M151.1,47.6c-0.1,0.1-0.1,0.2-0.1,0.3c0,0.7,0,1.3,0,2c0,0.2-0.1,0.4-0.3,0.4c-0.3,0.1-0.5-0.1-0.5-0.4
				c0-0.3,0-0.6,0-0.9c0-0.7,0-1.3,0-2c0-0.1,0-0.2,0-0.3c0.1-0.4,0.3-0.6,0.7-0.6c0.8,0,1.6,0,2.5,0c0.4,0,0.7,0.3,0.7,0.7
				c0,1,0,2.1,0,3.1c0,0.2,0,0.3-0.2,0.4c-0.2,0.1-0.5,0-0.5-0.3c0-0.1,0-0.2,0-0.3c0-0.6,0-1.2,0-1.8c0-0.1,0-0.2-0.1-0.3
				c-0.1,0.1-0.1,0.2-0.1,0.3c0,2,0,3.9,0,5.9c0,0.1,0,0.2,0,0.3c-0.1,0.3-0.2,0.4-0.5,0.4c-0.3,0-0.4-0.2-0.4-0.5
				c0-1.2,0-2.3,0-3.5c0-0.1,0.1-0.2-0.1-0.2c-0.1,0-0.1,0.1-0.1,0.2c0,0.1,0,0.1,0,0.2c0,1,0,2.1,0,3.1c0,0.1,0,0.3,0,0.4
				c0,0.2-0.2,0.4-0.4,0.4c-0.2,0-0.4-0.1-0.4-0.3c0-0.1,0-0.2,0-0.4c0-2,0-4,0-5.9C151.2,47.8,151.2,47.7,151.1,47.6z"/>
			<path class="st13" d="M146.2,47.6c-0.1,0.1-0.1,0.2-0.1,0.3c0,2,0,3.9,0,5.9c0,0.1,0,0.2,0,0.3c-0.1,0.3-0.2,0.4-0.5,0.4
				c-0.3,0-0.4-0.2-0.4-0.5c0-1.2,0-2.3,0-3.5c0-0.1,0-0.2-0.1-0.2c-0.1,0-0.1,0.1-0.1,0.2c0,0.1,0,0.1,0,0.2c0,1,0,2.1,0,3.1
				c0,0.1,0,0.2,0,0.4c0,0.2-0.2,0.4-0.4,0.4c-0.2,0-0.4-0.1-0.4-0.4c0-0.1,0-0.2,0-0.3c0-2,0-4,0-5.9c0-0.1,0-0.2-0.1-0.3
				c-0.1,0.1-0.1,0.2-0.1,0.3c0,0.7,0,1.3,0,2c0,0.3-0.1,0.4-0.3,0.4c-0.2,0-0.4-0.1-0.4-0.4c0-0.8,0-1.7,0-2.5c0-0.2,0-0.5,0-0.7
				c0.1-0.4,0.3-0.6,0.7-0.6c0.8,0,1.7,0,2.5,0c0.4,0,0.7,0.3,0.7,0.6c0,1.1,0,2.1,0,3.2c0,0.3-0.1,0.4-0.4,0.4
				c-0.2,0-0.3-0.1-0.3-0.4c0-0.3,0-0.6,0-0.9c0-0.4,0-0.8,0-1.2C146.3,47.8,146.3,47.7,146.2,47.6z"/>
			<path class="st13" d="M145.1,44.4c0.4,0,0.7,0.3,0.7,0.7c0,0.4-0.3,0.7-0.7,0.7c-0.4,0-0.7-0.3-0.7-0.7
				C144.3,44.7,144.7,44.4,145.1,44.4z"/>
			<path class="st13" d="M151.5,45.1c0-0.4,0.3-0.7,0.7-0.7c0.4,0,0.7,0.3,0.7,0.7c0,0.4-0.3,0.7-0.7,0.7
				C151.8,45.8,151.5,45.5,151.5,45.1z"/>
		</g>
		<g>
			<path class="st13" d="M180.1,42.6c-0.1,0.1-0.1,0.2-0.3,0.2c-0.2,0-0.4-0.1-0.4-0.3c0-0.1,0-0.2,0-0.3c0-0.6,0-1.2,0-1.8
				c0-0.1,0-0.2-0.1-0.3c-0.1,0.1-0.1,0.2-0.1,0.3c0,2,0,3.9,0,5.9c0,0.1,0,0.2,0,0.3c0,0.3-0.3,0.5-0.6,0.4c-0.1,0-0.2-0.1-0.3-0.3
				c0-0.1,0-0.2,0-0.3c0-1.1,0-2.2,0-3.3c0,0,0-0.1,0-0.1c0,0,0-0.1-0.1-0.1c0,0-0.1,0-0.1,0c-0.1,0.1-0.1,0.2-0.1,0.3
				c0,1.1,0,2.1,0,3.2c0,0.1,0,0.2,0,0.3c0,0.3-0.2,0.4-0.5,0.4c-0.2,0-0.4-0.2-0.4-0.4c0-0.1,0-0.2,0-0.3c0-2,0-4,0-5.9
				c0-0.1,0-0.2-0.1-0.3c-0.1,0.1-0.1,0.2-0.1,0.3c0,0.7,0,1.3,0,2c0,0.3-0.2,0.5-0.5,0.4c-0.1,0-0.2-0.1-0.2-0.3c0-0.1,0-0.1,0-0.2
				c0-0.9,0-1.9,0-2.8c0-0.1,0-0.2,0-0.2c0-0.4,0.3-0.6,0.7-0.7c0.5,0,0.9,0,1.4,0c0.3,0,0.6,0,0.9,0c0.5,0,0.8,0.1,0.9,0.6
				c0,0,0,0,0,0.1c-0.1,0,0,0.1,0,0.1c0,0.8,0,1.7,0,2.5c0,0.1,0,0.1,0,0.1c0,0.1,0,0.2,0,0.4c0,0,0,0,0,0.1
				C180.1,42.5,180.1,42.5,180.1,42.6z"/>
			<path class="st13" d="M170.9,36.8c0,0.1,0.1,0,0.1,0.1c0.3,0.1,0.5,0.5,0.5,0.8c-0.1,0.4-0.3,0.6-0.7,0.6c-0.4,0-0.7-0.2-0.7-0.6
				c-0.1-0.3,0.1-0.7,0.4-0.8c0,0,0.1,0,0.1-0.1C170.7,36.8,170.8,36.8,170.9,36.8z"/>
			<path class="st13" d="M163.8,36.8c0.1,0.1,0.2,0,0.2,0.1c0.3,0.1,0.5,0.5,0.4,0.8c-0.1,0.4-0.4,0.6-0.7,0.6
				c-0.3,0-0.6-0.2-0.7-0.6c-0.1-0.3,0.1-0.7,0.4-0.8c0.1,0,0.1,0,0.2-0.1C163.6,36.8,163.7,36.8,163.8,36.8z"/>
			<path class="st13" d="M178.2,36.8c0.1,0,0.2,0,0.2,0.1c0.3,0.1,0.5,0.5,0.4,0.9c-0.1,0.3-0.4,0.5-0.7,0.5c-0.4,0-0.6-0.3-0.7-0.6
				c-0.1-0.3,0.1-0.7,0.4-0.8c0.1,0,0.1,0,0.2-0.1C178.1,36.8,178.1,36.8,178.2,36.8z"/>
			<path class="st13" d="M180.1,42c-0.1,0,0-0.1,0-0.1c0-0.8,0-1.7,0-2.5c0-0.1,0-0.1,0-0.1C180.1,40.2,180.1,41.1,180.1,42z"/>
			<path class="st13" d="M180.1,42.5C180,42.4,180,42.4,180.1,42.5C180.1,42.4,180.1,42.4,180.1,42.5z"/>
			<path class="st13" d="M162.6,40.1c-0.1,0.1-0.1,0.2-0.1,0.3c0,0.7,0,1.4,0,2c0,0.3-0.2,0.5-0.5,0.4c-0.2-0.1-0.2-0.2-0.2-0.4
				c0-1,0-2.1,0-3.1c0-0.5,0.3-0.7,0.7-0.8c0.8,0,1.6,0,2.5,0c0.4,0,0.7,0.3,0.7,0.7c0,1,0,2.1,0,3.1c0,0.4-0.2,0.5-0.5,0.4
				c-0.2,0-0.3-0.2-0.3-0.4c0-0.4,0-0.9,0-1.3c0-0.3,0-0.5,0-0.8c0-0.1,0-0.2-0.1-0.3c-0.1,0.1-0.1,0.2-0.1,0.3c0,2,0,4,0,5.9
				c0,0.1,0,0.2,0,0.3c-0.1,0.3-0.3,0.5-0.6,0.4c-0.2,0-0.3-0.2-0.3-0.4c0-0.2,0-0.5,0-0.7c0-0.9,0-1.9,0-2.8c0,0,0-0.1,0-0.1
				c0,0,0-0.1,0-0.1c-0.1,0-0.1,0-0.1,0.1c0,0.1,0,0.2,0,0.2c0,1,0,2,0,3.1c0,0.1,0,0.3,0,0.4c0,0.2-0.2,0.4-0.4,0.4
				c-0.2,0-0.4-0.1-0.4-0.4c0-0.1,0-0.2,0-0.3c0-2,0-4,0-5.9C162.7,40.2,162.6,40.2,162.6,40.1z"/>
			<path class="st13" d="M169.7,40.1c-0.1,0.1-0.1,0.2-0.1,0.3c0,0.6,0,1.2,0,1.8c0,0.1,0,0.2,0,0.2c0,0.3-0.1,0.5-0.4,0.5
				c-0.2,0-0.4-0.2-0.4-0.5c0-1,0-1.9,0-2.9c0-0.6,0.2-0.8,0.8-0.9c0.8,0,1.6,0,2.4,0c0.4,0,0.7,0.3,0.7,0.7c0,1,0,2.1,0,3.1
				c0,0.4-0.2,0.5-0.5,0.4c-0.2,0-0.2-0.2-0.2-0.3c0-0.1,0-0.2,0-0.2c0-0.6,0-1.2,0-1.9c0-0.1,0-0.2-0.1-0.3
				c-0.1,0.1-0.1,0.2-0.1,0.3c0,2,0,3.9,0,5.9c0,0.1,0,0.2,0,0.3c-0.1,0.3-0.3,0.5-0.6,0.4c-0.2,0-0.3-0.2-0.3-0.4
				c0-0.3,0-0.5,0-0.8c0-0.9,0-1.8,0-2.7c0-0.1,0-0.2-0.1-0.2c-0.1,0-0.1,0.1-0.1,0.2c0,0.1,0,0.1,0,0.2c0,1,0,2,0,3.1
				c0,0.1,0,0.3,0,0.4c0,0.2-0.2,0.4-0.4,0.4c-0.2,0-0.4-0.1-0.4-0.4c0-0.1,0-0.2,0-0.4c0-2,0-3.9,0-5.9
				C169.8,40.2,169.8,40.2,169.7,40.1z"/>
			<path class="st15" d="M173.3,48c-0.1,0.1-0.1,0.2-0.1,0.3c0,0.7,0,1.3,0,2c0,0.2-0.1,0.4-0.3,0.4c-0.3,0.1-0.5-0.1-0.5-0.4
				c0-0.3,0-0.6,0-0.9c0-0.7,0-1.3,0-2c0-0.1,0-0.2,0-0.3c0.1-0.4,0.3-0.6,0.7-0.6c0.8,0,1.6,0,2.5,0c0.4,0,0.7,0.3,0.7,0.7
				c0,1,0,2.1,0,3.1c0,0.2,0,0.3-0.2,0.4c-0.2,0.1-0.5,0-0.5-0.3c0-0.1,0-0.2,0-0.3c0-0.6,0-1.2,0-1.8c0-0.1,0-0.2-0.1-0.3
				c-0.1,0.1-0.1,0.2-0.1,0.3c0,2,0,3.9,0,5.9c0,0.1,0,0.2,0,0.3c-0.1,0.3-0.2,0.4-0.5,0.4c-0.3,0-0.4-0.2-0.4-0.5
				c0-1.2,0-2.3,0-3.5c0-0.1,0.1-0.2-0.1-0.2c-0.1,0-0.1,0.1-0.1,0.2c0,0.1,0,0.1,0,0.2c0,1,0,2.1,0,3.1c0,0.1,0,0.3,0,0.4
				c0,0.2-0.2,0.4-0.4,0.4c-0.2,0-0.4-0.1-0.4-0.3c0-0.1,0-0.2,0-0.4c0-2,0-4,0-5.9C173.4,48.1,173.3,48.1,173.3,48z"/>
			<path class="st15" d="M168.4,48c-0.1,0.1-0.1,0.2-0.1,0.3c0,2,0,3.9,0,5.9c0,0.1,0,0.2,0,0.3c-0.1,0.3-0.2,0.4-0.5,0.4
				c-0.3,0-0.4-0.2-0.4-0.5c0-1.2,0-2.3,0-3.5c0-0.1,0-0.2-0.1-0.2c-0.1,0-0.1,0.1-0.1,0.2c0,0.1,0,0.1,0,0.2c0,1,0,2.1,0,3.1
				c0,0.1,0,0.2,0,0.4c0,0.2-0.2,0.4-0.4,0.4c-0.2,0-0.4-0.1-0.4-0.4c0-0.1,0-0.2,0-0.3c0-2,0-4,0-5.9c0-0.1,0-0.2-0.1-0.3
				c-0.1,0.1-0.1,0.2-0.1,0.3c0,0.7,0,1.3,0,2c0,0.3-0.1,0.4-0.3,0.4c-0.2,0-0.4-0.1-0.4-0.4c0-0.8,0-1.7,0-2.5c0-0.2,0-0.5,0-0.7
				c0.1-0.4,0.3-0.6,0.7-0.6c0.8,0,1.7,0,2.5,0c0.4,0,0.7,0.3,0.7,0.6c0,1.1,0,2.1,0,3.2c0,0.3-0.1,0.4-0.4,0.4
				c-0.2,0-0.3-0.1-0.3-0.4c0-0.3,0-0.6,0-0.9c0-0.4,0-0.8,0-1.2C168.5,48.2,168.5,48.1,168.4,48z"/>
			<path class="st15" d="M167.2,44.7c0.4,0,0.7,0.3,0.7,0.7c0,0.4-0.3,0.7-0.7,0.7c-0.4,0-0.7-0.3-0.7-0.7
				C166.5,45,166.8,44.7,167.2,44.7z"/>
			<path class="st15" d="M173.6,45.4c0-0.4,0.3-0.7,0.7-0.7c0.4,0,0.7,0.3,0.7,0.7c0,0.4-0.3,0.7-0.7,0.7
				C174,46.1,173.6,45.8,173.6,45.4z"/>
		</g>
	</g>
	<path class="st15" d="M161,48.5c-0.1,0.1-0.1,0.2-0.1,0.3c0,2,0,3.9,0,5.9c0,0.1,0,0.2,0,0.3c-0.1,0.3-0.2,0.4-0.5,0.4
		c-0.3,0-0.4-0.2-0.4-0.5c0-1.2,0-2.3,0-3.5c0-0.1,0-0.2-0.1-0.2c-0.1,0-0.1,0.1-0.1,0.2c0,0.1,0,0.1,0,0.2c0,1,0,2.1,0,3.1
		c0,0.1,0,0.2,0,0.4c0,0.2-0.2,0.4-0.4,0.4c-0.2,0-0.4-0.1-0.4-0.4c0-0.1,0-0.2,0-0.3c0-2,0-4,0-5.9c0-0.1,0-0.2-0.1-0.3
		c-0.1,0.1-0.1,0.2-0.1,0.3c0,0.7,0,1.3,0,2c0,0.3-0.1,0.4-0.3,0.4c-0.2,0-0.4-0.1-0.4-0.4c0-0.8,0-1.7,0-2.5c0-0.2,0-0.5,0-0.7
		c0.1-0.4,0.3-0.6,0.7-0.6c0.8,0,1.7,0,2.5,0c0.4,0,0.7,0.3,0.7,0.6c0,1.1,0,2.1,0,3.2c0,0.3-0.1,0.4-0.4,0.4
		c-0.2,0-0.3-0.1-0.3-0.4c0-0.3,0-0.6,0-0.9c0-0.4,0-0.8,0-1.2C161,48.7,161,48.6,161,48.5z"/>
	<path class="st15" d="M159.8,45.3c0.4,0,0.7,0.3,0.7,0.7c0,0.4-0.3,0.7-0.7,0.7c-0.4,0-0.7-0.3-0.7-0.7
		C159.1,45.6,159.4,45.3,159.8,45.3z"/>
	<path class="st14" d="M179.3,61.2c-0.1,0,0-0.1,0-0.1c0-0.8,0-1.7,0-2.5c0-0.1,0-0.1,0-0.1C179.3,59.4,179.3,60.3,179.3,61.2z"/>
	<path class="st14" d="M179.3,61.7C179.3,61.6,179.3,61.6,179.3,61.7C179.3,61.6,179.3,61.6,179.3,61.7z"/>
	<g>
		<g>
			<path class="st15" d="M157.9,61.3c-0.1,0.1-0.1,0.2-0.3,0.2c-0.2,0-0.4-0.1-0.4-0.3c0-0.1,0-0.2,0-0.3c0-0.6,0-1.2,0-1.8
				c0-0.1,0-0.2-0.1-0.3c-0.1,0.1-0.1,0.2-0.1,0.3c0,2,0,3.9,0,5.9c0,0.1,0,0.2,0,0.3c0,0.3-0.3,0.5-0.6,0.4c-0.1,0-0.2-0.1-0.3-0.3
				c0-0.1,0-0.2,0-0.3c0-1.1,0-2.2,0-3.3c0,0,0-0.1,0-0.1c0,0,0-0.1-0.1-0.1c0,0-0.1,0-0.1,0c-0.1,0.1-0.1,0.2-0.1,0.3
				c0,1.1,0,2.1,0,3.2c0,0.1,0,0.2,0,0.3c0,0.3-0.2,0.4-0.5,0.4c-0.2,0-0.4-0.2-0.4-0.4c0-0.1,0-0.2,0-0.3c0-2,0-4,0-5.9
				c0-0.1,0-0.2-0.1-0.3c-0.1,0.1-0.1,0.2-0.1,0.3c0,0.7,0,1.3,0,2c0,0.3-0.2,0.5-0.5,0.4c-0.1,0-0.2-0.1-0.2-0.3c0-0.1,0-0.1,0-0.2
				c0-0.9,0-1.9,0-2.8c0-0.1,0-0.2,0-0.2c0-0.4,0.3-0.6,0.7-0.7c0.5,0,0.9,0,1.4,0c0.3,0,0.6,0,0.9,0c0.5,0,0.8,0.1,0.9,0.6
				c0,0,0,0,0,0.1c-0.1,0,0,0.1,0,0.1c0,0.8,0,1.7,0,2.5c0,0.1,0,0.1,0,0.1c0,0.1,0,0.2,0,0.4c0,0,0,0,0,0.1
				C157.9,61.2,157.9,61.2,157.9,61.3z"/>
			<path class="st15" d="M148.8,55.5c0,0.1,0.1,0,0.1,0.1c0.3,0.1,0.5,0.5,0.5,0.8c-0.1,0.4-0.3,0.6-0.7,0.6c-0.4,0-0.7-0.2-0.7-0.6
				c-0.1-0.3,0.1-0.7,0.4-0.8c0,0,0.1,0,0.1-0.1C148.6,55.5,148.7,55.5,148.8,55.5z"/>
			<path class="st15" d="M141.6,55.5c0.1,0.1,0.2,0,0.2,0.1c0.3,0.1,0.5,0.5,0.4,0.8c-0.1,0.4-0.4,0.6-0.7,0.6
				c-0.3,0-0.6-0.2-0.7-0.6c-0.1-0.3,0.1-0.7,0.4-0.8c0.1,0,0.1,0,0.2-0.1C141.4,55.5,141.5,55.5,141.6,55.5z"/>
			<path class="st15" d="M156.1,55.5c0.1,0,0.2,0,0.2,0.1c0.3,0.1,0.5,0.5,0.4,0.9c-0.1,0.3-0.4,0.5-0.7,0.5c-0.4,0-0.6-0.3-0.7-0.6
				c-0.1-0.3,0.1-0.7,0.4-0.8c0.1,0,0.1,0,0.2-0.1C155.9,55.5,156,55.5,156.1,55.5z"/>
			<path class="st15" d="M157.9,60.7c-0.1,0,0-0.1,0-0.1c0-0.8,0-1.7,0-2.5c0-0.1,0-0.1,0-0.1C157.9,58.9,157.9,59.8,157.9,60.7z"/>
			<path class="st15" d="M157.9,61.2C157.9,61.1,157.9,61.1,157.9,61.2C157.9,61.1,157.9,61.1,157.9,61.2z"/>
			<path class="st15" d="M140.4,58.8c-0.1,0.1-0.1,0.2-0.1,0.3c0,0.7,0,1.4,0,2c0,0.3-0.2,0.5-0.5,0.4c-0.2-0.1-0.2-0.2-0.2-0.4
				c0-1,0-2.1,0-3.1c0-0.5,0.3-0.7,0.7-0.8c0.8,0,1.6,0,2.5,0c0.4,0,0.7,0.3,0.7,0.7c0,1,0,2.1,0,3.1c0,0.4-0.2,0.5-0.5,0.4
				c-0.2,0-0.3-0.2-0.3-0.4c0-0.4,0-0.9,0-1.3c0-0.3,0-0.5,0-0.8c0-0.1,0-0.2-0.1-0.3c-0.1,0.1-0.1,0.2-0.1,0.3c0,2,0,4,0,5.9
				c0,0.1,0,0.2,0,0.3c-0.1,0.3-0.3,0.5-0.6,0.4c-0.2,0-0.3-0.2-0.3-0.4c0-0.2,0-0.5,0-0.7c0-0.9,0-1.9,0-2.8c0,0,0-0.1,0-0.1
				c0,0,0-0.1,0-0.1c-0.1,0-0.1,0-0.1,0.1c0,0.1,0,0.2,0,0.2c0,1,0,2,0,3.1c0,0.1,0,0.3,0,0.4c0,0.2-0.2,0.4-0.4,0.4
				c-0.2,0-0.4-0.1-0.4-0.4c0-0.1,0-0.2,0-0.3c0-2,0-4,0-5.9C140.5,58.9,140.5,58.9,140.4,58.8z"/>
			<path class="st15" d="M147.5,58.8c-0.1,0.1-0.1,0.2-0.1,0.3c0,0.6,0,1.2,0,1.8c0,0.1,0,0.2,0,0.2c0,0.3-0.1,0.5-0.4,0.5
				c-0.2,0-0.4-0.2-0.4-0.5c0-1,0-1.9,0-2.9c0-0.6,0.2-0.8,0.8-0.9c0.8,0,1.6,0,2.4,0c0.4,0,0.7,0.3,0.7,0.7c0,1,0,2.1,0,3.1
				c0,0.4-0.2,0.5-0.5,0.4c-0.2,0-0.2-0.2-0.2-0.3c0-0.1,0-0.2,0-0.2c0-0.6,0-1.2,0-1.9c0-0.1,0-0.2-0.1-0.3
				c-0.1,0.1-0.1,0.2-0.1,0.3c0,2,0,3.9,0,5.9c0,0.1,0,0.2,0,0.3c-0.1,0.3-0.3,0.5-0.6,0.4c-0.2,0-0.3-0.2-0.3-0.4
				c0-0.3,0-0.5,0-0.8c0-0.9,0-1.8,0-2.7c0-0.1,0-0.2-0.1-0.2c-0.1,0-0.1,0.1-0.1,0.2c0,0.1,0,0.1,0,0.2c0,1,0,2,0,3.1
				c0,0.1,0,0.3,0,0.4c0,0.2-0.2,0.4-0.4,0.4c-0.2,0-0.4-0.1-0.4-0.4c0-0.1,0-0.2,0-0.4c0-2,0-3.9,0-5.9
				C147.6,58.9,147.6,58.9,147.5,58.8z"/>
			<path class="st15" d="M151.1,66.7c-0.1,0.1-0.1,0.2-0.1,0.3c0,0.7,0,1.3,0,2c0,0.2-0.1,0.4-0.3,0.4c-0.3,0.1-0.5-0.1-0.5-0.4
				c0-0.3,0-0.6,0-0.9c0-0.7,0-1.3,0-2c0-0.1,0-0.2,0-0.3c0.1-0.4,0.3-0.6,0.7-0.6c0.8,0,1.6,0,2.5,0c0.4,0,0.7,0.3,0.7,0.7
				c0,1,0,2.1,0,3.1c0,0.2,0,0.3-0.2,0.4c-0.2,0.1-0.5,0-0.5-0.3c0-0.1,0-0.2,0-0.3c0-0.6,0-1.2,0-1.8c0-0.1,0-0.2-0.1-0.3
				c-0.1,0.1-0.1,0.2-0.1,0.3c0,2,0,3.9,0,5.9c0,0.1,0,0.2,0,0.3c-0.1,0.3-0.2,0.4-0.5,0.4c-0.3,0-0.4-0.2-0.4-0.5
				c0-1.2,0-2.3,0-3.5c0-0.1,0.1-0.2-0.1-0.2c-0.1,0-0.1,0.1-0.1,0.2c0,0.1,0,0.1,0,0.2c0,1,0,2.1,0,3.1c0,0.1,0,0.3,0,0.4
				c0,0.2-0.2,0.4-0.4,0.4c-0.2,0-0.4-0.1-0.4-0.3c0-0.1,0-0.2,0-0.4c0-2,0-4,0-5.9C151.2,66.8,151.2,66.8,151.1,66.7z"/>
			<path class="st15" d="M146.2,66.7c-0.1,0.1-0.1,0.2-0.1,0.3c0,2,0,3.9,0,5.9c0,0.1,0,0.2,0,0.3c-0.1,0.3-0.2,0.4-0.5,0.4
				c-0.3,0-0.4-0.2-0.4-0.5c0-1.2,0-2.3,0-3.5c0-0.1,0-0.2-0.1-0.2c-0.1,0-0.1,0.1-0.1,0.2c0,0.1,0,0.1,0,0.2c0,1,0,2.1,0,3.1
				c0,0.1,0,0.2,0,0.4c0,0.2-0.2,0.4-0.4,0.4c-0.2,0-0.4-0.1-0.4-0.4c0-0.1,0-0.2,0-0.3c0-2,0-4,0-5.9c0-0.1,0-0.2-0.1-0.3
				c-0.1,0.1-0.1,0.2-0.1,0.3c0,0.7,0,1.3,0,2c0,0.3-0.1,0.4-0.3,0.4c-0.2,0-0.4-0.1-0.4-0.4c0-0.8,0-1.7,0-2.5c0-0.2,0-0.5,0-0.7
				c0.1-0.4,0.3-0.6,0.7-0.6c0.8,0,1.7,0,2.5,0c0.4,0,0.7,0.3,0.7,0.6c0,1.1,0,2.1,0,3.2c0,0.3-0.1,0.4-0.4,0.4
				c-0.2,0-0.3-0.1-0.3-0.4c0-0.3,0-0.6,0-0.9c0-0.4,0-0.8,0-1.2C146.3,66.9,146.3,66.8,146.2,66.7z"/>
			<path class="st15" d="M145.1,63.4c0.4,0,0.7,0.3,0.7,0.7c0,0.4-0.3,0.7-0.7,0.7c-0.4,0-0.7-0.3-0.7-0.7
				C144.4,63.7,144.7,63.4,145.1,63.4z"/>
			<path class="st15" d="M151.5,64.1c0-0.4,0.3-0.7,0.7-0.7c0.4,0,0.7,0.3,0.7,0.7c0,0.4-0.3,0.7-0.7,0.7
				C151.8,64.8,151.5,64.5,151.5,64.1z"/>
		</g>
		<g>
			<path class="st15" d="M180.1,61.6c-0.1,0.1-0.1,0.2-0.3,0.2c-0.2,0-0.4-0.1-0.4-0.3c0-0.1,0-0.2,0-0.3c0-0.6,0-1.2,0-1.8
				c0-0.1,0-0.2-0.1-0.3c-0.1,0.1-0.1,0.2-0.1,0.3c0,2,0,3.9,0,5.9c0,0.1,0,0.2,0,0.3c0,0.3-0.3,0.5-0.6,0.4c-0.1,0-0.2-0.1-0.3-0.3
				c0-0.1,0-0.2,0-0.3c0-1.1,0-2.2,0-3.3c0,0,0-0.1,0-0.1c0,0,0-0.1-0.1-0.1c0,0-0.1,0-0.1,0c-0.1,0.1-0.1,0.2-0.1,0.3
				c0,1.1,0,2.1,0,3.2c0,0.1,0,0.2,0,0.3c0,0.3-0.2,0.4-0.5,0.4c-0.2,0-0.4-0.2-0.4-0.4c0-0.1,0-0.2,0-0.3c0-2,0-4,0-5.9
				c0-0.1,0-0.2-0.1-0.3c-0.1,0.1-0.1,0.2-0.1,0.3c0,0.7,0,1.3,0,2c0,0.3-0.2,0.5-0.5,0.4c-0.1,0-0.2-0.1-0.2-0.3c0-0.1,0-0.1,0-0.2
				c0-0.9,0-1.9,0-2.8c0-0.1,0-0.2,0-0.2c0-0.4,0.3-0.6,0.7-0.7c0.5,0,0.9,0,1.4,0c0.3,0,0.6,0,0.9,0c0.5,0,0.8,0.1,0.9,0.6
				c0,0,0,0,0,0.1c-0.1,0,0,0.1,0,0.1c0,0.8,0,1.7,0,2.5c0,0.1,0,0.1,0,0.1c0,0.1,0,0.2,0,0.4c0,0,0,0,0,0.1
				C180.1,61.5,180.1,61.5,180.1,61.6z"/>
			<path class="st15" d="M171,55.8c0,0.1,0.1,0,0.1,0.1c0.3,0.1,0.5,0.5,0.5,0.8c-0.1,0.4-0.3,0.6-0.7,0.6c-0.4,0-0.7-0.2-0.7-0.6
				c-0.1-0.3,0.1-0.7,0.4-0.8c0,0,0.1,0,0.1-0.1C170.8,55.8,170.9,55.8,171,55.8z"/>
			<path class="st15" d="M163.8,55.8c0.1,0.1,0.2,0,0.2,0.1c0.3,0.1,0.5,0.5,0.4,0.8c-0.1,0.4-0.4,0.6-0.7,0.6
				c-0.3,0-0.6-0.2-0.7-0.6c-0.1-0.3,0.1-0.7,0.4-0.8c0.1,0,0.1,0,0.2-0.1C163.6,55.8,163.7,55.8,163.8,55.8z"/>
			<path class="st15" d="M178.2,55.8c0.1,0,0.2,0,0.2,0.1c0.3,0.1,0.5,0.5,0.4,0.9c-0.1,0.3-0.4,0.5-0.7,0.5c-0.4,0-0.6-0.3-0.7-0.6
				c-0.1-0.3,0.1-0.7,0.4-0.8c0.1,0,0.1,0,0.2-0.1C178.1,55.8,178.2,55.8,178.2,55.8z"/>
			<path class="st15" d="M180.1,61c-0.1,0,0-0.1,0-0.1c0-0.8,0-1.7,0-2.5c0-0.1,0-0.1,0-0.1C180.1,59.2,180.1,60.1,180.1,61z"/>
			<path class="st15" d="M180.1,61.5C180.1,61.5,180.1,61.4,180.1,61.5C180.1,61.4,180.1,61.5,180.1,61.5z"/>
			<path class="st15" d="M162.6,59.1c-0.1,0.1-0.1,0.2-0.1,0.3c0,0.7,0,1.4,0,2c0,0.3-0.2,0.5-0.5,0.4c-0.2-0.1-0.2-0.2-0.2-0.4
				c0-1,0-2.1,0-3.1c0-0.5,0.3-0.7,0.7-0.8c0.8,0,1.6,0,2.5,0c0.4,0,0.7,0.3,0.7,0.7c0,1,0,2.1,0,3.1c0,0.4-0.2,0.5-0.5,0.4
				c-0.2,0-0.3-0.2-0.3-0.4c0-0.4,0-0.9,0-1.3c0-0.3,0-0.5,0-0.8c0-0.1,0-0.2-0.1-0.3c-0.1,0.1-0.1,0.2-0.1,0.3c0,2,0,4,0,5.9
				c0,0.1,0,0.2,0,0.3c-0.1,0.3-0.3,0.5-0.6,0.4c-0.2,0-0.3-0.2-0.3-0.4c0-0.2,0-0.5,0-0.7c0-0.9,0-1.9,0-2.8c0,0,0-0.1,0-0.1
				c0,0,0-0.1,0-0.1c-0.1,0-0.1,0-0.1,0.1c0,0.1,0,0.2,0,0.2c0,1,0,2,0,3.1c0,0.1,0,0.3,0,0.4c0,0.2-0.2,0.4-0.4,0.4
				c-0.2,0-0.4-0.1-0.4-0.4c0-0.1,0-0.2,0-0.3c0-2,0-4,0-5.9C162.7,59.3,162.7,59.2,162.6,59.1z"/>
			<path class="st15" d="M169.7,59.1c-0.1,0.1-0.1,0.2-0.1,0.3c0,0.6,0,1.2,0,1.8c0,0.1,0,0.2,0,0.2c0,0.3-0.1,0.5-0.4,0.5
				c-0.2,0-0.4-0.2-0.4-0.5c0-1,0-1.9,0-2.9c0-0.6,0.2-0.8,0.8-0.9c0.8,0,1.6,0,2.4,0c0.4,0,0.7,0.3,0.7,0.7c0,1,0,2.1,0,3.1
				c0,0.4-0.2,0.5-0.5,0.4c-0.2,0-0.2-0.2-0.2-0.3c0-0.1,0-0.2,0-0.2c0-0.6,0-1.2,0-1.9c0-0.1,0-0.2-0.1-0.3
				c-0.1,0.1-0.1,0.2-0.1,0.3c0,2,0,3.9,0,5.9c0,0.1,0,0.2,0,0.3c-0.1,0.3-0.3,0.5-0.6,0.4c-0.2,0-0.3-0.2-0.3-0.4
				c0-0.3,0-0.5,0-0.8c0-0.9,0-1.8,0-2.7c0-0.1,0-0.2-0.1-0.2c-0.1,0-0.1,0.1-0.1,0.2c0,0.1,0,0.1,0,0.2c0,1,0,2,0,3.1
				c0,0.1,0,0.3,0,0.4c0,0.2-0.2,0.4-0.4,0.4c-0.2,0-0.4-0.1-0.4-0.4c0-0.1,0-0.2,0-0.4c0-2,0-3.9,0-5.9
				C169.8,59.3,169.8,59.2,169.7,59.1z"/>
			<path class="st15" d="M173.3,67c-0.1,0.1-0.1,0.2-0.1,0.3c0,0.7,0,1.3,0,2c0,0.2-0.1,0.4-0.3,0.4c-0.3,0.1-0.5-0.1-0.5-0.4
				c0-0.3,0-0.6,0-0.9c0-0.7,0-1.3,0-2c0-0.1,0-0.2,0-0.3c0.1-0.4,0.3-0.6,0.7-0.6c0.8,0,1.6,0,2.5,0c0.4,0,0.7,0.3,0.7,0.7
				c0,1,0,2.1,0,3.1c0,0.2,0,0.3-0.2,0.4c-0.2,0.1-0.5,0-0.5-0.3c0-0.1,0-0.2,0-0.3c0-0.6,0-1.2,0-1.8c0-0.1,0-0.2-0.1-0.3
				c-0.1,0.1-0.1,0.2-0.1,0.3c0,2,0,3.9,0,5.9c0,0.1,0,0.2,0,0.3c-0.1,0.3-0.2,0.4-0.5,0.4c-0.3,0-0.4-0.2-0.4-0.5
				c0-1.2,0-2.3,0-3.5c0-0.1,0.1-0.2-0.1-0.2c-0.1,0-0.1,0.1-0.1,0.2c0,0.1,0,0.1,0,0.2c0,1,0,2.1,0,3.1c0,0.1,0,0.3,0,0.4
				c0,0.2-0.2,0.4-0.4,0.4c-0.2,0-0.4-0.1-0.4-0.3c0-0.1,0-0.2,0-0.4c0-2,0-4,0-5.9C173.4,67.2,173.4,67.1,173.3,67z"/>
			<path class="st15" d="M168.4,67c-0.1,0.1-0.1,0.2-0.1,0.3c0,2,0,3.9,0,5.9c0,0.1,0,0.2,0,0.3c-0.1,0.3-0.2,0.4-0.5,0.4
				c-0.3,0-0.4-0.2-0.4-0.5c0-1.2,0-2.3,0-3.5c0-0.1,0-0.2-0.1-0.2c-0.1,0-0.1,0.1-0.1,0.2c0,0.1,0,0.1,0,0.2c0,1,0,2.1,0,3.1
				c0,0.1,0,0.2,0,0.4c0,0.2-0.2,0.4-0.4,0.4c-0.2,0-0.4-0.1-0.4-0.4c0-0.1,0-0.2,0-0.3c0-2,0-4,0-5.9c0-0.1,0-0.2-0.1-0.3
				c-0.1,0.1-0.1,0.2-0.1,0.3c0,0.7,0,1.3,0,2c0,0.3-0.1,0.4-0.3,0.4c-0.2,0-0.4-0.1-0.4-0.4c0-0.8,0-1.7,0-2.5c0-0.2,0-0.5,0-0.7
				c0.1-0.4,0.3-0.6,0.7-0.6c0.8,0,1.7,0,2.5,0c0.4,0,0.7,0.3,0.7,0.6c0,1.1,0,2.1,0,3.2c0,0.3-0.1,0.4-0.4,0.4
				c-0.2,0-0.3-0.1-0.3-0.4c0-0.3,0-0.6,0-0.9c0-0.4,0-0.8,0-1.2C168.5,67.2,168.5,67.1,168.4,67z"/>
			<path class="st15" d="M167.3,63.7c0.4,0,0.7,0.3,0.7,0.7c0,0.4-0.3,0.7-0.7,0.7c-0.4,0-0.7-0.3-0.7-0.7
				C166.5,64,166.9,63.7,167.3,63.7z"/>
			<path class="st15" d="M173.7,64.4c0-0.4,0.3-0.7,0.7-0.7c0.4,0,0.7,0.3,0.7,0.7c0,0.4-0.3,0.7-0.7,0.7
				C174,65.2,173.7,64.8,173.7,64.4z"/>
		</g>
	</g>
	<path class="st15" d="M161,67.6c-0.1,0.1-0.1,0.2-0.1,0.3c0,2,0,3.9,0,5.9c0,0.1,0,0.2,0,0.3c-0.1,0.3-0.2,0.4-0.5,0.4
		c-0.3,0-0.4-0.2-0.4-0.5c0-1.2,0-2.3,0-3.5c0-0.1,0-0.2-0.1-0.2c-0.1,0-0.1,0.1-0.1,0.2c0,0.1,0,0.1,0,0.2c0,1,0,2.1,0,3.1
		c0,0.1,0,0.2,0,0.4c0,0.2-0.2,0.4-0.4,0.4c-0.2,0-0.4-0.1-0.4-0.4c0-0.1,0-0.2,0-0.3c0-2,0-4,0-5.9c0-0.1,0-0.2-0.1-0.3
		c-0.1,0.1-0.1,0.2-0.1,0.3c0,0.7,0,1.3,0,2c0,0.3-0.1,0.4-0.3,0.4c-0.2,0-0.4-0.1-0.4-0.4c0-0.8,0-1.7,0-2.5c0-0.2,0-0.5,0-0.7
		c0.1-0.4,0.3-0.6,0.7-0.6c0.8,0,1.7,0,2.5,0c0.4,0,0.7,0.3,0.7,0.6c0,1.1,0,2.1,0,3.2c0,0.3-0.1,0.4-0.4,0.4
		c-0.2,0-0.3-0.1-0.3-0.4c0-0.3,0-0.6,0-0.9c0-0.4,0-0.8,0-1.2C161.1,67.8,161.1,67.7,161,67.6z"/>
	<path class="st15" d="M159.9,64.3c0.4,0,0.7,0.3,0.7,0.7c0,0.4-0.3,0.7-0.7,0.7c-0.4,0-0.7-0.3-0.7-0.7
		C159.1,64.6,159.5,64.3,159.9,64.3z"/>
	<path class="st16" d="M179.3,80.9c-0.1,0,0-0.1,0-0.1c0-0.8,0-1.7,0-2.5c0-0.1,0-0.1,0-0.1C179.3,79.1,179.3,80,179.3,80.9z"/>
	<path class="st16" d="M179.3,81.4C179.3,81.3,179.3,81.3,179.3,81.4C179.3,81.3,179.3,81.3,179.3,81.4z"/>
	<g>
		<g>
			<path class="st15" d="M157.9,81c-0.1,0.1-0.1,0.2-0.3,0.2c-0.2,0-0.4-0.1-0.4-0.3c0-0.1,0-0.2,0-0.3c0-0.6,0-1.2,0-1.8
				c0-0.1,0-0.2-0.1-0.3c-0.1,0.1-0.1,0.2-0.1,0.3c0,2,0,3.9,0,5.9c0,0.1,0,0.2,0,0.3c0,0.3-0.3,0.5-0.6,0.4c-0.1,0-0.2-0.1-0.3-0.3
				c0-0.1,0-0.2,0-0.3c0-1.1,0-2.2,0-3.3c0,0,0-0.1,0-0.1c0,0,0-0.1-0.1-0.1c0,0-0.1,0-0.1,0c-0.1,0.1-0.1,0.2-0.1,0.3
				c0,1.1,0,2.1,0,3.2c0,0.1,0,0.2,0,0.3c0,0.3-0.2,0.4-0.5,0.4c-0.2,0-0.4-0.2-0.4-0.4c0-0.1,0-0.2,0-0.3c0-2,0-4,0-5.9
				c0-0.1,0-0.2-0.1-0.3c-0.1,0.1-0.1,0.2-0.1,0.3c0,0.7,0,1.3,0,2c0,0.3-0.2,0.5-0.5,0.4c-0.1,0-0.2-0.1-0.2-0.3c0-0.1,0-0.1,0-0.2
				c0-0.9,0-1.9,0-2.8c0-0.1,0-0.2,0-0.2c0-0.4,0.3-0.6,0.7-0.7c0.5,0,0.9,0,1.4,0c0.3,0,0.6,0,0.9,0c0.5,0,0.8,0.1,0.9,0.6
				c0,0,0,0,0,0.1c-0.1,0,0,0.1,0,0.1c0,0.8,0,1.7,0,2.5c0,0.1,0,0.1,0,0.1c0,0.1,0,0.2,0,0.4c0,0,0,0,0,0.1
				C157.9,80.9,157.9,80.9,157.9,81z"/>
			<path class="st15" d="M148.8,75.2c0,0.1,0.1,0,0.1,0.1c0.3,0.1,0.5,0.5,0.5,0.8c-0.1,0.4-0.3,0.6-0.7,0.6c-0.4,0-0.7-0.2-0.7-0.6
				c-0.1-0.3,0.1-0.7,0.4-0.8c0,0,0.1,0,0.1-0.1C148.6,75.2,148.7,75.2,148.8,75.2z"/>
			<path class="st15" d="M141.6,75.2c0.1,0.1,0.2,0,0.2,0.1c0.3,0.1,0.5,0.5,0.4,0.8c-0.1,0.4-0.4,0.6-0.7,0.6
				c-0.3,0-0.6-0.2-0.7-0.6c-0.1-0.3,0.1-0.7,0.4-0.8c0.1,0,0.1,0,0.2-0.1C141.4,75.2,141.5,75.2,141.6,75.2z"/>
			<path class="st15" d="M156,75.2c0.1,0,0.2,0,0.2,0.1c0.3,0.1,0.5,0.5,0.4,0.9c-0.1,0.3-0.4,0.5-0.7,0.5c-0.4,0-0.6-0.3-0.7-0.6
				c-0.1-0.3,0.1-0.7,0.4-0.8c0.1,0,0.1,0,0.2-0.1C155.9,75.2,156,75.2,156,75.2z"/>
			<path class="st15" d="M157.9,80.4c-0.1,0,0-0.1,0-0.1c0-0.8,0-1.7,0-2.5c0-0.1,0-0.1,0-0.1C157.9,78.6,157.9,79.5,157.9,80.4z"/>
			<path class="st15" d="M157.9,80.9C157.9,80.8,157.9,80.8,157.9,80.9C157.9,80.8,157.9,80.8,157.9,80.9z"/>
			<path class="st15" d="M140.4,78.5c-0.1,0.1-0.1,0.2-0.1,0.3c0,0.7,0,1.4,0,2c0,0.3-0.2,0.5-0.5,0.4c-0.2-0.1-0.2-0.2-0.2-0.4
				c0-1,0-2.1,0-3.1c0-0.5,0.3-0.7,0.7-0.8c0.8,0,1.6,0,2.5,0c0.4,0,0.7,0.3,0.7,0.7c0,1,0,2.1,0,3.1c0,0.4-0.2,0.5-0.5,0.4
				c-0.2,0-0.3-0.2-0.3-0.4c0-0.4,0-0.9,0-1.3c0-0.3,0-0.5,0-0.8c0-0.1,0-0.2-0.1-0.3c-0.1,0.1-0.1,0.2-0.1,0.3c0,2,0,4,0,5.9
				c0,0.1,0,0.2,0,0.3c-0.1,0.3-0.3,0.5-0.6,0.4c-0.2,0-0.3-0.2-0.3-0.4c0-0.2,0-0.5,0-0.7c0-0.9,0-1.9,0-2.8c0,0,0-0.1,0-0.1
				c0,0,0-0.1,0-0.1c-0.1,0-0.1,0-0.1,0.1c0,0.1,0,0.2,0,0.2c0,1,0,2,0,3.1c0,0.1,0,0.3,0,0.4c0,0.2-0.2,0.4-0.4,0.4
				c-0.2,0-0.4-0.1-0.4-0.4c0-0.1,0-0.2,0-0.3c0-2,0-4,0-5.9C140.5,78.6,140.5,78.6,140.4,78.5z"/>
			<path class="st15" d="M147.5,78.5c-0.1,0.1-0.1,0.2-0.1,0.3c0,0.6,0,1.2,0,1.8c0,0.1,0,0.2,0,0.2c0,0.3-0.1,0.5-0.4,0.5
				c-0.2,0-0.4-0.2-0.4-0.5c0-1,0-1.9,0-2.9c0-0.6,0.2-0.8,0.8-0.9c0.8,0,1.6,0,2.4,0c0.4,0,0.7,0.3,0.7,0.7c0,1,0,2.1,0,3.1
				c0,0.4-0.2,0.5-0.5,0.4c-0.2,0-0.2-0.2-0.2-0.3c0-0.1,0-0.2,0-0.2c0-0.6,0-1.2,0-1.9c0-0.1,0-0.2-0.1-0.3
				c-0.1,0.1-0.1,0.2-0.1,0.3c0,2,0,3.9,0,5.9c0,0.1,0,0.2,0,0.3c-0.1,0.3-0.3,0.5-0.6,0.4c-0.2,0-0.3-0.2-0.3-0.4
				c0-0.3,0-0.5,0-0.8c0-0.9,0-1.8,0-2.7c0-0.1,0-0.2-0.1-0.2c-0.1,0-0.1,0.1-0.1,0.2c0,0.1,0,0.1,0,0.2c0,1,0,2,0,3.1
				c0,0.1,0,0.3,0,0.4c0,0.2-0.2,0.4-0.4,0.4c-0.2,0-0.4-0.1-0.4-0.4c0-0.1,0-0.2,0-0.4c0-2,0-3.9,0-5.9
				C147.6,78.6,147.6,78.6,147.5,78.5z"/>
			<path class="st15" d="M151.1,86.4c-0.1,0.1-0.1,0.2-0.1,0.3c0,0.7,0,1.3,0,2c0,0.2-0.1,0.4-0.3,0.4c-0.3,0.1-0.5-0.1-0.5-0.4
				c0-0.3,0-0.6,0-0.9c0-0.7,0-1.3,0-2c0-0.1,0-0.2,0-0.3c0.1-0.4,0.3-0.6,0.7-0.6c0.8,0,1.6,0,2.5,0c0.4,0,0.7,0.3,0.7,0.7
				c0,1,0,2.1,0,3.1c0,0.2,0,0.3-0.2,0.4c-0.2,0.1-0.5,0-0.5-0.3c0-0.1,0-0.2,0-0.3c0-0.6,0-1.2,0-1.8c0-0.1,0-0.2-0.1-0.3
				c-0.1,0.1-0.1,0.2-0.1,0.3c0,2,0,3.9,0,5.9c0,0.1,0,0.2,0,0.3c-0.1,0.3-0.2,0.4-0.5,0.4c-0.3,0-0.4-0.2-0.4-0.5
				c0-1.2,0-2.3,0-3.5c0-0.1,0.1-0.2-0.1-0.2c-0.1,0-0.1,0.1-0.1,0.2c0,0.1,0,0.1,0,0.2c0,1,0,2.1,0,3.1c0,0.1,0,0.3,0,0.4
				c0,0.2-0.2,0.4-0.4,0.4c-0.2,0-0.4-0.1-0.4-0.3c0-0.1,0-0.2,0-0.4c0-2,0-4,0-5.9C151.2,86.5,151.2,86.5,151.1,86.4z"/>
			<path class="st15" d="M146.2,86.4c-0.1,0.1-0.1,0.2-0.1,0.3c0,2,0,3.9,0,5.9c0,0.1,0,0.2,0,0.3c-0.1,0.3-0.2,0.4-0.5,0.4
				c-0.3,0-0.4-0.2-0.4-0.5c0-1.2,0-2.3,0-3.5c0-0.1,0-0.2-0.1-0.2c-0.1,0-0.1,0.1-0.1,0.2c0,0.1,0,0.1,0,0.2c0,1,0,2.1,0,3.1
				c0,0.1,0,0.2,0,0.4c0,0.2-0.2,0.4-0.4,0.4c-0.2,0-0.4-0.1-0.4-0.4c0-0.1,0-0.2,0-0.3c0-2,0-4,0-5.9c0-0.1,0-0.2-0.1-0.3
				c-0.1,0.1-0.1,0.2-0.1,0.3c0,0.7,0,1.3,0,2c0,0.3-0.1,0.4-0.3,0.4c-0.2,0-0.4-0.1-0.4-0.4c0-0.8,0-1.7,0-2.5c0-0.2,0-0.5,0-0.7
				c0.1-0.4,0.3-0.6,0.7-0.6c0.8,0,1.7,0,2.5,0c0.4,0,0.7,0.3,0.7,0.6c0,1.1,0,2.1,0,3.2c0,0.3-0.1,0.4-0.4,0.4
				c-0.2,0-0.3-0.1-0.3-0.4c0-0.3,0-0.6,0-0.9c0-0.4,0-0.8,0-1.2C146.3,86.6,146.3,86.5,146.2,86.4z"/>
			<path class="st15" d="M145.1,83.1c0.4,0,0.7,0.3,0.7,0.7c0,0.4-0.3,0.7-0.7,0.7c-0.4,0-0.7-0.3-0.7-0.7
				C144.3,83.4,144.7,83.1,145.1,83.1z"/>
			<path class="st15" d="M151.5,83.8c0-0.4,0.3-0.7,0.7-0.7c0.4,0,0.7,0.3,0.7,0.7c0,0.4-0.3,0.7-0.7,0.7
				C151.8,84.5,151.5,84.2,151.5,83.8z"/>
		</g>
		<g>
			<path class="st16" d="M180.1,81.3c-0.1,0.1-0.1,0.2-0.3,0.2c-0.2,0-0.4-0.1-0.4-0.3c0-0.1,0-0.2,0-0.3c0-0.6,0-1.2,0-1.8
				c0-0.1,0-0.2-0.1-0.3c-0.1,0.1-0.1,0.2-0.1,0.3c0,2,0,3.9,0,5.9c0,0.1,0,0.2,0,0.3c0,0.3-0.3,0.5-0.6,0.4c-0.1,0-0.2-0.1-0.3-0.3
				c0-0.1,0-0.2,0-0.3c0-1.1,0-2.2,0-3.3c0,0,0-0.1,0-0.1c0,0,0-0.1-0.1-0.1c0,0-0.1,0-0.1,0c-0.1,0.1-0.1,0.2-0.1,0.3
				c0,1.1,0,2.1,0,3.2c0,0.1,0,0.2,0,0.3c0,0.3-0.2,0.4-0.5,0.4c-0.2,0-0.4-0.2-0.4-0.4c0-0.1,0-0.2,0-0.3c0-2,0-4,0-5.9
				c0-0.1,0-0.2-0.1-0.3c-0.1,0.1-0.1,0.2-0.1,0.3c0,0.7,0,1.3,0,2c0,0.3-0.2,0.5-0.5,0.4c-0.1,0-0.2-0.1-0.2-0.3c0-0.1,0-0.1,0-0.2
				c0-0.9,0-1.9,0-2.8c0-0.1,0-0.2,0-0.2c0-0.4,0.3-0.6,0.7-0.7c0.5,0,0.9,0,1.4,0c0.3,0,0.6,0,0.9,0c0.5,0,0.8,0.1,0.9,0.6
				c0,0,0,0,0,0.1c-0.1,0,0,0.1,0,0.1c0,0.8,0,1.7,0,2.5c0,0.1,0,0.1,0,0.1c0,0.1,0,0.2,0,0.4c0,0,0,0,0,0.1
				C180.1,81.2,180.1,81.3,180.1,81.3z"/>
			<path class="st16" d="M171,75.5c0,0.1,0.1,0,0.1,0.1c0.3,0.1,0.5,0.5,0.5,0.8c-0.1,0.4-0.3,0.6-0.7,0.6c-0.4,0-0.7-0.2-0.7-0.6
				c-0.1-0.3,0.1-0.7,0.4-0.8c0,0,0.1,0,0.1-0.1C170.8,75.5,170.9,75.5,171,75.5z"/>
			<path class="st16" d="M163.8,75.5c0.1,0.1,0.2,0,0.2,0.1c0.3,0.1,0.5,0.5,0.4,0.8c-0.1,0.4-0.4,0.6-0.7,0.6
				c-0.3,0-0.6-0.2-0.7-0.6c-0.1-0.3,0.1-0.7,0.4-0.8c0.1,0,0.1,0,0.2-0.1C163.6,75.5,163.7,75.5,163.8,75.5z"/>
			<path class="st16" d="M178.2,75.5c0.1,0,0.2,0,0.2,0.1c0.3,0.1,0.5,0.5,0.4,0.9c-0.1,0.3-0.4,0.5-0.7,0.5c-0.4,0-0.6-0.3-0.7-0.6
				c-0.1-0.3,0.1-0.7,0.4-0.8c0.1,0,0.1,0,0.2-0.1C178.1,75.5,178.2,75.5,178.2,75.5z"/>
			<path class="st16" d="M180.1,80.7c-0.1,0,0-0.1,0-0.1c0-0.8,0-1.7,0-2.5c0-0.1,0-0.1,0-0.1C180.1,78.9,180.1,79.8,180.1,80.7z"/>
			<path class="st16" d="M180.1,81.2C180.1,81.2,180.1,81.1,180.1,81.2C180.1,81.1,180.1,81.2,180.1,81.2z"/>
			<path class="st16" d="M162.6,78.8c-0.1,0.1-0.1,0.2-0.1,0.3c0,0.7,0,1.4,0,2c0,0.3-0.2,0.5-0.5,0.4c-0.2-0.1-0.2-0.2-0.2-0.4
				c0-1,0-2.1,0-3.1c0-0.5,0.3-0.7,0.7-0.8c0.8,0,1.6,0,2.5,0c0.4,0,0.7,0.3,0.7,0.7c0,1,0,2.1,0,3.1c0,0.4-0.2,0.5-0.5,0.4
				c-0.2,0-0.3-0.2-0.3-0.4c0-0.4,0-0.9,0-1.3c0-0.3,0-0.5,0-0.8c0-0.1,0-0.2-0.1-0.3c-0.1,0.1-0.1,0.2-0.1,0.3c0,2,0,4,0,5.9
				c0,0.1,0,0.2,0,0.3c-0.1,0.3-0.3,0.5-0.6,0.4c-0.2,0-0.3-0.2-0.3-0.4c0-0.2,0-0.5,0-0.7c0-0.9,0-1.9,0-2.8c0,0,0-0.1,0-0.1
				c0,0,0-0.1,0-0.1c-0.1,0-0.1,0-0.1,0.1c0,0.1,0,0.2,0,0.2c0,1,0,2,0,3.1c0,0.1,0,0.3,0,0.4c0,0.2-0.2,0.4-0.4,0.4
				c-0.2,0-0.4-0.1-0.4-0.4c0-0.1,0-0.2,0-0.3c0-2,0-4,0-5.9C162.7,79,162.6,78.9,162.6,78.8z"/>
			<path class="st16" d="M169.7,78.8c-0.1,0.1-0.1,0.2-0.1,0.3c0,0.6,0,1.2,0,1.8c0,0.1,0,0.2,0,0.2c0,0.3-0.1,0.5-0.4,0.5
				c-0.2,0-0.4-0.2-0.4-0.5c0-1,0-1.9,0-2.9c0-0.6,0.2-0.8,0.8-0.9c0.8,0,1.6,0,2.4,0c0.4,0,0.7,0.3,0.7,0.7c0,1,0,2.1,0,3.1
				c0,0.4-0.2,0.5-0.5,0.4c-0.2,0-0.2-0.2-0.2-0.3c0-0.1,0-0.2,0-0.2c0-0.6,0-1.2,0-1.9c0-0.1,0-0.2-0.1-0.3
				c-0.1,0.1-0.1,0.2-0.1,0.3c0,2,0,3.9,0,5.9c0,0.1,0,0.2,0,0.3c-0.1,0.3-0.3,0.5-0.6,0.4c-0.2,0-0.3-0.2-0.3-0.4
				c0-0.3,0-0.5,0-0.8c0-0.9,0-1.8,0-2.7c0-0.1,0-0.2-0.1-0.2c-0.1,0-0.1,0.1-0.1,0.2c0,0.1,0,0.1,0,0.2c0,1,0,2,0,3.1
				c0,0.1,0,0.3,0,0.4c0,0.2-0.2,0.4-0.4,0.4c-0.2,0-0.4-0.1-0.4-0.4c0-0.1,0-0.2,0-0.4c0-2,0-3.9,0-5.9
				C169.8,79,169.8,78.9,169.7,78.8z"/>
			<path class="st16" d="M173.3,86.7c-0.1,0.1-0.1,0.2-0.1,0.3c0,0.7,0,1.3,0,2c0,0.2-0.1,0.4-0.3,0.4c-0.3,0.1-0.5-0.1-0.5-0.4
				c0-0.3,0-0.6,0-0.9c0-0.7,0-1.3,0-2c0-0.1,0-0.2,0-0.3c0.1-0.4,0.3-0.6,0.7-0.6c0.8,0,1.6,0,2.5,0c0.4,0,0.7,0.3,0.7,0.7
				c0,1,0,2.1,0,3.1c0,0.2,0,0.3-0.2,0.4c-0.2,0.1-0.5,0-0.5-0.3c0-0.1,0-0.2,0-0.3c0-0.6,0-1.2,0-1.8c0-0.1,0-0.2-0.1-0.3
				c-0.1,0.1-0.1,0.2-0.1,0.3c0,2,0,3.9,0,5.9c0,0.1,0,0.2,0,0.3c-0.1,0.3-0.2,0.4-0.5,0.4c-0.3,0-0.4-0.2-0.4-0.5
				c0-1.2,0-2.3,0-3.5c0-0.1,0.1-0.2-0.1-0.2c-0.1,0-0.1,0.1-0.1,0.2c0,0.1,0,0.1,0,0.2c0,1,0,2.1,0,3.1c0,0.1,0,0.3,0,0.4
				c0,0.2-0.2,0.4-0.4,0.4c-0.2,0-0.4-0.1-0.4-0.3c0-0.1,0-0.2,0-0.4c0-2,0-4,0-5.9C173.4,86.9,173.4,86.8,173.3,86.7z"/>
			<path class="st16" d="M168.4,86.7c-0.1,0.1-0.1,0.2-0.1,0.3c0,2,0,3.9,0,5.9c0,0.1,0,0.2,0,0.3c-0.1,0.3-0.2,0.4-0.5,0.4
				c-0.3,0-0.4-0.2-0.4-0.5c0-1.2,0-2.3,0-3.5c0-0.1,0-0.2-0.1-0.2c-0.1,0-0.1,0.1-0.1,0.2c0,0.1,0,0.1,0,0.2c0,1,0,2.1,0,3.1
				c0,0.1,0,0.2,0,0.4c0,0.2-0.2,0.4-0.4,0.4c-0.2,0-0.4-0.1-0.4-0.4c0-0.1,0-0.2,0-0.3c0-2,0-4,0-5.9c0-0.1,0-0.2-0.1-0.3
				c-0.1,0.1-0.1,0.2-0.1,0.3c0,0.7,0,1.3,0,2c0,0.3-0.1,0.4-0.3,0.4c-0.2,0-0.4-0.1-0.4-0.4c0-0.8,0-1.7,0-2.5c0-0.2,0-0.5,0-0.7
				c0.1-0.4,0.3-0.6,0.7-0.6c0.8,0,1.7,0,2.5,0c0.4,0,0.7,0.3,0.7,0.6c0,1.1,0,2.1,0,3.2c0,0.3-0.1,0.4-0.4,0.4
				c-0.2,0-0.3-0.1-0.3-0.4c0-0.3,0-0.6,0-0.9c0-0.4,0-0.8,0-1.2C168.5,86.9,168.5,86.8,168.4,86.7z"/>
			<path class="st16" d="M167.3,83.4c0.4,0,0.7,0.3,0.7,0.7c0,0.4-0.3,0.7-0.7,0.7c-0.4,0-0.7-0.3-0.7-0.7
				C166.5,83.7,166.9,83.4,167.3,83.4z"/>
			<path class="st16" d="M173.7,84.1c0-0.4,0.3-0.7,0.7-0.7c0.4,0,0.7,0.3,0.7,0.7c0,0.4-0.3,0.7-0.7,0.7
				C174,84.9,173.7,84.5,173.7,84.1z"/>
		</g>
	</g>
	<path class="st15" d="M161,87.3c-0.1,0.1-0.1,0.2-0.1,0.3c0,2,0,3.9,0,5.9c0,0.1,0,0.2,0,0.3c-0.1,0.3-0.2,0.4-0.5,0.4
		c-0.3,0-0.4-0.2-0.4-0.5c0-1.2,0-2.3,0-3.5c0-0.1,0-0.2-0.1-0.2c-0.1,0-0.1,0.1-0.1,0.2c0,0.1,0,0.1,0,0.2c0,1,0,2.1,0,3.1
		c0,0.1,0,0.2,0,0.4c0,0.2-0.2,0.4-0.4,0.4c-0.2,0-0.4-0.1-0.4-0.4c0-0.1,0-0.2,0-0.3c0-2,0-4,0-5.9c0-0.1,0-0.2-0.1-0.3
		c-0.1,0.1-0.1,0.2-0.1,0.3c0,0.7,0,1.3,0,2c0,0.3-0.1,0.4-0.3,0.4c-0.2,0-0.4-0.1-0.4-0.4c0-0.8,0-1.7,0-2.5c0-0.2,0-0.5,0-0.7
		c0.1-0.4,0.3-0.6,0.7-0.6c0.8,0,1.7,0,2.5,0c0.4,0,0.7,0.3,0.7,0.6c0,1.1,0,2.1,0,3.2c0,0.3-0.1,0.4-0.4,0.4
		c-0.2,0-0.3-0.1-0.3-0.4c0-0.3,0-0.6,0-0.9c0-0.4,0-0.8,0-1.2C161.1,87.5,161.1,87.4,161,87.3z"/>
	<path class="st15" d="M159.9,84c0.4,0,0.7,0.3,0.7,0.7c0,0.4-0.3,0.7-0.7,0.7c-0.4,0-0.7-0.3-0.7-0.7C159.1,84.3,159.4,84,159.9,84
		z"/>
	<path class="st13" d="M104.8-15.5c-0.1,0.1-0.1,0.2-0.1,0.3c0,2,0,3.9,0,5.9c0,0.1,0,0.2,0,0.3c-0.1,0.3-0.2,0.4-0.5,0.4
		c-0.3,0-0.4-0.2-0.4-0.5c0-1.2,0-2.3,0-3.5c0-0.1,0-0.2-0.1-0.2c-0.1,0-0.1,0.1-0.1,0.2c0,0.1,0,0.1,0,0.2c0,1,0,2.1,0,3.1
		c0,0.1,0,0.2,0,0.4c0,0.2-0.2,0.4-0.4,0.4c-0.2,0-0.4-0.1-0.4-0.4c0-0.1,0-0.2,0-0.3c0-2,0-4,0-5.9c0-0.1,0-0.2-0.1-0.3
		c-0.1,0.1-0.1,0.2-0.1,0.3c0,0.7,0,1.3,0,2c0,0.3-0.1,0.4-0.3,0.4c-0.2,0-0.4-0.1-0.4-0.4c0-0.8,0-1.7,0-2.5c0-0.2,0-0.5,0-0.7
		c0.1-0.4,0.3-0.6,0.7-0.6c0.8,0,1.7,0,2.5,0c0.4,0,0.7,0.3,0.7,0.6c0,1.1,0,2.1,0,3.2c0,0.3-0.1,0.4-0.4,0.4
		c-0.2,0-0.3-0.1-0.3-0.4c0-0.3,0-0.6,0-0.9c0-0.4,0-0.8,0-1.2C104.9-15.3,104.9-15.4,104.8-15.5z"/>
	<path class="st13" d="M103.7-18.8c0.4,0,0.7,0.3,0.7,0.7c0,0.4-0.3,0.7-0.7,0.7c-0.4,0-0.7-0.3-0.7-0.7
		C103-18.4,103.3-18.8,103.7-18.8z"/>
</g>
</svg>
