<?xml version="1.0" encoding="utf-8"?>
<!-- Generator: Adobe Illustrator 26.4.1, SVG Export Plug-In . SVG Version: 6.00 Build 0)  -->
<svg version="1.1" id="Capa_1" xmlns="http://www.w3.org/2000/svg" xmlns:xlink="http://www.w3.org/1999/xlink" x="0px" y="0px"
	 viewBox="0 0 1005 600" style="enable-background:new 0 0 1005 600;" xml:space="preserve">
<style type="text/css">
	.st0{fill:#F7F7F7;}
	.st1{fill:#D3B700;}
	.st2{fill:#E41313;}
	.st3{fill:#3D616F;}
	.st4{fill:#D07B1B;}
	.st5{fill:#4A4A49;}
	.st6{fill:#242422;}
	.st7{fill:none;stroke:#000000;}
	.st8{font-family:'HelveticaLTStd-Light';}
	.st9{font-size:11.9504px;}
	.st10{font-family:'HelveticaLTStd-Fractions';}
	.st11{font-size:7.9216px;}
</style>
<rect id="backgorund" y="1.2" class="st0" width="1005" height="600"/>
<g id="viz" transform="translate(402.5,300)">
	<path class="st1" d="M966.6-296.8c110.1,0,199.3,89.2,199.3,199.3s-89.2,199.3-199.3,199.3S767.3,12.5,767.3-97.5
		S856.5-296.8,966.6-296.8 M966.6-198.2c-55.6,0-100.7,45.1-100.7,100.7C865.9-41.9,911,3.1,966.6,3.2c0,0,0,0,0,0
		c55.6,0,100.7-45.1,100.7-100.7S1022.3-198.2,966.6-198.2C966.6-198.2,966.6-198.2,966.6-198.2z"/>
	<path class="st2" d="M967.7-397.5c165.7,0.6,299.5,135.4,299,301c-0.1,23.8-3,47.4-8.7,70.5l-95.7-23.9
		c26.3-108.1-39.9-217-147.9-243.4c-15.3-3.7-30.9-5.6-46.7-5.7V-397.5z"/>
	<path class="st3" d="M1257.5-24c-13.6,53.8-41.9,102.8-81.7,141.5l-68.5-70.9c26.5-25.9,45.4-58.5,54.5-94.4L1257.5-24z"/>
	<path class="st4" d="M1174.3,119C1092,197.9,972.2,223.3,865,184.7l33.7-92.7c71.8,25.7,151.9,8.7,207-44L1174.3,119z"/>
	<path class="st5" d="M863,184c-52.1-19.2-97.8-52.4-132.2-96l77.7-60.7c22.9,29.1,53.5,51.2,88.2,64.1L863,184z"/>
	<path class="st6" d="M729.6,86.3C628-44.6,651.8-233,782.7-334.6c52.3-40.6,116.6-62.7,182.8-63v98.6
		c-111.2,0.6-200.9,91.2-200.3,202.4c0.2,44.2,15,87.1,42.1,122.1L729.6,86.3z"/>
</g>
<g id="labels" transform="translate(402.5,300)">
	
		<text transform="matrix(1 -3.222603e-04 3.222603e-04 1 791.5427 -97.5358)" class="st0" style="font-family:'Arial-ItalicMT'; font-size:14px;">Pasajeros</text>
	
		<text transform="matrix(0.788 -0.6157 0.6157 0.788 1141.7784 -219.2791)" class="st0" style="font-family:'Arial-BoldMT'; font-size:14px;">El impacto</text>
	<text transform="matrix(0.866 0.5 -0.5 0.866 1150.8801 4.4764)" style="enable-background:new    ;"><tspan x="0" y="0" class="st0" style="font-family:'Arial-BoldMT'; font-size:14px;">Heridas</tspan><tspan x="0" y="16.8" class="st0" style="font-family:'Arial-BoldMT'; font-size:14px;">y frio</tspan></text>
	
		<text transform="matrix(0.2079 0.9781 -0.9781 0.2079 1007.7704 108.9284)" class="st0" style="font-family:'Arial-BoldMT'; font-size:14px;">Alud</text>
	
		<text transform="matrix(0.5878 -0.809 0.809 0.5878 825.7611 105.6398)" class="st0" style="font-family:'Arial-BoldMT'; font-size:14px;">Otros</text>
	
		<text transform="matrix(0.8988 0.4384 -0.4384 0.8988 700.5241 -219.2791)" class="st0" style="font-family:'Arial-BoldMT'; font-size:14px;">Sobrevientes</text>
</g>
<g id="legend" transform="translate(805,10)">
	<g transform="translate(5,0)">
		<g transform="translate(0,0)">
			<g transform="translate(0,16)">
				<g transform="translate(0, 0)">
					<rect x="912.4" y="-824.8" class="st2" width="15" height="15"/>
				</g>
				<g transform="translate(0, 21)">
					<rect x="912.4" y="-824.8" class="st3" width="15" height="15"/>
				</g>
				<g transform="translate(0, 42)">
					<rect x="912.4" y="-824.8" class="st4" width="15" height="15"/>
				</g>
				<g transform="translate(0, 63)">
					<rect x="912.4" y="-824.8" class="st5" width="15" height="15"/>
					<text transform="matrix(1 0 0 1 932.3848 -812.2827)" style="font-family:'ArialMT'; font-size:15px;">Otros</text>
				</g>
				<g transform="translate(0, 84)">
					<rect x="912.4" y="-824.8" class="st6" width="15" height="15"/>
					<text transform="matrix(1 0 0 1 932.3848 -812.2827)" style="font-family:'ArialMT'; font-size:15px;">Sobrevientes</text>
				</g>
				<text transform="matrix(1 0 0 1 933.9995 -771.2827)" style="font-family:'ArialMT'; font-size:15px;">Alud</text>
				<g transform="translate(0, 21)">
					<text transform="matrix(1 0 0 1 932.5996 -833.2606)" style="font-family:'ArialMT'; font-size:15px;">El impacto</text>
				</g>
				<g transform="translate(0, 42)">
					<text transform="matrix(1 0 0 1 933.7847 -833.5229)" style="font-family:'ArialMT'; font-size:15px;">Heridas y frio</text>
				</g>
			</g>
			<text transform="matrix(1 0 0 1 912.3853 -821.9829)" style="font-family:'Arial-BoldMT'; font-size:20px;">Causa de muerte</text>
		</g>
	</g>
</g>
<g id="viz_00000057116555963380655740000003883993354244905118_">
	<g transform="translate(0,0)">
		<g transform="translate(47,16)">
			<g id="Cantidad">
				<rect x="303" y="61.1" class="st2" width="147.1" height="446.8"/>
				<rect x="450.9" y="370.4" class="st3" width="147.1" height="137.5"/>
				<rect x="155" y="232.9" class="st1" width="147.1" height="274.9"/>
				<rect x="598.8" y="370.4" class="st4" width="147.1" height="137.5"/>
			</g>
			<g id="xAxis" transform="translate(0,564)">
				<path class="st7" d="M154.2-56.1h592.5"/>
				<g transform="translate(93.87449933244322,0)">
					<line class="st7" x1="134.7" y1="-56.1" x2="134.7" y2="-51.4"/>
					<text transform="matrix(1 0 0 1 126.8039 -36.7879)" class="st8 st9">Alud</text>
				</g>
				<g transform="translate(280.6248331108144,0)">
					<line class="st7" x1="95.9" y1="-56.1" x2="95.9" y2="-51.4"/>
					<text transform="matrix(1 0 0 1 76.8602 -36.7879)" class="st8 st9">El impacto</text>
				</g>
				<g transform="translate(467.3751668891856,0)">
					<line class="st7" x1="57.1" y1="-56.1" x2="57.1" y2="-51.4"/>
					<text transform="matrix(1 0 0 1 30.8775 -36.7879)" class="st8 st9">Heridas y frio</text>
				</g>
				<g transform="translate(654.1255006675567,0)">
					<line class="st7" x1="18.3" y1="-56.1" x2="18.3" y2="-51.4"/>
					<text transform="matrix(1 0 0 1 10.3625 -36.7879)" class="st8 st9">Otro</text>
				</g>
			</g>
			<g id="yAxis">
				<path class="st7" d="M154.2,507.9V61.1"/>
				<g transform="translate(0,564)">
					<line class="st7" x1="154.2" y1="-56.1" x2="149.5" y2="-56.1"/>
					<text transform="matrix(1 0 0 1 142.7029 -53.5789)" class="st10 st11">0</text>
				</g>
				<g transform="translate(0,520.6153846153846)">
					<line class="st7" x1="154.2" y1="-47.1" x2="149.5" y2="-47.1"/>
					<text transform="matrix(1 0 0 1 142.7029 -44.5624)" class="st10 st11">1</text>
				</g>
				<g transform="translate(0,477.2307692307692)">
					<line class="st7" x1="154.2" y1="-38.1" x2="149.5" y2="-38.1"/>
					<text transform="matrix(1 0 0 1 142.7029 -35.545)" class="st10 st11">2</text>
				</g>
				<g transform="translate(0,433.8461538461538)">
					<line class="st7" x1="154.2" y1="-29.1" x2="149.5" y2="-29.1"/>
					<text transform="matrix(1 0 0 1 142.7029 -26.5276)" class="st10 st11">3</text>
				</g>
				<g transform="translate(0,390.46153846153845)">
					<line class="st7" x1="154.2" y1="-20" x2="149.5" y2="-20"/>
					<text transform="matrix(1 0 0 1 142.7029 -17.5111)" class="st10 st11">4</text>
				</g>
				<g transform="translate(0,347.0769230769231)">
					<line class="st7" x1="154.2" y1="-11" x2="149.5" y2="-11"/>
					<text transform="matrix(1 0 0 1 142.7029 -8.4937)" class="st10 st11">5</text>
				</g>
				<g transform="translate(0,303.6923076923077)">
					<line class="st7" x1="154.2" y1="-2" x2="149.5" y2="-2"/>
					<text transform="matrix(1 0 0 1 142.7029 0.5227)" class="st10 st11">6</text>
				</g>
				<g transform="translate(0,260.3076923076923)">
					<line class="st7" x1="154.2" y1="7" x2="149.5" y2="7"/>
					<text transform="matrix(1 0 0 1 142.7029 9.5402)" class="st10 st11">7</text>
				</g>
				<g transform="translate(0,216.9230769230769)">
					<line class="st7" x1="154.2" y1="16" x2="149.5" y2="16"/>
					<text transform="matrix(1 0 0 1 142.7029 18.5561)" class="st10 st11">8</text>
				</g>
				<g transform="translate(0,173.53846153846155)">
					<line class="st7" x1="154.2" y1="25" x2="149.5" y2="25"/>
					<text transform="matrix(1 0 0 1 142.7029 27.5736)" class="st10 st11">9</text>
				</g>
				<g transform="translate(0,130.15384615384613)">
					<line class="st7" x1="154.2" y1="34.1" x2="149.5" y2="34.1"/>
					<text transform="matrix(1 0 0 1 138.2976 36.591)" class="st10 st11">10</text>
				</g>
				<g transform="translate(0,86.76923076923077)">
					<line class="st7" x1="154.2" y1="43.1" x2="149.5" y2="43.1"/>
					<text transform="matrix(1 0 0 1 138.2976 45.6074)" class="st10 st11">11</text>
				</g>
				<g transform="translate(0,43.38461538461536)">
					<line class="st7" x1="154.2" y1="52.1" x2="149.5" y2="52.1"/>
					<text transform="matrix(1 0 0 1 138.2976 54.6249)" class="st10 st11">12</text>
				</g>
				<g transform="translate(0,0)">
					<line class="st7" x1="154.2" y1="61.1" x2="149.5" y2="61.1"/>
					<text transform="matrix(1 0 0 1 138.2976 63.6413)" class="st10 st11">13</text>
				</g>
			</g>
			<g>
				<text transform="matrix(1 0 0 1 752.1589 514.4573)" class="st8 st9">Causa de muerte</text>
			</g>
			<g>
				<text transform="matrix(1 0 0 1 132.5378 49.7409)" class="st8 st9">Pasajeros</text>
			</g>
		</g>
	</g>
</g>
<g id="viz_00000171691842071686164990000003145729135352548235_">
	<g transform="translate(0,0)">
		<g transform="translate(47,16)">
			<g id="Cantidad_00000123403203376676344980000016525446526376787624_">
				<rect x="-876.8" y="308" class="st2" width="160.1" height="486"/>
				<rect x="-715.9" y="644.5" class="st3" width="160.1" height="149.5"/>
				<rect x="-1037.8" y="494.9" class="st1" width="160.1" height="299.1"/>
				<rect x="-555" y="644.5" class="st4" width="160.1" height="149.5"/>
			</g>
			<g id="xAxis_00000026874419582622058460000012316370393328170889_" transform="translate(0,564)">
				<path class="st7" d="M-1038.6,230H-394"/>
				<g transform="translate(93.87449933244322,0)">
					<line class="st7" x1="-1051.6" y1="230" x2="-1051.6" y2="235.2"/>
					<text transform="matrix(1 0 0 1 -1060.2115 251.0318)" class="st8" style="font-size:13px;">Alud</text>
				</g>
				<g transform="translate(280.6248331108144,0)">
					<line class="st7" x1="-1077.4" y1="230" x2="-1077.4" y2="235.2"/>
					<text transform="matrix(1 0 0 1 -1098.1396 251.0318)" class="st8" style="font-size:13px;">El impacto</text>
				</g>
				<g transform="translate(467.3751668891856,0)">
					<line class="st7" x1="-1103.2" y1="230" x2="-1103.2" y2="235.2"/>
					<text transform="matrix(1 0 0 1 -1131.759 251.0318)" class="st8" style="font-size:13px;">Heridas y frio</text>
				</g>
				<g transform="translate(654.1255006675567,0)">
					<line class="st7" x1="-1129.1" y1="230" x2="-1129.1" y2="235.2"/>
					<text transform="matrix(1 0 0 1 -1137.6735 251.0318)" class="st8" style="font-size:13px;">Otro</text>
				</g>
			</g>
			<g id="yAxis_00000150799485006342775840000009648484045195697032_">
				<path class="st7" d="M-1038.6,794V308"/>
				<g transform="translate(0,564)">
					<line class="st7" x1="-1038.6" y1="230" x2="-1043.8" y2="230"/>
					<text transform="matrix(1 0 0 1 -1051.1614 232.7666)" class="st10" style="font-size:8.6174px;">0</text>
				</g>
				<g transform="translate(0,520.6153846153846)">
					<line class="st7" x1="-1038.6" y1="236" x2="-1043.8" y2="236"/>
					<text transform="matrix(1 0 0 1 -1051.1614 238.7646)" class="st10" style="font-size:8.6174px;">1</text>
				</g>
				<g transform="translate(0,477.2307692307692)">
					<line class="st7" x1="-1038.6" y1="242" x2="-1043.8" y2="242"/>
					<text transform="matrix(1 0 0 1 -1051.1614 244.7634)" class="st10" style="font-size:8.6174px;">2</text>
				</g>
				<g transform="translate(0,433.8461538461538)">
					<line class="st7" x1="-1038.6" y1="248" x2="-1043.8" y2="248"/>
					<text transform="matrix(1 0 0 1 -1051.1614 250.7623)" class="st10" style="font-size:8.6174px;">3</text>
				</g>
				<g transform="translate(0,390.46153846153845)">
					<line class="st7" x1="-1038.6" y1="254" x2="-1043.8" y2="254"/>
					<text transform="matrix(1 0 0 1 -1051.1614 256.7602)" class="st10" style="font-size:8.6174px;">4</text>
				</g>
				<g transform="translate(0,347.0769230769231)">
					<line class="st7" x1="-1038.6" y1="260" x2="-1043.8" y2="260"/>
					<text transform="matrix(1 0 0 1 -1051.1614 262.759)" class="st10" style="font-size:8.6174px;">5</text>
				</g>
				<g transform="translate(0,303.6923076923077)">
					<line class="st7" x1="-1038.6" y1="266" x2="-1043.8" y2="266"/>
					<text transform="matrix(1 0 0 1 -1051.1614 268.7569)" class="st10" style="font-size:8.6174px;">6</text>
				</g>
				<g transform="translate(0,260.3076923076923)">
					<line class="st7" x1="-1038.6" y1="272" x2="-1043.8" y2="272"/>
					<text transform="matrix(1 0 0 1 -1051.1614 274.7559)" class="st10" style="font-size:8.6174px;">7</text>
				</g>
				<g transform="translate(0,216.9230769230769)">
					<line class="st7" x1="-1038.6" y1="278" x2="-1043.8" y2="278"/>
					<text transform="matrix(1 0 0 1 -1051.1614 280.7542)" class="st10" style="font-size:8.6174px;">8</text>
				</g>
				<g transform="translate(0,173.53846153846155)">
					<line class="st7" x1="-1038.6" y1="284" x2="-1043.8" y2="284"/>
					<text transform="matrix(1 0 0 1 -1051.1614 286.7526)" class="st10" style="font-size:8.6174px;">9</text>
				</g>
				<g transform="translate(0,130.15384615384613)">
					<line class="st7" x1="-1038.6" y1="290" x2="-1043.8" y2="290"/>
					<text transform="matrix(1 0 0 1 -1055.9529 292.7515)" class="st10" style="font-size:8.6174px;">10</text>
				</g>
				<g transform="translate(0,86.76923076923077)">
					<line class="st7" x1="-1038.6" y1="296" x2="-1043.8" y2="296"/>
					<text transform="matrix(1 0 0 1 -1055.9529 298.7498)" class="st10" style="font-size:8.6174px;">11</text>
				</g>
				<g transform="translate(0,43.38461538461536)">
					<line class="st7" x1="-1038.6" y1="302" x2="-1043.8" y2="302"/>
					<text transform="matrix(1 0 0 1 -1055.9529 304.7482)" class="st10" style="font-size:8.6174px;">12</text>
				</g>
				<g transform="translate(0,0)">
					<line class="st7" x1="-1038.6" y1="308" x2="-1043.8" y2="308"/>
					<text transform="matrix(1 0 0 1 -1055.9529 310.7471)" class="st10" style="font-size:8.6174px;">13</text>
				</g>
			</g>
			<g>
				<text transform="matrix(1 0 0 1 -388.1768 801.1574)" class="st8" style="font-size:13px;">Causa de muerte</text>
			</g>
			<g>
				<text transform="matrix(1 0 0 1 -1062.2194 295.6255)" class="st8" style="font-size:13px;">Pasajeros</text>
			</g>
		</g>
	</g>
</g>
</svg>
