<?xml version="1.0" encoding="utf-8"?>
<!-- Generator: Adobe Illustrator 26.4.1, SVG Export Plug-In . SVG Version: 6.00 Build 0)  -->
<svg version="1.1" xmlns="http://www.w3.org/2000/svg" xmlns:xlink="http://www.w3.org/1999/xlink" x="0px" y="0px"
	 viewBox="0 0 1005 600" style="enable-background:new 0 0 1005 600;" xml:space="preserve">
<style type="text/css">
	.st0{fill:#F7F7F7;}
	.st1{fill:none;stroke:#1D1D1B;stroke-width:6;stroke-miterlimit:10;}
	.st2{fill:none;stroke:#3A3938;stroke-width:2;stroke-miterlimit:10;}
	.st3{opacity:0.26;fill:#B2B2B2;}
	.st4{font-family:'HelveticaLTStd-Light';}
	.st5{font-size:19.9827px;}
	.st6{fill:#FFFFFF;}
	.st7{font-family:'HelveticaLTStd-Roman';}
	.st8{font-size:61.9743px;}
	.st9{fill:#ABABAC;}
	.st10{font-family:'MyriadPro-Regular';}
	.st11{font-size:18.2108px;}
	.st12{fill:none;stroke:#4A4A49;stroke-width:2;stroke-miterlimit:10;}
	.st13{font-size:10px;}
	.st14{fill:none;stroke:#E41313;stroke-width:2;stroke-miterlimit:10;}
	.st15{fill:none;stroke:#41AB34;stroke-width:2;stroke-miterlimit:10;}
	.st16{fill:none;stroke:#4A4A49;stroke-miterlimit:10;}
	.st17{fill:#4A4A49;}
	.st18{font-size:10.5829px;}
	.st19{fill:#E41313;}
	.st20{fill:none;}
	.st21{font-size:11.8873px;}
	.st22{fill:#4A4A49;stroke:#FFFFFF;stroke-miterlimit:10;}
	.st23{opacity:0.64;fill:#FFFFFF;stroke:#B8B8B9;stroke-miterlimit:10;}
	.st24{fill:none;stroke:#E41313;stroke-width:3;stroke-miterlimit:10;}
	.st25{fill:#515151;}
	.st26{opacity:0.77;}
	.st27{fill:none;stroke:#000000;stroke-miterlimit:10;stroke-dasharray:12,12;}
	.st28{font-size:12.7563px;}
</style>
<g id="Capa_1">
	<rect class="st0" width="1005" height="600"/>
</g>
<g id="Capa_2">
	<polyline class="st1" points="478,2.7 467.2,58.2 436.3,89.1 436.3,128.2 464.5,155.8 502.5,163.9 483.9,292.5 459.1,300.6 
		458.3,352.8 446.8,362.9 430.6,393.4 408.6,402.2 398.1,403.1 391.4,428.1 380.7,424.3 370.9,443.8 370.9,479.6 418.4,498.9 
		429.3,517 429.3,555.4 448.6,571.4 444.7,611.1 	"/>
	<path class="st2" d="M664.1,452.5c27.2,2.5,83.5,3.3,128.5-32.4c47-37.3,55.7-93.9,67.5-170.5c7.1-46.4,12.5-114.9,0.1-198.6"/>
	<path class="st3" d="M443.6,570.7l-16.3-15.3V517l-10.9-18.1L369,479.6v-35.8l6.8-19.5h13.6l6.8-21.2h16.3l16.3-9.8
		c0,0,16.3-21.2,14.9-26c-1.4-4.9,12.2-16.3,12.2-16.3l1.4-50.4c0,0,22.9-1.6,24.3-19.5s10.9-52.1,10.9-52.1l8.1-52.1v-13l-38-8.1
		l-28.2-27.7c0,0-3.8-32.5,0-39.1c3.8-6.5,21.4-22.8,21.4-22.8l9.5-8.1l2.7-13l6.8-30.9l3.6-32.4l-444.9-8v637.3h409.3L443.6,570.7z
		"/>
	<g>
		<text transform="matrix(1 0 0 1 108.1692 51.0003)" class="st4 st5">SANTIAGO</text>
	</g>
	<g>
		<text transform="matrix(1 0 0 1 443.782 228.8574)" class="st4 st5">MONTE SELER</text>
	</g>
	<g>
		<text transform="matrix(1 0 0 1 223.2148 325.1955)" class="st6 st7 st8">CHILE</text>
	</g>
	<text transform="matrix(1 0 0 1 522.917 325.1959)" class="st9 st7 st8">ARGENTINA</text>
	<g>
		<text transform="matrix(1 0 0 1 818.1266 33.0849)" class="st4 st5">MENDOZA</text>
	</g>
	<g>
		<text transform="matrix(1 0 0 1 766.7748 456.1982)" class="st10 st11">MALARGÜE</text>
	</g>
	<line class="st12" x1="815.1" y1="501.5" x2="843.9" y2="501.5"/>
	<text transform="matrix(1 0 0 1 849.176 504.5403)" class="st7 st13">RUTA QUE TOMÓ</text>
	<g>
		<line class="st14" x1="814.1" y1="517.1" x2="842.9" y2="517.1"/>
		<text transform="matrix(1 0 0 1 847.2517 519.6476)" class="st7 st13">ERROR EN LA RUTA</text>
	</g>
	<g>
		<line class="st15" x1="814.6" y1="547.8" x2="843.4" y2="547.8"/>
		<text transform="matrix(1 0 0 1 848.5014 551.699)" class="st7 st13">RUTA QUE DEBÍA TOMAR</text>
	</g>
	<text transform="matrix(1 0 0 1 847.1755 568.0824)" class="st7 st13">LUGAR AL QUE CREYÓ  LLEGAR</text>
	<polygon class="st16" points="833.6,566.9 829.5,564.8 825.5,566.9 826.3,562.4 823,559.3 827.5,558.6 829.5,554.5 831.5,558.6 
		836,559.3 832.8,562.4 	"/>
	<text transform="matrix(1 0 0 1 880.6582 192.47)" class="st17 st4 st18">FAU571</text>
	<g>
		<text transform="matrix(1 0 0 1 848.2897 535.5629)" class="st7 st13">LUGAR DE IMPACTO</text>
		<circle class="st19" cx="829.5" cy="531.4" r="7"/>
	</g>
	<line class="st20" x1="1074.6" y1="279" x2="1074.9" y2="278.2"/>
	<line class="st20" x1="1087.7" y1="238.7" x2="1087.7" y2="238.5"/>
	<g>
		<g>
			<polygon class="st6" points="136,540.2 135.9,536.7 148,527.8 			"/>
			<polygon class="st6" points="136,540.2 139.6,540.2 148,527.8 			"/>
		</g>
		<g>
			<polygon class="st6" points="136,540.2 136.2,543.8 124,552.7 			"/>
			<polygon class="st6" points="136,540.2 132.4,540.2 124,552.7 			"/>
		</g>
		<g>
			<polygon class="st6" points="136.5,540.2 132.9,540.4 124,528.2 			"/>
			<polygon class="st6" points="136.5,540.2 136.5,536.7 124,528.2 			"/>
		</g>
		<g>
			<polygon class="st6" points="136.5,540.2 140.1,540.1 149,552.2 			"/>
			<polygon class="st6" points="136.5,540.2 136.5,543.8 149,552.2 			"/>
		</g>
		<g>
			<polygon class="st6" points="136,540.2 131.9,536.2 136,512.4 			"/>
			<polygon class="st6" points="136,540.2 140.2,536.2 136,512.4 			"/>
		</g>
		<g>
			<polygon class="st6" points="136,540.2 140.2,544.2 136,568.1 			"/>
			<polygon class="st6" points="136,540.2 131.9,544.2 136,568.1 			"/>
		</g>
		<g>
			<polygon class="st6" points="136,540.2 132,544.4 108.2,540.2 			"/>
			<polygon class="st6" points="136,540.2 132,536.1 108.2,540.2 			"/>
		</g>
		<g>
			<polygon class="st6" points="136,540.2 140,536.1 163.9,540.2 			"/>
			<polygon class="st6" points="136,540.2 140,544.4 163.9,540.2 			"/>
		</g>
	</g>
	<g>
		<text transform="matrix(1 0 0 1 131.8815 509.9145)" class="st6 st10 st21">N</text>
	</g>
	<path class="st22" d="M869.4,198.7l24.7-2.1c0,0,0.9,1.9-0.2,2.8c-1.1,0.8-15.8,6.3-15.8,6.3l-0.4,3.1l-3.2,0.2l0.1-1.7l-6.6,2.8
		c0,0,0.1,15.5-6.1,15.8c-6.3,0.2-2-17-2-17l-5.7-4.8l0,1.9l-3.7-0.4l0.8-3.2c0,0-12.9-9.2-13.6-10.7c-0.7-1.5,0.1-2.7,0.1-2.7
		l23.7,8.6l2.8-10.7l-5.1-5.9l0.1-3.5l6.6,3.1c0,0,1.2-1.8,2.3-1.4s1.1,2,1.1,2l7-1.2l-0.3,3.7l-6.4,3.5L869.4,198.7z"/>
	<path class="st23" d="M335.6,435.1l5,24.2c0,0-1.8,1.1-2.8,0.1c-1-1-8.2-14.9-8.2-14.9l-3.1,0l-0.6-3.1l1.7-0.1L324,435
		c0,0-15.4,2-16.4-4.2c-1-6.2,16.7-4,16.7-4l4-6.2l-1.9,0.2l0-3.7l3.3,0.4c0,0,7.5-13.9,8.9-14.8c1.4-0.9,2.7-0.2,2.7-0.2l-5.6,24.6
		l11,1.5l5.3-5.8l3.5-0.3l-2.3,7c0,0,1.9,0.9,1.7,2.1c-0.2,1.1-1.8,1.3-1.8,1.3l2,6.8l-3.7,0.2l-4.3-5.9L335.6,435.1z"/>
	<path class="st23" d="M125.2,195.1l-24.8,0.5c0,0-0.8-2,0.4-2.8s16.2-5.3,16.2-5.3l0.6-3.1l3.2,0l-0.2,1.7l6.8-2.4
		c0,0,0.9-15.5,7.2-15.3c6.3,0.2,0.9,17.1,0.9,17.1l5.3,5.1l0.1-1.9l3.6,0.7l-1,3.2c0,0,12.3,10,12.9,11.5c0.6,1.6-0.3,2.7-0.3,2.7
		L133,196.7l-3.5,10.5l4.7,6.2l-0.4,3.4l-6.4-3.6c0,0-1.3,1.7-2.4,1.3c-1.1-0.4-0.9-2-0.9-2l-7,0.7l0.5-3.7l6.6-3.1L125.2,195.1z"/>
	<circle class="st22" cx="573" cy="384" r="8"/>
	<circle class="st22" cx="792.6" cy="420.1" r="8"/>
	<circle class="st22" cx="860.2" cy="51" r="8"/>
	<path class="st15" d="M486.1,436.5c0,0-354.9,1.3-361.9-64.7s13.7-227.5,13.7-227.5l8.8-76.4"/>
	<path class="st24" d="M649.9,452c0,0-160,0.7-163.2-36.4s6.2-128,6.2-128"/>
	<polygon class="st6" points="142.9,382.3 128.1,381.3 118.9,392.9 115.2,378.5 101.3,373.4 113.9,365.5 114.5,350.6 125.9,360.1 
		140.2,356.1 134.7,369.9 	"/>
	<circle class="st25" cx="144.5" cy="67.9" r="8"/>
	<g>
		<text transform="matrix(1 0 0 1 101.2925 412.0439)" class="st10 st11">CURICÓ</text>
	</g>
	<g class="st26">
		<line class="st17" x1="866.8" y1="51" x2="1005" y2="51"/>
		<g>
			<line class="st27" x1="866.8" y1="51" x2="1003.8" y2="51"/>
			<g>
				<path d="M997,55.8c-0.1-0.2-0.1-0.5,0.2-0.7l6.5-4.1l-6.5-4.1c-0.2-0.1-0.3-0.5-0.2-0.7s0.5-0.3,0.7-0.2l7.1,4.5
					c0.1,0.1,0.2,0.3,0.2,0.4s-0.1,0.3-0.2,0.4l-7.1,4.5c-0.1,0.1-0.2,0.1-0.3,0.1C997.2,56,997.1,55.9,997,55.8z"/>
			</g>
		</g>
	</g>
	<g class="st26">
		<text transform="matrix(1 0 0 1 872.8848 67.9237)" class="st10 st28">URUGUAY</text>
	</g>
	<g>
		<text transform="matrix(1 0 0 1 588.9702 386.9668)" class="st17 st10 st18">LAS LEÑAS</text>
	</g>
	<circle class="st19" cx="496.6" cy="271.2" r="24.8"/>
	<path class="st22" d="M654,456.1l5,24.2c0,0-1.8,1.1-2.8,0.1c-1-1-8.2-14.9-8.2-14.9l-3.1,0l-0.6-3.1l1.7-0.1l-3.6-6.2
		c0,0-15.4,2-16.4-4.2c-1-6.2,16.7-4,16.7-4l4-6.2l-1.9,0.2l0-3.7l3.3,0.4c0,0,7.5-13.9,8.9-14.8c1.4-0.9,2.7-0.2,2.7-0.2l-5.6,24.6
		l11,1.5l5.3-5.8l3.5-0.3l-2.3,7c0,0,1.9,0.9,1.7,2.1c-0.2,1.1-1.8,1.3-1.8,1.3l2,6.8l-3.7,0.2l-4.3-5.9L654,456.1z"/>
	<path class="st22" d="M482.8,352.5l-24.6,3.1c0,0-1-1.9,0.1-2.8c1.1-0.9,15.5-6.9,15.5-6.9l0.3-3.1l3.2-0.4l0,1.7l6.5-3.1
		c0,0-0.7-15.5,5.5-16s2.7,16.9,2.7,16.9l5.8,4.5l-0.1-1.9l3.7,0.3l-0.6,3.2c0,0,13.3,8.6,14.1,10.1s0,2.7,0,2.7l-24-7.6l-2.4,10.8
		l5.3,5.7l0,3.5l-6.7-2.9c0,0-1.1,1.8-2.2,1.5s-1.1-1.9-1.1-1.9l-6.9,1.5l0.1-3.7l6.2-3.8L482.8,352.5z"/>
</g>
</svg>
